M48
; DRILL file {KiCad 5.1.5} date Mon Feb 17 18:03:33 2020
; FORMAT={-:-/ absolute / inch / decimal}
; #@! TF.CreationDate,2020-02-17T18:03:33-05:00
; #@! TF.GenerationSoftware,Kicad,Pcbnew,5.1.5
; #@! TF.FileFunction,Plated,1,2,PTH
FMAT,2
INCH
T1C0.0157
T2C0.0256
T3C0.0276
T4C0.0394
T5C0.0512
%
G90
G05
T1
X2.698Y-4.3197
X2.7362Y-4.9016
X2.7362Y-4.9409
X2.7362Y-5.0
X2.7362Y-5.0394
X2.7362Y-5.1378
X2.7362Y-5.1772
X2.7362Y-5.2559
X2.7362Y-5.2953
X2.815Y-4.5472
X2.8543Y-4.5472
X2.874Y-4.4587
X2.8937Y-4.5472
X2.9331Y-3.9961
X2.9331Y-4.8228
X2.9724Y-3.9961
X2.9724Y-4.8228
X3.0118Y-3.9961
X3.0118Y-4.8228
X3.0413Y-4.1339
X3.0512Y-4.8228
X3.1299Y-4.1142
X3.189Y-4.311
X3.2283Y-4.311
X3.2283Y-5.2362
X3.2283Y-5.4724
X3.2677Y-4.1142
X3.2677Y-4.1535
X3.2677Y-4.1929
X3.2677Y-4.311
X3.2677Y-5.4528
X3.3071Y-4.3898
X3.3071Y-5.4528
X3.3268Y-4.8031
X3.3366Y-4.2126
X3.3366Y-4.3504
X3.3858Y-4.6457
X3.4055Y-5.4528
X3.4252Y-4.626
X3.4449Y-4.4882
X3.4449Y-4.5276
X3.4449Y-5.4528
X3.4547Y-4.2323
X3.4843Y-4.8031
X3.4843Y-5.4528
X3.4941Y-4.2323
X3.4941Y-4.2717
X3.5236Y-4.8031
X3.5236Y-5.2362
X3.563Y-4.3898
X3.563Y-4.8031
X3.5827Y-4.6457
X3.6024Y-4.8031
X3.6122Y-4.1831
X3.7205Y-5.4528
X3.7598Y-5.4528
X3.7795Y-4.1142
X3.7992Y-5.4528
X3.8189Y-5.2362
X3.8583Y-4.2126
X4.0157Y-5.4528
X4.0551Y-5.4528
X4.0945Y-5.4528
X4.1142Y-5.2362
X4.252Y-4.7047
X4.2913Y-4.7047
X4.311Y-4.9606
X4.311Y-5.4528
X4.3307Y-4.7047
X4.3504Y-5.4528
X4.3701Y-4.2717
X4.3701Y-4.311
X4.3701Y-4.3504
X4.3701Y-4.3898
X4.3701Y-4.4685
X4.3701Y-4.5079
X4.3701Y-4.626
X4.3701Y-4.7047
X4.3898Y-5.4528
X4.4094Y-5.2362
X4.5472Y-5.0
X4.5669Y-4.2618
X4.5669Y-4.3406
X4.5669Y-4.7835
X4.5669Y-4.8425
X4.5866Y-5.0
X4.6063Y-5.4528
X4.626Y-5.0
X4.6457Y-5.4528
X4.685Y-5.4528
X4.7047Y-5.2362
X4.7638Y-4.2421
X4.7638Y-4.7047
X4.7933Y-4.2913
X4.8031Y-4.7047
X4.8425Y-4.7047
X4.9016Y-5.4528
X4.9213Y-4.439
X4.9213Y-4.4783
X4.9213Y-4.5177
X4.9213Y-4.5571
X4.9213Y-4.5965
X4.9409Y-5.4528
X4.9606Y-4.439
X4.9606Y-4.4783
X4.9606Y-4.5177
X4.9606Y-4.5571
X4.9606Y-4.5965
X4.9803Y-5.4528
X5.0Y-4.439
X5.0Y-4.4783
X5.0Y-4.5177
X5.0Y-4.5571
X5.0Y-4.5965
X5.0Y-5.2362
X5.0394Y-4.439
X5.0394Y-4.4783
X5.0394Y-4.5177
X5.0394Y-4.5571
X5.0394Y-4.5965
X5.0787Y-4.439
X5.0787Y-4.4783
X5.0787Y-4.5177
X5.0787Y-4.5571
X5.0787Y-4.5965
X5.189Y-4.2244
X5.1969Y-4.7047
X5.2067Y-5.4528
X5.2165Y-4.252
X5.2362Y-4.7047
X5.2461Y-5.4528
X5.2559Y-4.2913
X5.2559Y-4.3504
X5.2756Y-4.7047
X5.2854Y-5.4528
X5.2953Y-4.252
X5.2953Y-5.2165
X5.3051Y-4.8524
X5.3051Y-5.0
X5.4528Y-4.2323
X5.4626Y-4.3799
X5.4626Y-4.4291
X5.4724Y-4.4685
X5.4921Y-5.4528
X5.4921Y-5.502
X5.4921Y-5.5512
X5.4921Y-5.5984
X5.5217Y-4.8425
X5.5315Y-4.5965
X5.5315Y-4.9606
X5.6102Y-4.6063
X5.6299Y-5.1181
X5.7087Y-4.8819
X5.748Y-4.8819
X5.7677Y-4.5079
X5.7677Y-4.5472
X5.7677Y-4.5866
X5.7874Y-4.1929
X5.7874Y-4.8819
X5.8071Y-4.4882
X5.8071Y-4.7244
X5.8268Y-4.2323
X5.8268Y-4.8819
X5.8465Y-4.4882
X5.9843Y-4.3307
X5.9843Y-4.4488
X6.063Y-4.5965
X6.063Y-4.8819
X6.063Y-4.9213
X6.063Y-4.9606
X6.063Y-5.1181
X6.063Y-5.1575
X6.063Y-5.1969
T4
X6.122Y-4.3307
X6.122Y-4.4307
X3.5236Y-4.0157
X3.6236Y-4.0157
X3.7236Y-4.0157
X3.8236Y-4.0157
X3.9236Y-4.0157
T5
X5.4429Y-6.0138
X5.6429Y-6.0138
X3.002Y-6.0138
X3.1988Y-6.0138
X3.3957Y-6.0138
X3.5925Y-6.0138
X3.7894Y-6.0138
X3.9862Y-6.0138
X4.1831Y-6.0138
X4.3799Y-6.0138
X4.5799Y-6.0138
X4.7799Y-6.0138
X4.9799Y-6.0138
X5.1799Y-6.0138
T2
G00X2.7382Y-4.4045
M15
G01X2.7539Y-4.4045
M16
G05
G00X2.7382Y-4.6014
M15
G01X2.7539Y-4.6014
M16
G05
T3
G00X2.6181Y-4.3652
M15
G01X2.6378Y-4.3652
M16
G05
G00X2.6181Y-4.6407
M15
G01X2.6378Y-4.6407
M16
G05
T0
M30
