G04 #@! TF.GenerationSoftware,KiCad,Pcbnew,5.1.5*
G04 #@! TF.CreationDate,2020-02-17T18:04:10-05:00*
G04 #@! TF.ProjectId,12V-SmartSwitch,3132562d-536d-4617-9274-537769746368,rev?*
G04 #@! TF.SameCoordinates,Original*
G04 #@! TF.FileFunction,Legend,Top*
G04 #@! TF.FilePolarity,Positive*
%FSLAX46Y46*%
G04 Gerber Fmt 4.6, Leading zero omitted, Abs format (unit mm)*
G04 Created by KiCad (PCBNEW 5.1.5) date 2020-02-17 18:04:10*
%MOMM*%
%LPD*%
G04 APERTURE LIST*
%ADD10C,0.300000*%
%ADD11C,0.200000*%
%ADD12C,0.150000*%
%ADD13C,0.400000*%
%ADD14C,0.120000*%
%ADD15C,0.100000*%
%ADD16C,0.500000*%
%ADD17C,0.010000*%
G04 APERTURE END LIST*
D10*
X86000000Y-106285714D02*
X86071428Y-106357142D01*
X86000000Y-106428571D01*
X85928571Y-106357142D01*
X86000000Y-106285714D01*
X86000000Y-106428571D01*
D11*
X111547619Y-154565476D02*
X110952380Y-154565476D01*
X110892857Y-155160714D01*
X110952380Y-155101190D01*
X111071428Y-155041666D01*
X111369047Y-155041666D01*
X111488095Y-155101190D01*
X111547619Y-155160714D01*
X111607142Y-155279761D01*
X111607142Y-155577380D01*
X111547619Y-155696428D01*
X111488095Y-155755952D01*
X111369047Y-155815476D01*
X111071428Y-155815476D01*
X110952380Y-155755952D01*
X110892857Y-155696428D01*
X97101428Y-118042857D02*
X96701428Y-117471428D01*
X96415714Y-118042857D02*
X96415714Y-116842857D01*
X96872857Y-116842857D01*
X96987142Y-116900000D01*
X97044285Y-116957142D01*
X97101428Y-117071428D01*
X97101428Y-117242857D01*
X97044285Y-117357142D01*
X96987142Y-117414285D01*
X96872857Y-117471428D01*
X96415714Y-117471428D01*
X97501428Y-118042857D02*
X98130000Y-117242857D01*
X97501428Y-117242857D02*
X98130000Y-118042857D01*
D12*
X99064285Y-103550000D02*
X98978571Y-103507142D01*
X98850000Y-103507142D01*
X98721428Y-103550000D01*
X98635714Y-103635714D01*
X98592857Y-103721428D01*
X98550000Y-103892857D01*
X98550000Y-104021428D01*
X98592857Y-104192857D01*
X98635714Y-104278571D01*
X98721428Y-104364285D01*
X98850000Y-104407142D01*
X98935714Y-104407142D01*
X99064285Y-104364285D01*
X99107142Y-104321428D01*
X99107142Y-104021428D01*
X98935714Y-104021428D01*
X99492857Y-104407142D02*
X99492857Y-103507142D01*
X100007142Y-104407142D01*
X100007142Y-103507142D01*
X100435714Y-104407142D02*
X100435714Y-103507142D01*
X100650000Y-103507142D01*
X100778571Y-103550000D01*
X100864285Y-103635714D01*
X100907142Y-103721428D01*
X100950000Y-103892857D01*
X100950000Y-104021428D01*
X100907142Y-104192857D01*
X100864285Y-104278571D01*
X100778571Y-104364285D01*
X100650000Y-104407142D01*
X100435714Y-104407142D01*
X96314285Y-103592857D02*
X96357142Y-103550000D01*
X96442857Y-103507142D01*
X96657142Y-103507142D01*
X96742857Y-103550000D01*
X96785714Y-103592857D01*
X96828571Y-103678571D01*
X96828571Y-103764285D01*
X96785714Y-103892857D01*
X96271428Y-104407142D01*
X96828571Y-104407142D01*
X97128571Y-103507142D02*
X97685714Y-103507142D01*
X97385714Y-103850000D01*
X97514285Y-103850000D01*
X97600000Y-103892857D01*
X97642857Y-103935714D01*
X97685714Y-104021428D01*
X97685714Y-104235714D01*
X97642857Y-104321428D01*
X97600000Y-104364285D01*
X97514285Y-104407142D01*
X97257142Y-104407142D01*
X97171428Y-104364285D01*
X97128571Y-104321428D01*
X93792857Y-104364285D02*
X93921428Y-104407142D01*
X94135714Y-104407142D01*
X94221428Y-104364285D01*
X94264285Y-104321428D01*
X94307142Y-104235714D01*
X94307142Y-104150000D01*
X94264285Y-104064285D01*
X94221428Y-104021428D01*
X94135714Y-103978571D01*
X93964285Y-103935714D01*
X93878571Y-103892857D01*
X93835714Y-103850000D01*
X93792857Y-103764285D01*
X93792857Y-103678571D01*
X93835714Y-103592857D01*
X93878571Y-103550000D01*
X93964285Y-103507142D01*
X94178571Y-103507142D01*
X94307142Y-103550000D01*
X95207142Y-104321428D02*
X95164285Y-104364285D01*
X95035714Y-104407142D01*
X94950000Y-104407142D01*
X94821428Y-104364285D01*
X94735714Y-104278571D01*
X94692857Y-104192857D01*
X94650000Y-104021428D01*
X94650000Y-103892857D01*
X94692857Y-103721428D01*
X94735714Y-103635714D01*
X94821428Y-103550000D01*
X94950000Y-103507142D01*
X95035714Y-103507142D01*
X95164285Y-103550000D01*
X95207142Y-103592857D01*
X91292857Y-104364285D02*
X91421428Y-104407142D01*
X91635714Y-104407142D01*
X91721428Y-104364285D01*
X91764285Y-104321428D01*
X91807142Y-104235714D01*
X91807142Y-104150000D01*
X91764285Y-104064285D01*
X91721428Y-104021428D01*
X91635714Y-103978571D01*
X91464285Y-103935714D01*
X91378571Y-103892857D01*
X91335714Y-103850000D01*
X91292857Y-103764285D01*
X91292857Y-103678571D01*
X91335714Y-103592857D01*
X91378571Y-103550000D01*
X91464285Y-103507142D01*
X91678571Y-103507142D01*
X91807142Y-103550000D01*
X92192857Y-104407142D02*
X92192857Y-103507142D01*
X92407142Y-103507142D01*
X92535714Y-103550000D01*
X92621428Y-103635714D01*
X92664285Y-103721428D01*
X92707142Y-103892857D01*
X92707142Y-104021428D01*
X92664285Y-104192857D01*
X92621428Y-104278571D01*
X92535714Y-104364285D01*
X92407142Y-104407142D01*
X92192857Y-104407142D01*
X88428571Y-103507142D02*
X88985714Y-103507142D01*
X88685714Y-103850000D01*
X88814285Y-103850000D01*
X88900000Y-103892857D01*
X88942857Y-103935714D01*
X88985714Y-104021428D01*
X88985714Y-104235714D01*
X88942857Y-104321428D01*
X88900000Y-104364285D01*
X88814285Y-104407142D01*
X88557142Y-104407142D01*
X88471428Y-104364285D01*
X88428571Y-104321428D01*
X89285714Y-103807142D02*
X89500000Y-104407142D01*
X89714285Y-103807142D01*
X89971428Y-103507142D02*
X90528571Y-103507142D01*
X90228571Y-103850000D01*
X90357142Y-103850000D01*
X90442857Y-103892857D01*
X90485714Y-103935714D01*
X90528571Y-104021428D01*
X90528571Y-104235714D01*
X90485714Y-104321428D01*
X90442857Y-104364285D01*
X90357142Y-104407142D01*
X90100000Y-104407142D01*
X90014285Y-104364285D01*
X89971428Y-104321428D01*
X154964285Y-115157142D02*
X154664285Y-114728571D01*
X154450000Y-115157142D02*
X154450000Y-114257142D01*
X154792857Y-114257142D01*
X154878571Y-114300000D01*
X154921428Y-114342857D01*
X154964285Y-114428571D01*
X154964285Y-114557142D01*
X154921428Y-114642857D01*
X154878571Y-114685714D01*
X154792857Y-114728571D01*
X154450000Y-114728571D01*
X155264285Y-115157142D02*
X155735714Y-114557142D01*
X155264285Y-114557142D02*
X155735714Y-115157142D01*
X156078571Y-115157142D02*
X156078571Y-114257142D01*
X156292857Y-114257142D01*
X156421428Y-114300000D01*
X156507142Y-114385714D01*
X156550000Y-114471428D01*
X156592857Y-114642857D01*
X156592857Y-114771428D01*
X156550000Y-114942857D01*
X156507142Y-115028571D01*
X156421428Y-115114285D01*
X156292857Y-115157142D01*
X156078571Y-115157142D01*
X154428571Y-107507142D02*
X154942857Y-107507142D01*
X154685714Y-108407142D02*
X154685714Y-107507142D01*
X155157142Y-108407142D02*
X155628571Y-107807142D01*
X155157142Y-107807142D02*
X155628571Y-108407142D01*
X155971428Y-108407142D02*
X155971428Y-107507142D01*
X156185714Y-107507142D01*
X156314285Y-107550000D01*
X156400000Y-107635714D01*
X156442857Y-107721428D01*
X156485714Y-107892857D01*
X156485714Y-108021428D01*
X156442857Y-108192857D01*
X156400000Y-108278571D01*
X156314285Y-108364285D01*
X156185714Y-108407142D01*
X155971428Y-108407142D01*
D11*
X121083333Y-154565476D02*
X121916666Y-154565476D01*
X121380952Y-155815476D01*
X116488095Y-154565476D02*
X116250000Y-154565476D01*
X116130952Y-154625000D01*
X116071428Y-154684523D01*
X115952380Y-154863095D01*
X115892857Y-155101190D01*
X115892857Y-155577380D01*
X115952380Y-155696428D01*
X116011904Y-155755952D01*
X116130952Y-155815476D01*
X116369047Y-155815476D01*
X116488095Y-155755952D01*
X116547619Y-155696428D01*
X116607142Y-155577380D01*
X116607142Y-155279761D01*
X116547619Y-155160714D01*
X116488095Y-155101190D01*
X116369047Y-155041666D01*
X116130952Y-155041666D01*
X116011904Y-155101190D01*
X115952380Y-155160714D01*
X115892857Y-155279761D01*
X106488095Y-154982142D02*
X106488095Y-155815476D01*
X106190476Y-154505952D02*
X105892857Y-155398809D01*
X106666666Y-155398809D01*
X100833333Y-154565476D02*
X101607142Y-154565476D01*
X101190476Y-155041666D01*
X101369047Y-155041666D01*
X101488095Y-155101190D01*
X101547619Y-155160714D01*
X101607142Y-155279761D01*
X101607142Y-155577380D01*
X101547619Y-155696428D01*
X101488095Y-155755952D01*
X101369047Y-155815476D01*
X101011904Y-155815476D01*
X100892857Y-155755952D01*
X100833333Y-155696428D01*
X95892857Y-154684523D02*
X95952380Y-154625000D01*
X96071428Y-154565476D01*
X96369047Y-154565476D01*
X96488095Y-154625000D01*
X96547619Y-154684523D01*
X96607142Y-154803571D01*
X96607142Y-154922619D01*
X96547619Y-155101190D01*
X95833333Y-155815476D01*
X96607142Y-155815476D01*
X91607142Y-155815476D02*
X90892857Y-155815476D01*
X91250000Y-155815476D02*
X91250000Y-154565476D01*
X91130952Y-154744047D01*
X91011904Y-154863095D01*
X90892857Y-154922619D01*
X86190476Y-154565476D02*
X86309523Y-154565476D01*
X86428571Y-154625000D01*
X86488095Y-154684523D01*
X86547619Y-154803571D01*
X86607142Y-155041666D01*
X86607142Y-155339285D01*
X86547619Y-155577380D01*
X86488095Y-155696428D01*
X86428571Y-155755952D01*
X86309523Y-155815476D01*
X86190476Y-155815476D01*
X86071428Y-155755952D01*
X86011904Y-155696428D01*
X85952380Y-155577380D01*
X85892857Y-155339285D01*
X85892857Y-155041666D01*
X85952380Y-154803571D01*
X86011904Y-154684523D01*
X86071428Y-154625000D01*
X86190476Y-154565476D01*
X75773809Y-155339285D02*
X76726190Y-155339285D01*
X80773809Y-155339285D02*
X81726190Y-155339285D01*
X126023809Y-155339285D02*
X126976190Y-155339285D01*
X131023809Y-155339285D02*
X131976190Y-155339285D01*
X137523809Y-155339285D02*
X138476190Y-155339285D01*
X143023809Y-155339285D02*
X143976190Y-155339285D01*
X143500000Y-155815476D02*
X143500000Y-154863095D01*
D12*
X150500000Y-143500000D02*
X70500000Y-143500000D01*
X138657142Y-126364285D02*
X138785714Y-126407142D01*
X139000000Y-126407142D01*
X139085714Y-126364285D01*
X139128571Y-126321428D01*
X139171428Y-126235714D01*
X139171428Y-126150000D01*
X139128571Y-126064285D01*
X139085714Y-126021428D01*
X139000000Y-125978571D01*
X138828571Y-125935714D01*
X138742857Y-125892857D01*
X138700000Y-125850000D01*
X138657142Y-125764285D01*
X138657142Y-125678571D01*
X138700000Y-125592857D01*
X138742857Y-125550000D01*
X138828571Y-125507142D01*
X139042857Y-125507142D01*
X139171428Y-125550000D01*
X139428571Y-125507142D02*
X139728571Y-126407142D01*
X140028571Y-125507142D01*
X140328571Y-126407142D02*
X140328571Y-125507142D01*
X140671428Y-125507142D01*
X140757142Y-125550000D01*
X140800000Y-125592857D01*
X140842857Y-125678571D01*
X140842857Y-125807142D01*
X140800000Y-125892857D01*
X140757142Y-125935714D01*
X140671428Y-125978571D01*
X140328571Y-125978571D01*
D13*
X75023809Y-128154761D02*
X75023809Y-126154761D01*
X75880952Y-128154761D02*
X75880952Y-127107142D01*
X75785714Y-126916666D01*
X75595238Y-126821428D01*
X75309523Y-126821428D01*
X75119047Y-126916666D01*
X75023809Y-127011904D01*
X76547619Y-126821428D02*
X77309523Y-126821428D01*
X76833333Y-126154761D02*
X76833333Y-127869047D01*
X76928571Y-128059523D01*
X77119047Y-128154761D01*
X77309523Y-128154761D01*
X77690476Y-126821428D02*
X78452380Y-126821428D01*
X77976190Y-126154761D02*
X77976190Y-127869047D01*
X78071428Y-128059523D01*
X78261904Y-128154761D01*
X78452380Y-128154761D01*
X79119047Y-126821428D02*
X79119047Y-128821428D01*
X79119047Y-126916666D02*
X79309523Y-126821428D01*
X79690476Y-126821428D01*
X79880952Y-126916666D01*
X79976190Y-127011904D01*
X80071428Y-127202380D01*
X80071428Y-127773809D01*
X79976190Y-127964285D01*
X79880952Y-128059523D01*
X79690476Y-128154761D01*
X79309523Y-128154761D01*
X79119047Y-128059523D01*
X80928571Y-127964285D02*
X81023809Y-128059523D01*
X80928571Y-128154761D01*
X80833333Y-128059523D01*
X80928571Y-127964285D01*
X80928571Y-128154761D01*
X80928571Y-126916666D02*
X81023809Y-127011904D01*
X80928571Y-127107142D01*
X80833333Y-127011904D01*
X80928571Y-126916666D01*
X80928571Y-127107142D01*
X83309523Y-126059523D02*
X81595238Y-128630952D01*
X85404761Y-126059523D02*
X83690476Y-128630952D01*
X85880952Y-126821428D02*
X86357142Y-128154761D01*
X86833333Y-126821428D01*
X87595238Y-128154761D02*
X87595238Y-126821428D01*
X87595238Y-126154761D02*
X87500000Y-126250000D01*
X87595238Y-126345238D01*
X87690476Y-126250000D01*
X87595238Y-126154761D01*
X87595238Y-126345238D01*
X88547619Y-126821428D02*
X88547619Y-128154761D01*
X88547619Y-127011904D02*
X88642857Y-126916666D01*
X88833333Y-126821428D01*
X89119047Y-126821428D01*
X89309523Y-126916666D01*
X89404761Y-127107142D01*
X89404761Y-128154761D01*
X90071428Y-126821428D02*
X90833333Y-126821428D01*
X90357142Y-126154761D02*
X90357142Y-127869047D01*
X90452380Y-128059523D01*
X90642857Y-128154761D01*
X90833333Y-128154761D01*
X91785714Y-128154761D02*
X91595238Y-128059523D01*
X91500000Y-127869047D01*
X91500000Y-126154761D01*
X93404761Y-128154761D02*
X93404761Y-127107142D01*
X93309523Y-126916666D01*
X93119047Y-126821428D01*
X92738095Y-126821428D01*
X92547619Y-126916666D01*
X93404761Y-128059523D02*
X93214285Y-128154761D01*
X92738095Y-128154761D01*
X92547619Y-128059523D01*
X92452380Y-127869047D01*
X92452380Y-127678571D01*
X92547619Y-127488095D01*
X92738095Y-127392857D01*
X93214285Y-127392857D01*
X93404761Y-127297619D01*
X94357142Y-128154761D02*
X94357142Y-126154761D01*
X94357142Y-126916666D02*
X94547619Y-126821428D01*
X94928571Y-126821428D01*
X95119047Y-126916666D01*
X95214285Y-127011904D01*
X95309523Y-127202380D01*
X95309523Y-127773809D01*
X95214285Y-127964285D01*
X95119047Y-128059523D01*
X94928571Y-128154761D01*
X94547619Y-128154761D01*
X94357142Y-128059523D01*
X96071428Y-128059523D02*
X96261904Y-128154761D01*
X96642857Y-128154761D01*
X96833333Y-128059523D01*
X96928571Y-127869047D01*
X96928571Y-127773809D01*
X96833333Y-127583333D01*
X96642857Y-127488095D01*
X96357142Y-127488095D01*
X96166666Y-127392857D01*
X96071428Y-127202380D01*
X96071428Y-127107142D01*
X96166666Y-126916666D01*
X96357142Y-126821428D01*
X96642857Y-126821428D01*
X96833333Y-126916666D01*
X97785714Y-127964285D02*
X97880952Y-128059523D01*
X97785714Y-128154761D01*
X97690476Y-128059523D01*
X97785714Y-127964285D01*
X97785714Y-128154761D01*
X99595238Y-128059523D02*
X99404761Y-128154761D01*
X99023809Y-128154761D01*
X98833333Y-128059523D01*
X98738095Y-127964285D01*
X98642857Y-127773809D01*
X98642857Y-127202380D01*
X98738095Y-127011904D01*
X98833333Y-126916666D01*
X99023809Y-126821428D01*
X99404761Y-126821428D01*
X99595238Y-126916666D01*
X100738095Y-128154761D02*
X100547619Y-128059523D01*
X100452380Y-127964285D01*
X100357142Y-127773809D01*
X100357142Y-127202380D01*
X100452380Y-127011904D01*
X100547619Y-126916666D01*
X100738095Y-126821428D01*
X101023809Y-126821428D01*
X101214285Y-126916666D01*
X101309523Y-127011904D01*
X101404761Y-127202380D01*
X101404761Y-127773809D01*
X101309523Y-127964285D01*
X101214285Y-128059523D01*
X101023809Y-128154761D01*
X100738095Y-128154761D01*
X102261904Y-128154761D02*
X102261904Y-126821428D01*
X102261904Y-127011904D02*
X102357142Y-126916666D01*
X102547619Y-126821428D01*
X102833333Y-126821428D01*
X103023809Y-126916666D01*
X103119047Y-127107142D01*
X103119047Y-128154761D01*
X103119047Y-127107142D02*
X103214285Y-126916666D01*
X103404761Y-126821428D01*
X103690476Y-126821428D01*
X103880952Y-126916666D01*
X103976190Y-127107142D01*
X103976190Y-128154761D01*
D11*
X66292857Y-126334285D02*
X65092857Y-126334285D01*
X65092857Y-125877142D01*
X65150000Y-125762857D01*
X65207142Y-125705714D01*
X65321428Y-125648571D01*
X65492857Y-125648571D01*
X65607142Y-125705714D01*
X65664285Y-125762857D01*
X65721428Y-125877142D01*
X65721428Y-126334285D01*
X65492857Y-125248571D02*
X66292857Y-125020000D01*
X65721428Y-124791428D01*
X66292857Y-124562857D01*
X65492857Y-124334285D01*
X66292857Y-123877142D02*
X65492857Y-123877142D01*
X65721428Y-123877142D02*
X65607142Y-123820000D01*
X65550000Y-123762857D01*
X65492857Y-123648571D01*
X65492857Y-123534285D01*
X96244285Y-113842857D02*
X96930000Y-113842857D01*
X96587142Y-115042857D02*
X96587142Y-113842857D01*
X97215714Y-115042857D02*
X97844285Y-114242857D01*
X97215714Y-114242857D02*
X97844285Y-115042857D01*
X69364285Y-124907142D02*
X69764285Y-124907142D01*
X69935714Y-125588095D02*
X69364285Y-125588095D01*
X69364285Y-124288095D01*
X69935714Y-124288095D01*
X70450000Y-125588095D02*
X70450000Y-124288095D01*
X71135714Y-125588095D01*
X71135714Y-124288095D01*
X69871428Y-133907142D02*
X70042857Y-133969047D01*
X70100000Y-134030952D01*
X70157142Y-134154761D01*
X70157142Y-134340476D01*
X70100000Y-134464285D01*
X70042857Y-134526190D01*
X69928571Y-134588095D01*
X69471428Y-134588095D01*
X69471428Y-133288095D01*
X69871428Y-133288095D01*
X69985714Y-133350000D01*
X70042857Y-133411904D01*
X70100000Y-133535714D01*
X70100000Y-133659523D01*
X70042857Y-133783333D01*
X69985714Y-133845238D01*
X69871428Y-133907142D01*
X69471428Y-133907142D01*
X70900000Y-133288095D02*
X71128571Y-133288095D01*
X71242857Y-133350000D01*
X71357142Y-133473809D01*
X71414285Y-133721428D01*
X71414285Y-134154761D01*
X71357142Y-134402380D01*
X71242857Y-134526190D01*
X71128571Y-134588095D01*
X70900000Y-134588095D01*
X70785714Y-134526190D01*
X70671428Y-134402380D01*
X70614285Y-134154761D01*
X70614285Y-133721428D01*
X70671428Y-133473809D01*
X70785714Y-133350000D01*
X70900000Y-133288095D01*
X72157142Y-133288095D02*
X72385714Y-133288095D01*
X72500000Y-133350000D01*
X72614285Y-133473809D01*
X72671428Y-133721428D01*
X72671428Y-134154761D01*
X72614285Y-134402380D01*
X72500000Y-134526190D01*
X72385714Y-134588095D01*
X72157142Y-134588095D01*
X72042857Y-134526190D01*
X71928571Y-134402380D01*
X71871428Y-134154761D01*
X71871428Y-133721428D01*
X71928571Y-133473809D01*
X72042857Y-133350000D01*
X72157142Y-133288095D01*
X73014285Y-133288095D02*
X73700000Y-133288095D01*
X73357142Y-134588095D02*
X73357142Y-133288095D01*
X137071428Y-148092857D02*
X137985714Y-148092857D01*
X137528571Y-148588095D02*
X137528571Y-147597619D01*
X139128571Y-147288095D02*
X138557142Y-147288095D01*
X138500000Y-147907142D01*
X138557142Y-147845238D01*
X138671428Y-147783333D01*
X138957142Y-147783333D01*
X139071428Y-147845238D01*
X139128571Y-147907142D01*
X139185714Y-148030952D01*
X139185714Y-148340476D01*
X139128571Y-148464285D01*
X139071428Y-148526190D01*
X138957142Y-148588095D01*
X138671428Y-148588095D01*
X138557142Y-148526190D01*
X138500000Y-148464285D01*
X139700000Y-148092857D02*
X140614285Y-148092857D01*
X141128571Y-147411904D02*
X141185714Y-147350000D01*
X141300000Y-147288095D01*
X141585714Y-147288095D01*
X141700000Y-147350000D01*
X141757142Y-147411904D01*
X141814285Y-147535714D01*
X141814285Y-147659523D01*
X141757142Y-147845238D01*
X141071428Y-148588095D01*
X141814285Y-148588095D01*
X142842857Y-147721428D02*
X142842857Y-148588095D01*
X142557142Y-147226190D02*
X142271428Y-148154761D01*
X143014285Y-148154761D01*
X143300000Y-147288095D02*
X143700000Y-148588095D01*
X144100000Y-147288095D01*
D14*
X155040000Y-116991422D02*
X155040000Y-117508578D01*
X156460000Y-116991422D02*
X156460000Y-117508578D01*
X156710000Y-122685000D02*
X156710000Y-120000000D01*
X154790000Y-122685000D02*
X156710000Y-122685000D01*
X154790000Y-120000000D02*
X154790000Y-122685000D01*
X138890000Y-115850000D02*
X138890000Y-118300000D01*
X142110000Y-117650000D02*
X142110000Y-115850000D01*
X140290000Y-120803922D02*
X140290000Y-121321078D01*
X141710000Y-120803922D02*
X141710000Y-121321078D01*
X154170000Y-108670000D02*
X155500000Y-108670000D01*
X154170000Y-110000000D02*
X154170000Y-108670000D01*
X154170000Y-111270000D02*
X156830000Y-111270000D01*
X156830000Y-111270000D02*
X156830000Y-113870000D01*
X154170000Y-111270000D02*
X154170000Y-113870000D01*
X154170000Y-113870000D02*
X156830000Y-113870000D01*
X88170000Y-103330000D02*
X88170000Y-102000000D01*
X89500000Y-103330000D02*
X88170000Y-103330000D01*
X90770000Y-103330000D02*
X90770000Y-100670000D01*
X90770000Y-100670000D02*
X100990000Y-100670000D01*
X90770000Y-103330000D02*
X100990000Y-103330000D01*
X100990000Y-103330000D02*
X100990000Y-100670000D01*
X106553922Y-126710000D02*
X107071078Y-126710000D01*
X106553922Y-125290000D02*
X107071078Y-125290000D01*
D15*
X135600000Y-148850000D02*
X136100000Y-148850000D01*
X135600000Y-148850000D02*
X135600000Y-149350000D01*
X135600000Y-156150000D02*
X135600000Y-156650000D01*
X135600000Y-156650000D02*
X136100000Y-156650000D01*
X145978000Y-156170000D02*
X145978000Y-156670000D01*
X145978000Y-156670000D02*
X145478000Y-156670000D01*
X145988000Y-148850000D02*
X145988000Y-149350000D01*
X145988000Y-148850000D02*
X145488000Y-148850000D01*
X133850000Y-148900000D02*
X133350000Y-148900000D01*
X133850000Y-148900000D02*
X133850000Y-149350000D01*
X73650000Y-148900000D02*
X73650000Y-149350000D01*
X73650000Y-148900000D02*
X74150000Y-148900000D01*
X73650000Y-156600000D02*
X74150000Y-156600000D01*
X73650000Y-156600000D02*
X73650000Y-156100000D01*
X133850000Y-156600000D02*
X133850000Y-156100000D01*
X133850000Y-156600000D02*
X133350000Y-156600000D01*
D14*
X141741422Y-128460000D02*
X142258578Y-128460000D01*
X141741422Y-127040000D02*
X142258578Y-127040000D01*
X142258578Y-125147500D02*
X141741422Y-125147500D01*
X142258578Y-123727500D02*
X141741422Y-123727500D01*
X113758578Y-108460000D02*
X113241422Y-108460000D01*
X113758578Y-107040000D02*
X113241422Y-107040000D01*
X145956250Y-125758750D02*
X145956250Y-126546250D01*
X145562500Y-126152500D02*
X146350000Y-126152500D01*
X146590000Y-130345563D02*
X147654437Y-131410000D01*
X146590000Y-125654437D02*
X147654437Y-124590000D01*
X146590000Y-125654437D02*
X146590000Y-126940000D01*
X146590000Y-130345563D02*
X146590000Y-129060000D01*
X147654437Y-131410000D02*
X153410000Y-131410000D01*
X147654437Y-124590000D02*
X153410000Y-124590000D01*
X153410000Y-124590000D02*
X153410000Y-126940000D01*
X153410000Y-131410000D02*
X153410000Y-129060000D01*
X95053922Y-107210000D02*
X95571078Y-107210000D01*
X95053922Y-105790000D02*
X95571078Y-105790000D01*
X67930000Y-110200000D02*
X69480000Y-110200000D01*
X67930000Y-110200000D02*
X67930000Y-110500000D01*
X65130000Y-110500000D02*
X67930000Y-110500000D01*
X67930000Y-118500000D02*
X69480000Y-118500000D01*
X67930000Y-118200000D02*
X67930000Y-118500000D01*
X65130000Y-118200000D02*
X67930000Y-118200000D01*
X71180000Y-113450000D02*
X70730000Y-113050000D01*
X71180000Y-112650000D02*
X71180000Y-113450000D01*
X70730000Y-113050000D02*
X71180000Y-112650000D01*
D16*
X117877981Y-106396000D02*
G75*
G03X117877981Y-106396000I-283981J0D01*
G01*
D12*
X136500000Y-106250000D02*
X118500000Y-106250000D01*
X118500000Y-100250000D02*
X118500000Y-125750000D01*
X136500000Y-100250000D02*
X136500000Y-125750000D01*
X136500000Y-125750000D02*
X118500000Y-125750000D01*
X136500000Y-100250000D02*
X118500000Y-100250000D01*
X66850000Y-123725000D02*
X67850000Y-123725000D01*
X67850000Y-123725000D02*
X67850000Y-124475000D01*
X67850000Y-127975000D02*
X67850000Y-128725000D01*
X67850000Y-128725000D02*
X66850000Y-128725000D01*
X65100000Y-127225000D02*
X65100000Y-125225000D01*
X65100000Y-133500000D02*
X65100000Y-131500000D01*
X67850000Y-135000000D02*
X66850000Y-135000000D01*
X67850000Y-134250000D02*
X67850000Y-135000000D01*
X67850000Y-130000000D02*
X67850000Y-130750000D01*
X66850000Y-130000000D02*
X67850000Y-130000000D01*
D14*
X89741422Y-112290000D02*
X90258578Y-112290000D01*
X89741422Y-113710000D02*
X90258578Y-113710000D01*
X113821078Y-113540000D02*
X113303922Y-113540000D01*
X113821078Y-114960000D02*
X113303922Y-114960000D01*
X113758578Y-111710000D02*
X113241422Y-111710000D01*
X113758578Y-110290000D02*
X113241422Y-110290000D01*
X151491422Y-134210000D02*
X152008578Y-134210000D01*
X151491422Y-132790000D02*
X152008578Y-132790000D01*
X150991422Y-110790000D02*
X151508578Y-110790000D01*
X150991422Y-112210000D02*
X151508578Y-112210000D01*
X113758578Y-117040000D02*
X113241422Y-117040000D01*
X113758578Y-118460000D02*
X113241422Y-118460000D01*
X72008578Y-131960000D02*
X71491422Y-131960000D01*
X72008578Y-130540000D02*
X71491422Y-130540000D01*
X72008578Y-127040000D02*
X71491422Y-127040000D01*
X72008578Y-128460000D02*
X71491422Y-128460000D01*
X85258578Y-113710000D02*
X84741422Y-113710000D01*
X85258578Y-112290000D02*
X84741422Y-112290000D01*
X143000000Y-122600000D02*
X145000000Y-122600000D01*
X145000000Y-122600000D02*
X145000000Y-118700000D01*
X143000000Y-122600000D02*
X143000000Y-118700000D01*
X64790000Y-120500000D02*
X64790000Y-123185000D01*
X64790000Y-123185000D02*
X66710000Y-123185000D01*
X66710000Y-123185000D02*
X66710000Y-120500000D01*
X98315000Y-115260461D02*
X101000000Y-115260461D01*
X98315000Y-113340461D02*
X98315000Y-115260461D01*
X101000000Y-113340461D02*
X98315000Y-113340461D01*
X101062500Y-116790000D02*
X98377500Y-116790000D01*
X98377500Y-116790000D02*
X98377500Y-118710000D01*
X98377500Y-118710000D02*
X101062500Y-118710000D01*
X90236848Y-105962712D02*
X90711848Y-105962712D01*
X90711848Y-105962712D02*
X90711848Y-106437712D01*
X86966848Y-110182712D02*
X86491848Y-110182712D01*
X86491848Y-110182712D02*
X86491848Y-109707712D01*
X90236848Y-110182712D02*
X90711848Y-110182712D01*
X90711848Y-110182712D02*
X90711848Y-109707712D01*
X86966848Y-105962712D02*
X86491848Y-105962712D01*
X73300000Y-105550000D02*
X75700000Y-105550000D01*
X75700000Y-102450000D02*
X72750000Y-102450000D01*
X152910000Y-116945408D02*
X151650000Y-116945408D01*
X146090000Y-116945408D02*
X147350000Y-116945408D01*
X152910000Y-120705408D02*
X152910000Y-116945408D01*
X146090000Y-122955408D02*
X146090000Y-116945408D01*
X120420000Y-134760000D02*
X120420000Y-133300000D01*
X123580000Y-134760000D02*
X123580000Y-132600000D01*
X123580000Y-134760000D02*
X122650000Y-134760000D01*
X120420000Y-134760000D02*
X121350000Y-134760000D01*
X105170000Y-141760000D02*
X106100000Y-141760000D01*
X108330000Y-141760000D02*
X107400000Y-141760000D01*
X108330000Y-141760000D02*
X108330000Y-139600000D01*
X105170000Y-141760000D02*
X105170000Y-140300000D01*
X135170000Y-141760000D02*
X135170000Y-140300000D01*
X138330000Y-141760000D02*
X138330000Y-139600000D01*
X138330000Y-141760000D02*
X137400000Y-141760000D01*
X135170000Y-141760000D02*
X136100000Y-141760000D01*
X83420000Y-124510000D02*
X84350000Y-124510000D01*
X86580000Y-124510000D02*
X85650000Y-124510000D01*
X86580000Y-124510000D02*
X86580000Y-122350000D01*
X83420000Y-124510000D02*
X83420000Y-123050000D01*
X127670000Y-134760000D02*
X127670000Y-133300000D01*
X130830000Y-134760000D02*
X130830000Y-132600000D01*
X130830000Y-134760000D02*
X129900000Y-134760000D01*
X127670000Y-134760000D02*
X128600000Y-134760000D01*
X97670000Y-134760000D02*
X98600000Y-134760000D01*
X100830000Y-134760000D02*
X99900000Y-134760000D01*
X100830000Y-134760000D02*
X100830000Y-132600000D01*
X97670000Y-134760000D02*
X97670000Y-133300000D01*
X127670000Y-141760000D02*
X127670000Y-140300000D01*
X130830000Y-141760000D02*
X130830000Y-139600000D01*
X130830000Y-141760000D02*
X129900000Y-141760000D01*
X127670000Y-141760000D02*
X128600000Y-141760000D01*
X97670000Y-141760000D02*
X98600000Y-141760000D01*
X100830000Y-141760000D02*
X99900000Y-141760000D01*
X100830000Y-141760000D02*
X100830000Y-139600000D01*
X97670000Y-141760000D02*
X97670000Y-140300000D01*
X90170000Y-134760000D02*
X90170000Y-133300000D01*
X93330000Y-134760000D02*
X93330000Y-132600000D01*
X93330000Y-134760000D02*
X92400000Y-134760000D01*
X90170000Y-134760000D02*
X91100000Y-134760000D01*
X90170000Y-141760000D02*
X91100000Y-141760000D01*
X93330000Y-141760000D02*
X92400000Y-141760000D01*
X93330000Y-141760000D02*
X93330000Y-139600000D01*
X90170000Y-141760000D02*
X90170000Y-140300000D01*
X120420000Y-141760000D02*
X120420000Y-140300000D01*
X123580000Y-141760000D02*
X123580000Y-139600000D01*
X123580000Y-141760000D02*
X122650000Y-141760000D01*
X120420000Y-141760000D02*
X121350000Y-141760000D01*
X112670000Y-134760000D02*
X113600000Y-134760000D01*
X115830000Y-134760000D02*
X114900000Y-134760000D01*
X115830000Y-134760000D02*
X115830000Y-132600000D01*
X112670000Y-134760000D02*
X112670000Y-133300000D01*
X82670000Y-134760000D02*
X82670000Y-133300000D01*
X85830000Y-134760000D02*
X85830000Y-132600000D01*
X85830000Y-134760000D02*
X84900000Y-134760000D01*
X82670000Y-134760000D02*
X83600000Y-134760000D01*
X112670000Y-141760000D02*
X113600000Y-141760000D01*
X115830000Y-141760000D02*
X114900000Y-141760000D01*
X115830000Y-141760000D02*
X115830000Y-139600000D01*
X112670000Y-141760000D02*
X112670000Y-140300000D01*
X82670000Y-141760000D02*
X82670000Y-140300000D01*
X85830000Y-141760000D02*
X85830000Y-139600000D01*
X85830000Y-141760000D02*
X84900000Y-141760000D01*
X82670000Y-141760000D02*
X83600000Y-141760000D01*
X78420000Y-124510000D02*
X79350000Y-124510000D01*
X81580000Y-124510000D02*
X80650000Y-124510000D01*
X81580000Y-124510000D02*
X81580000Y-122350000D01*
X78420000Y-124510000D02*
X78420000Y-123050000D01*
X135170000Y-134760000D02*
X135170000Y-133300000D01*
X138330000Y-134760000D02*
X138330000Y-132600000D01*
X138330000Y-134760000D02*
X137400000Y-134760000D01*
X135170000Y-134760000D02*
X136100000Y-134760000D01*
X105170000Y-134760000D02*
X106100000Y-134760000D01*
X108330000Y-134760000D02*
X107400000Y-134760000D01*
X108330000Y-134760000D02*
X108330000Y-132600000D01*
X105170000Y-134760000D02*
X105170000Y-133300000D01*
X98991422Y-136290000D02*
X99508578Y-136290000D01*
X98991422Y-137710000D02*
X99508578Y-137710000D01*
X91491422Y-130710000D02*
X92008578Y-130710000D01*
X91491422Y-129290000D02*
X92008578Y-129290000D01*
X121491422Y-130710000D02*
X122008578Y-130710000D01*
X121491422Y-129290000D02*
X122008578Y-129290000D01*
X91428922Y-137710000D02*
X91946078Y-137710000D01*
X91428922Y-136290000D02*
X91946078Y-136290000D01*
X121741422Y-136290000D02*
X122258578Y-136290000D01*
X121741422Y-137710000D02*
X122258578Y-137710000D01*
X89741422Y-117210000D02*
X90258578Y-117210000D01*
X89741422Y-115790000D02*
X90258578Y-115790000D01*
X84741422Y-115790000D02*
X85258578Y-115790000D01*
X84741422Y-117210000D02*
X85258578Y-117210000D01*
X113991422Y-130710000D02*
X114508578Y-130710000D01*
X113991422Y-129290000D02*
X114508578Y-129290000D01*
X83991422Y-129290000D02*
X84508578Y-129290000D01*
X83991422Y-130710000D02*
X84508578Y-130710000D01*
X113991422Y-137710000D02*
X114508578Y-137710000D01*
X113991422Y-136290000D02*
X114508578Y-136290000D01*
X83928922Y-136290000D02*
X84446078Y-136290000D01*
X83928922Y-137710000D02*
X84446078Y-137710000D01*
X105258578Y-117090461D02*
X104741422Y-117090461D01*
X105258578Y-118510461D02*
X104741422Y-118510461D01*
X105258578Y-115010461D02*
X104741422Y-115010461D01*
X105258578Y-113590461D02*
X104741422Y-113590461D01*
X136491422Y-130710000D02*
X137008578Y-130710000D01*
X136491422Y-129290000D02*
X137008578Y-129290000D01*
X79741422Y-119040000D02*
X80258578Y-119040000D01*
X79741422Y-120460000D02*
X80258578Y-120460000D01*
X106491422Y-137710000D02*
X107008578Y-137710000D01*
X106491422Y-136290000D02*
X107008578Y-136290000D01*
X136491422Y-136290000D02*
X137008578Y-136290000D01*
X136491422Y-137710000D02*
X137008578Y-137710000D01*
X85258578Y-119040000D02*
X84741422Y-119040000D01*
X85258578Y-120460000D02*
X84741422Y-120460000D01*
X113758578Y-122210000D02*
X113241422Y-122210000D01*
X113758578Y-120790000D02*
X113241422Y-120790000D01*
X70258578Y-120790000D02*
X69741422Y-120790000D01*
X70258578Y-122210000D02*
X69741422Y-122210000D01*
X128991422Y-129290000D02*
X129508578Y-129290000D01*
X128991422Y-130710000D02*
X129508578Y-130710000D01*
X98991422Y-130710000D02*
X99508578Y-130710000D01*
X98991422Y-129290000D02*
X99508578Y-129290000D01*
X128991422Y-136290000D02*
X129508578Y-136290000D01*
X128991422Y-137710000D02*
X129508578Y-137710000D01*
X106491422Y-130710000D02*
X107008578Y-130710000D01*
X106491422Y-129290000D02*
X107008578Y-129290000D01*
X95571078Y-110710000D02*
X95053922Y-110710000D01*
X95571078Y-109290000D02*
X95053922Y-109290000D01*
D17*
G36*
X157245746Y-130224201D02*
G01*
X157257832Y-130259080D01*
X157266547Y-130301893D01*
X157271668Y-130350915D01*
X157272970Y-130404420D01*
X157272283Y-130428776D01*
X157269449Y-130476013D01*
X157265041Y-130515819D01*
X157258362Y-130550887D01*
X157248718Y-130583907D01*
X157235414Y-130617570D01*
X157217752Y-130654568D01*
X157210117Y-130669370D01*
X157193836Y-130700480D01*
X157176214Y-130734178D01*
X157159084Y-130766957D01*
X157144280Y-130795309D01*
X157140517Y-130802520D01*
X157111177Y-130858711D01*
X157084615Y-130909471D01*
X157061369Y-130953771D01*
X157041980Y-130990582D01*
X157033972Y-131005720D01*
X157012151Y-131046879D01*
X156994497Y-131080130D01*
X156980435Y-131106549D01*
X156969392Y-131127211D01*
X156960791Y-131143192D01*
X156954058Y-131155571D01*
X156949853Y-131163200D01*
X156940673Y-131179858D01*
X156929289Y-131200669D01*
X156919277Y-131219080D01*
X156909993Y-131235962D01*
X156897199Y-131258893D01*
X156882444Y-131285109D01*
X156867277Y-131311849D01*
X156864171Y-131317297D01*
X156851085Y-131340412D01*
X156840013Y-131360324D01*
X156831842Y-131375410D01*
X156827459Y-131384047D01*
X156826960Y-131385397D01*
X156824163Y-131390930D01*
X156817221Y-131401040D01*
X156814990Y-131404020D01*
X156806134Y-131417268D01*
X156800086Y-131429174D01*
X156799618Y-131430510D01*
X156791922Y-131443767D01*
X156777610Y-131459443D01*
X156759115Y-131475342D01*
X156738870Y-131489266D01*
X156727887Y-131495278D01*
X156679292Y-131513519D01*
X156628340Y-131522092D01*
X156590740Y-131522100D01*
X156554270Y-131517143D01*
X156517745Y-131507947D01*
X156484925Y-131495611D01*
X156466280Y-131485765D01*
X156454059Y-131478784D01*
X156435610Y-131468980D01*
X156413877Y-131457897D01*
X156400240Y-131451155D01*
X156372922Y-131437576D01*
X156342055Y-131421846D01*
X156312993Y-131406707D01*
X156304196Y-131402031D01*
X156284473Y-131391802D01*
X156268230Y-131383996D01*
X156257409Y-131379508D01*
X156253972Y-131378893D01*
X156253344Y-131381060D01*
X156253400Y-131386092D01*
X156254248Y-131394592D01*
X156255997Y-131407164D01*
X156258753Y-131424411D01*
X156262625Y-131446936D01*
X156267720Y-131475341D01*
X156274146Y-131510230D01*
X156282011Y-131552206D01*
X156291423Y-131601872D01*
X156302489Y-131659831D01*
X156315317Y-131726686D01*
X156326635Y-131785500D01*
X156339840Y-131854083D01*
X156351345Y-131913943D01*
X156361385Y-131966333D01*
X156370195Y-132012504D01*
X156378007Y-132053707D01*
X156385056Y-132091195D01*
X156391577Y-132126219D01*
X156397802Y-132160031D01*
X156403967Y-132193883D01*
X156410305Y-132229026D01*
X156417050Y-132266713D01*
X156424436Y-132308194D01*
X156425887Y-132316360D01*
X156430949Y-132344849D01*
X156436246Y-132374666D01*
X156441018Y-132401538D01*
X156443484Y-132415420D01*
X156447489Y-132439291D01*
X156451186Y-132463576D01*
X156453807Y-132483208D01*
X156453898Y-132484000D01*
X156456282Y-132501597D01*
X156459976Y-132525226D01*
X156464350Y-132550943D01*
X156466482Y-132562740D01*
X156470948Y-132588068D01*
X156475015Y-132613178D01*
X156478058Y-132634129D01*
X156478964Y-132641480D01*
X156481111Y-132659024D01*
X156484281Y-132682704D01*
X156487942Y-132708612D01*
X156489788Y-132721157D01*
X156493223Y-132745715D01*
X156494845Y-132763455D01*
X156494635Y-132777561D01*
X156492577Y-132791214D01*
X156489325Y-132804977D01*
X156478447Y-132840118D01*
X156464650Y-132868801D01*
X156445864Y-132894695D01*
X156427821Y-132913934D01*
X156395281Y-132940324D01*
X156360462Y-132957079D01*
X156322578Y-132964420D01*
X156280847Y-132962567D01*
X156264979Y-132959744D01*
X156221378Y-132946512D01*
X156179598Y-132925194D01*
X156138889Y-132895257D01*
X156098501Y-132856166D01*
X156066363Y-132818505D01*
X156055071Y-132804876D01*
X156038097Y-132785155D01*
X156016649Y-132760717D01*
X155991935Y-132732937D01*
X155965164Y-132703188D01*
X155957831Y-132695098D01*
X155945280Y-132681153D01*
X155928246Y-132662065D01*
X155908947Y-132640328D01*
X155889602Y-132618435D01*
X155889251Y-132618038D01*
X155859719Y-132584523D01*
X155836104Y-132557735D01*
X155817613Y-132536776D01*
X155803449Y-132520748D01*
X155792816Y-132508753D01*
X155784918Y-132499893D01*
X155778961Y-132493269D01*
X155774148Y-132487984D01*
X155770955Y-132484514D01*
X155757944Y-132470162D01*
X155745124Y-132455646D01*
X155744920Y-132455410D01*
X155732307Y-132440896D01*
X155716897Y-132423234D01*
X155700399Y-132404374D01*
X155684519Y-132386263D01*
X155670965Y-132370851D01*
X155661444Y-132360085D01*
X155658560Y-132356866D01*
X155651805Y-132349341D01*
X155640381Y-132336529D01*
X155626357Y-132320748D01*
X155620939Y-132314640D01*
X155607246Y-132299589D01*
X155596018Y-132287979D01*
X155588964Y-132281545D01*
X155587609Y-132280799D01*
X155584674Y-132285287D01*
X155580654Y-132296838D01*
X155577788Y-132307469D01*
X155561231Y-132371199D01*
X155544783Y-132425529D01*
X155528124Y-132471210D01*
X155510931Y-132508995D01*
X155492884Y-132539634D01*
X155473661Y-132563880D01*
X155464069Y-132573334D01*
X155436137Y-132595069D01*
X155406605Y-132610240D01*
X155372974Y-132619778D01*
X155332746Y-132624618D01*
X155325573Y-132625016D01*
X155297189Y-132625790D01*
X155274322Y-132624679D01*
X155252437Y-132621264D01*
X155231593Y-132616334D01*
X155212247Y-132611580D01*
X155185567Y-132605398D01*
X155154178Y-132598377D01*
X155120706Y-132591106D01*
X155094680Y-132585607D01*
X155058115Y-132577959D01*
X155018427Y-132569607D01*
X154979258Y-132561320D01*
X154944250Y-132553869D01*
X154927040Y-132550180D01*
X154896074Y-132543524D01*
X154864012Y-132536640D01*
X154834351Y-132530279D01*
X154810586Y-132525191D01*
X154807660Y-132524566D01*
X154782849Y-132519251D01*
X154752605Y-132512752D01*
X154721424Y-132506037D01*
X154702436Y-132501938D01*
X154678908Y-132496933D01*
X154658965Y-132492838D01*
X154644726Y-132490078D01*
X154638333Y-132489079D01*
X154636928Y-132489462D01*
X154636120Y-132491121D01*
X154636104Y-132494820D01*
X154637076Y-132501324D01*
X154639232Y-132511397D01*
X154642766Y-132525804D01*
X154647875Y-132545311D01*
X154654754Y-132570680D01*
X154663598Y-132602677D01*
X154674604Y-132642067D01*
X154687966Y-132689614D01*
X154703881Y-132746082D01*
X154705900Y-132753240D01*
X154728341Y-132833301D01*
X154748055Y-132904779D01*
X154765323Y-132968792D01*
X154780424Y-133026461D01*
X154793639Y-133078905D01*
X154805250Y-133127245D01*
X154815535Y-133172601D01*
X154824777Y-133216094D01*
X154833255Y-133258842D01*
X154835505Y-133270695D01*
X154840322Y-133297987D01*
X154842931Y-133318042D01*
X154843500Y-133333501D01*
X154842201Y-133347004D01*
X154840868Y-133354012D01*
X154827574Y-133393007D01*
X154805558Y-133430132D01*
X154776253Y-133463896D01*
X154741092Y-133492808D01*
X154701505Y-133515377D01*
X154676513Y-133525159D01*
X154663776Y-133529995D01*
X154644807Y-133538013D01*
X154622514Y-133547960D01*
X154606548Y-133555369D01*
X154555970Y-133579248D01*
X154567593Y-133589154D01*
X154577497Y-133597475D01*
X154592015Y-133609535D01*
X154607027Y-133621920D01*
X154623163Y-133635234D01*
X154637977Y-133647546D01*
X154647589Y-133655620D01*
X154654241Y-133661140D01*
X154667853Y-133672327D01*
X154687507Y-133688430D01*
X154712285Y-133708699D01*
X154741272Y-133732383D01*
X154773548Y-133758733D01*
X154808196Y-133786998D01*
X154820360Y-133796915D01*
X154875809Y-133842137D01*
X154925315Y-133882553D01*
X154970824Y-133919757D01*
X155014283Y-133955342D01*
X155057639Y-133990904D01*
X155102838Y-134028035D01*
X155145480Y-134063106D01*
X155158076Y-134073508D01*
X155175131Y-134087642D01*
X155193301Y-134102735D01*
X155196280Y-134105213D01*
X155209093Y-134115845D01*
X155228327Y-134131764D01*
X155252560Y-134151797D01*
X155280371Y-134174768D01*
X155310341Y-134199505D01*
X155340054Y-134224015D01*
X155371368Y-134249850D01*
X155402448Y-134275522D01*
X155431746Y-134299748D01*
X155457713Y-134321246D01*
X155478798Y-134338735D01*
X155492454Y-134350098D01*
X155513684Y-134367788D01*
X155535752Y-134386126D01*
X155555200Y-134402242D01*
X155562801Y-134408518D01*
X155584781Y-134426787D01*
X155611574Y-134449291D01*
X155641893Y-134474929D01*
X155674453Y-134502601D01*
X155707969Y-134531205D01*
X155741155Y-134559641D01*
X155772725Y-134586806D01*
X155801395Y-134611602D01*
X155825878Y-134632925D01*
X155844890Y-134649676D01*
X155855195Y-134658952D01*
X155866102Y-134671593D01*
X155878043Y-134689396D01*
X155886859Y-134705439D01*
X155902680Y-134742988D01*
X155912803Y-134780063D01*
X155917206Y-134818199D01*
X155915867Y-134858928D01*
X155908765Y-134903786D01*
X155895876Y-134954303D01*
X155882658Y-134996060D01*
X155871774Y-135028933D01*
X155861418Y-135061261D01*
X155852023Y-135091591D01*
X155844018Y-135118468D01*
X155837835Y-135140436D01*
X155833904Y-135156042D01*
X155832656Y-135163831D01*
X155832813Y-135164387D01*
X155838512Y-135164701D01*
X155852604Y-135163862D01*
X155873410Y-135162014D01*
X155899246Y-135159306D01*
X155923596Y-135156475D01*
X155954246Y-135152782D01*
X155983073Y-135149349D01*
X156007850Y-135146439D01*
X156026353Y-135144314D01*
X156034480Y-135143423D01*
X156046817Y-135142137D01*
X156067184Y-135140014D01*
X156093504Y-135137271D01*
X156123702Y-135134123D01*
X156153860Y-135130978D01*
X156193165Y-135126891D01*
X156238227Y-135122222D01*
X156284695Y-135117421D01*
X156328217Y-135112938D01*
X156349440Y-135110759D01*
X156389773Y-135106612D01*
X156435756Y-135101866D01*
X156482937Y-135096982D01*
X156526860Y-135092420D01*
X156547560Y-135090262D01*
X156584340Y-135086533D01*
X156623413Y-135082760D01*
X156661459Y-135079250D01*
X156695160Y-135076313D01*
X156715200Y-135074700D01*
X156741945Y-135072566D01*
X156766260Y-135070448D01*
X156785711Y-135068569D01*
X156797867Y-135067154D01*
X156799020Y-135066978D01*
X156809231Y-135065758D01*
X156828018Y-135063950D01*
X156853820Y-135061678D01*
X156885077Y-135059061D01*
X156920228Y-135056222D01*
X156957714Y-135053283D01*
X156995975Y-135050363D01*
X157033449Y-135047586D01*
X157068578Y-135045073D01*
X157099801Y-135042944D01*
X157125558Y-135041322D01*
X157136270Y-135040719D01*
X157194120Y-135037661D01*
X157190751Y-135115920D01*
X157189543Y-135142993D01*
X157187926Y-135177794D01*
X157186016Y-135217906D01*
X157183928Y-135260910D01*
X157181779Y-135304387D01*
X157180168Y-135336420D01*
X157178063Y-135378667D01*
X157175953Y-135422321D01*
X157173950Y-135464956D01*
X157172169Y-135504146D01*
X157170721Y-135537463D01*
X157169911Y-135557400D01*
X157168465Y-135592077D01*
X157166614Y-135632478D01*
X157164568Y-135674188D01*
X157162541Y-135712790D01*
X157162002Y-135722500D01*
X157160560Y-135749349D01*
X157158793Y-135784296D01*
X157156797Y-135825285D01*
X157154672Y-135870263D01*
X157152514Y-135917175D01*
X157150422Y-135963968D01*
X157149542Y-135984120D01*
X157147346Y-136033893D01*
X157144889Y-136087975D01*
X157142304Y-136143580D01*
X157139722Y-136197924D01*
X157137273Y-136248224D01*
X157135089Y-136291696D01*
X157134708Y-136299080D01*
X157132583Y-136340377D01*
X157130443Y-136382528D01*
X157128403Y-136423217D01*
X157126579Y-136460127D01*
X157125086Y-136490942D01*
X157124255Y-136508630D01*
X157121043Y-136578480D01*
X157224841Y-136578480D01*
X157264917Y-136578652D01*
X157296194Y-136579386D01*
X157320031Y-136581012D01*
X157337787Y-136583856D01*
X157350821Y-136588247D01*
X157360490Y-136594511D01*
X157368155Y-136602979D01*
X157375173Y-136613976D01*
X157375697Y-136614888D01*
X157381983Y-136627291D01*
X157385779Y-136639623D01*
X157387673Y-136655057D01*
X157388255Y-136676770D01*
X157388265Y-136682620D01*
X157386905Y-136716127D01*
X157382419Y-136742046D01*
X157374113Y-136762650D01*
X157361292Y-136780217D01*
X157357146Y-136784555D01*
X157339701Y-136802000D01*
X156882289Y-136802000D01*
X156885404Y-136729610D01*
X156886842Y-136698840D01*
X156888762Y-136661734D01*
X156891085Y-136619540D01*
X156893731Y-136573507D01*
X156896621Y-136524883D01*
X156899676Y-136474916D01*
X156902815Y-136424855D01*
X156905960Y-136375947D01*
X156909031Y-136329442D01*
X156911948Y-136286587D01*
X156914633Y-136248632D01*
X156917005Y-136216823D01*
X156918985Y-136192411D01*
X156920494Y-136176642D01*
X156920734Y-136174620D01*
X156921996Y-136162281D01*
X156923717Y-136142235D01*
X156925704Y-136116909D01*
X156927760Y-136088736D01*
X156928497Y-136078100D01*
X156930803Y-136045495D01*
X156933666Y-136006741D01*
X156936786Y-135965812D01*
X156939862Y-135926682D01*
X156941173Y-135910460D01*
X156944730Y-135865460D01*
X156948373Y-135816650D01*
X156952049Y-135764979D01*
X156955703Y-135711400D01*
X156959279Y-135656863D01*
X156962724Y-135602319D01*
X156965982Y-135548721D01*
X156968999Y-135497019D01*
X156971720Y-135448164D01*
X156974090Y-135403108D01*
X156976055Y-135362802D01*
X156977560Y-135328197D01*
X156978550Y-135300244D01*
X156978971Y-135279895D01*
X156978767Y-135268101D01*
X156978264Y-135265464D01*
X156971997Y-135265096D01*
X156956504Y-135265880D01*
X156932641Y-135267722D01*
X156901265Y-135270531D01*
X156863233Y-135274211D01*
X156819402Y-135278670D01*
X156770628Y-135283815D01*
X156717769Y-135289552D01*
X156661680Y-135295787D01*
X156603220Y-135302427D01*
X156543245Y-135309379D01*
X156482611Y-135316549D01*
X156422176Y-135323845D01*
X156362796Y-135331172D01*
X156305328Y-135338437D01*
X156285940Y-135340933D01*
X156182116Y-135354297D01*
X156084715Y-135366694D01*
X155994041Y-135378090D01*
X155910394Y-135388450D01*
X155834077Y-135397738D01*
X155765392Y-135405919D01*
X155704641Y-135412959D01*
X155652127Y-135418823D01*
X155608150Y-135423475D01*
X155573015Y-135426881D01*
X155547022Y-135429005D01*
X155530474Y-135429813D01*
X155523672Y-135429270D01*
X155523591Y-135429204D01*
X155522938Y-135422918D01*
X155524882Y-135410833D01*
X155525884Y-135406764D01*
X155529451Y-135392828D01*
X155534464Y-135372613D01*
X155540031Y-135349728D01*
X155542007Y-135341500D01*
X155550260Y-135308732D01*
X155561136Y-135268201D01*
X155574083Y-135221793D01*
X155588548Y-135171395D01*
X155603979Y-135118895D01*
X155619823Y-135066180D01*
X155635528Y-135015137D01*
X155650543Y-134967652D01*
X155659296Y-134940725D01*
X155672310Y-134897564D01*
X155680283Y-134862520D01*
X155683186Y-134835780D01*
X155680992Y-134817532D01*
X155678277Y-134812059D01*
X155672112Y-134805674D01*
X155659042Y-134793749D01*
X155640061Y-134777137D01*
X155616161Y-134756686D01*
X155588336Y-134733248D01*
X155557580Y-134707673D01*
X155526480Y-134682113D01*
X155457174Y-134625787D01*
X155380859Y-134564334D01*
X155298685Y-134498677D01*
X155211807Y-134429735D01*
X155127340Y-134363119D01*
X155105269Y-134345674D01*
X155077723Y-134323766D01*
X155047125Y-134299328D01*
X155015895Y-134274295D01*
X154988000Y-134251847D01*
X154961633Y-134230595D01*
X154936679Y-134210514D01*
X154914679Y-134192841D01*
X154897178Y-134178815D01*
X154885717Y-134169677D01*
X154884237Y-134168507D01*
X154867824Y-134155192D01*
X154849946Y-134140160D01*
X154843597Y-134134669D01*
X154828706Y-134121952D01*
X154810030Y-134106426D01*
X154792702Y-134092334D01*
X154714613Y-134027968D01*
X154632508Y-133957108D01*
X154548193Y-133881461D01*
X154463476Y-133802734D01*
X154380163Y-133722634D01*
X154300061Y-133642869D01*
X154224977Y-133565145D01*
X154158079Y-133492687D01*
X154138820Y-133471144D01*
X154125646Y-133455884D01*
X154117779Y-133445691D01*
X154114444Y-133439353D01*
X154114866Y-133435656D01*
X154118269Y-133433388D01*
X154119780Y-133432795D01*
X154125191Y-133430969D01*
X154133063Y-133428671D01*
X154144465Y-133425636D01*
X154160466Y-133421598D01*
X154182135Y-133416293D01*
X154210540Y-133409454D01*
X154246749Y-133400817D01*
X154289500Y-133390669D01*
X154317009Y-133383917D01*
X154348720Y-133375749D01*
X154383311Y-133366544D01*
X154419461Y-133356680D01*
X154455848Y-133346536D01*
X154491153Y-133336490D01*
X154524054Y-133326920D01*
X154553229Y-133318204D01*
X154577358Y-133310722D01*
X154595120Y-133304851D01*
X154605194Y-133300970D01*
X154606999Y-133299735D01*
X154605810Y-133291211D01*
X154602439Y-133274082D01*
X154597181Y-133249597D01*
X154590330Y-133219003D01*
X154582182Y-133183548D01*
X154573030Y-133144482D01*
X154563170Y-133103053D01*
X154552897Y-133060509D01*
X154542505Y-133018098D01*
X154532289Y-132977068D01*
X154522543Y-132938668D01*
X154513957Y-132905640D01*
X154490684Y-132820502D01*
X154464895Y-132731659D01*
X154437243Y-132641122D01*
X154408383Y-132550903D01*
X154378972Y-132463013D01*
X154349663Y-132379463D01*
X154321112Y-132302264D01*
X154299235Y-132246372D01*
X154291584Y-132227002D01*
X154285656Y-132211240D01*
X154282313Y-132201420D01*
X154281879Y-132199497D01*
X154286296Y-132198052D01*
X154297434Y-132198876D01*
X154303469Y-132199907D01*
X154316603Y-132202434D01*
X154337081Y-132206316D01*
X154362257Y-132211052D01*
X154389487Y-132216145D01*
X154393640Y-132216919D01*
X154420591Y-132221950D01*
X154454613Y-132228319D01*
X154492791Y-132235478D01*
X154532210Y-132242880D01*
X154569957Y-132249981D01*
X154571440Y-132250260D01*
X154609055Y-132257339D01*
X154648463Y-132264748D01*
X154686750Y-132271939D01*
X154721002Y-132278366D01*
X154748304Y-132283481D01*
X154749240Y-132283656D01*
X154794114Y-132292066D01*
X154831010Y-132299022D01*
X154861941Y-132304913D01*
X154888921Y-132310126D01*
X154913964Y-132315050D01*
X154939081Y-132320072D01*
X154957520Y-132323800D01*
X154988412Y-132329949D01*
X155023927Y-132336837D01*
X155058687Y-132343428D01*
X155076900Y-132346800D01*
X155107656Y-132352687D01*
X155143349Y-132359925D01*
X155179039Y-132367492D01*
X155203570Y-132372940D01*
X155239059Y-132380916D01*
X155265926Y-132386580D01*
X155285414Y-132390057D01*
X155298764Y-132391476D01*
X155307219Y-132390962D01*
X155312020Y-132388642D01*
X155314409Y-132384643D01*
X155314533Y-132384258D01*
X155317617Y-132374929D01*
X155323001Y-132359293D01*
X155329562Y-132340611D01*
X155330055Y-132339220D01*
X155339513Y-132310767D01*
X155349964Y-132275799D01*
X155361613Y-132233561D01*
X155374664Y-132183300D01*
X155389321Y-132124262D01*
X155398791Y-132085060D01*
X155413555Y-132025830D01*
X155427506Y-131975097D01*
X155441119Y-131931280D01*
X155454874Y-131892799D01*
X155463039Y-131872459D01*
X155471296Y-131852738D01*
X155557689Y-131938499D01*
X155616225Y-131996641D01*
X155668070Y-132048221D01*
X155713776Y-132093803D01*
X155753892Y-132133953D01*
X155788969Y-132169236D01*
X155819558Y-132200215D01*
X155846209Y-132227456D01*
X155869474Y-132251523D01*
X155889902Y-132272981D01*
X155908044Y-132292395D01*
X155924451Y-132310330D01*
X155939673Y-132327350D01*
X155954262Y-132344019D01*
X155963258Y-132354460D01*
X156006713Y-132404728D01*
X156049670Y-132453620D01*
X156090492Y-132499298D01*
X156127540Y-132539919D01*
X156146240Y-132559999D01*
X156152261Y-132566645D01*
X156163531Y-132579293D01*
X156178599Y-132596308D01*
X156196012Y-132616053D01*
X156201746Y-132622572D01*
X156218863Y-132641984D01*
X156233384Y-132658343D01*
X156244098Y-132670293D01*
X156249795Y-132676481D01*
X156250395Y-132677039D01*
X156250100Y-132672276D01*
X156248397Y-132658984D01*
X156245520Y-132638661D01*
X156241700Y-132612808D01*
X156237169Y-132582921D01*
X156232160Y-132550499D01*
X156226904Y-132517041D01*
X156221633Y-132484046D01*
X156216580Y-132453011D01*
X156211977Y-132425435D01*
X156208055Y-132402816D01*
X156207122Y-132397640D01*
X156203441Y-132377386D01*
X156198341Y-132349278D01*
X156192212Y-132315458D01*
X156185443Y-132278071D01*
X156178420Y-132239260D01*
X156173990Y-132214760D01*
X156166248Y-132172326D01*
X156157751Y-132126426D01*
X156149075Y-132080128D01*
X156140797Y-132036505D01*
X156133494Y-131998626D01*
X156131052Y-131986160D01*
X156123885Y-131949635D01*
X156116325Y-131910827D01*
X156109001Y-131872989D01*
X156102543Y-131839373D01*
X156098578Y-131818520D01*
X156093689Y-131792647D01*
X156087411Y-131759431D01*
X156080243Y-131721515D01*
X156072683Y-131681536D01*
X156065232Y-131642138D01*
X156063041Y-131630560D01*
X156048103Y-131550843D01*
X156034515Y-131476805D01*
X156022378Y-131409037D01*
X156011793Y-131348135D01*
X156002862Y-131294691D01*
X155995684Y-131249301D01*
X155990362Y-131212557D01*
X155986996Y-131185053D01*
X155986591Y-131180980D01*
X155983093Y-131142460D01*
X155980125Y-131106844D01*
X155977772Y-131075425D01*
X155976121Y-131049496D01*
X155975258Y-131030352D01*
X155975269Y-131019285D01*
X155975699Y-131017086D01*
X155981182Y-131017811D01*
X155993712Y-131021902D01*
X156011055Y-131028591D01*
X156020339Y-131032458D01*
X156045102Y-131042841D01*
X156071778Y-131053762D01*
X156095138Y-131063084D01*
X156097980Y-131064192D01*
X156127004Y-131075816D01*
X156162454Y-131090590D01*
X156201559Y-131107349D01*
X156224980Y-131117589D01*
X156232699Y-131120983D01*
X156248072Y-131127736D01*
X156269448Y-131137125D01*
X156295178Y-131148424D01*
X156323613Y-131160909D01*
X156324040Y-131161096D01*
X156357815Y-131176228D01*
X156393871Y-131192894D01*
X156429016Y-131209586D01*
X156460060Y-131224796D01*
X156476440Y-131233128D01*
X156508556Y-131249803D01*
X156533006Y-131262412D01*
X156551136Y-131271580D01*
X156564290Y-131277932D01*
X156573815Y-131282092D01*
X156581057Y-131284685D01*
X156587361Y-131286335D01*
X156593887Y-131287632D01*
X156599372Y-131288914D01*
X156603732Y-131289788D01*
X156607668Y-131289327D01*
X156611880Y-131286607D01*
X156617067Y-131280702D01*
X156623929Y-131270687D01*
X156633167Y-131255636D01*
X156645480Y-131234625D01*
X156661569Y-131206728D01*
X156682132Y-131171020D01*
X156682248Y-131170820D01*
X156699108Y-131141407D01*
X156715944Y-131111696D01*
X156731385Y-131084129D01*
X156744061Y-131061150D01*
X156750661Y-131048900D01*
X156764045Y-131023665D01*
X156779138Y-130995276D01*
X156792855Y-130969537D01*
X156793879Y-130967620D01*
X156813479Y-130930668D01*
X156836317Y-130887136D01*
X156862713Y-130836412D01*
X156892985Y-130777884D01*
X156927451Y-130710938D01*
X156930940Y-130704147D01*
X156947328Y-130672404D01*
X156963070Y-130642207D01*
X156977278Y-130615232D01*
X156989067Y-130593159D01*
X156997550Y-130577666D01*
X157000155Y-130573113D01*
X157008164Y-130559121D01*
X157013526Y-130548970D01*
X157014919Y-130545532D01*
X157017275Y-130540398D01*
X157023713Y-130528179D01*
X157033292Y-130510621D01*
X157045072Y-130489468D01*
X157046986Y-130486066D01*
X157060777Y-130461373D01*
X157074220Y-130436935D01*
X157085723Y-130415671D01*
X157093333Y-130401200D01*
X157105690Y-130379080D01*
X157122813Y-130351257D01*
X157143171Y-130319996D01*
X157165231Y-130287565D01*
X157187459Y-130256230D01*
X157208323Y-130228258D01*
X157221617Y-130211501D01*
X157233492Y-130197063D01*
X157245746Y-130224201D01*
G37*
X157245746Y-130224201D02*
X157257832Y-130259080D01*
X157266547Y-130301893D01*
X157271668Y-130350915D01*
X157272970Y-130404420D01*
X157272283Y-130428776D01*
X157269449Y-130476013D01*
X157265041Y-130515819D01*
X157258362Y-130550887D01*
X157248718Y-130583907D01*
X157235414Y-130617570D01*
X157217752Y-130654568D01*
X157210117Y-130669370D01*
X157193836Y-130700480D01*
X157176214Y-130734178D01*
X157159084Y-130766957D01*
X157144280Y-130795309D01*
X157140517Y-130802520D01*
X157111177Y-130858711D01*
X157084615Y-130909471D01*
X157061369Y-130953771D01*
X157041980Y-130990582D01*
X157033972Y-131005720D01*
X157012151Y-131046879D01*
X156994497Y-131080130D01*
X156980435Y-131106549D01*
X156969392Y-131127211D01*
X156960791Y-131143192D01*
X156954058Y-131155571D01*
X156949853Y-131163200D01*
X156940673Y-131179858D01*
X156929289Y-131200669D01*
X156919277Y-131219080D01*
X156909993Y-131235962D01*
X156897199Y-131258893D01*
X156882444Y-131285109D01*
X156867277Y-131311849D01*
X156864171Y-131317297D01*
X156851085Y-131340412D01*
X156840013Y-131360324D01*
X156831842Y-131375410D01*
X156827459Y-131384047D01*
X156826960Y-131385397D01*
X156824163Y-131390930D01*
X156817221Y-131401040D01*
X156814990Y-131404020D01*
X156806134Y-131417268D01*
X156800086Y-131429174D01*
X156799618Y-131430510D01*
X156791922Y-131443767D01*
X156777610Y-131459443D01*
X156759115Y-131475342D01*
X156738870Y-131489266D01*
X156727887Y-131495278D01*
X156679292Y-131513519D01*
X156628340Y-131522092D01*
X156590740Y-131522100D01*
X156554270Y-131517143D01*
X156517745Y-131507947D01*
X156484925Y-131495611D01*
X156466280Y-131485765D01*
X156454059Y-131478784D01*
X156435610Y-131468980D01*
X156413877Y-131457897D01*
X156400240Y-131451155D01*
X156372922Y-131437576D01*
X156342055Y-131421846D01*
X156312993Y-131406707D01*
X156304196Y-131402031D01*
X156284473Y-131391802D01*
X156268230Y-131383996D01*
X156257409Y-131379508D01*
X156253972Y-131378893D01*
X156253344Y-131381060D01*
X156253400Y-131386092D01*
X156254248Y-131394592D01*
X156255997Y-131407164D01*
X156258753Y-131424411D01*
X156262625Y-131446936D01*
X156267720Y-131475341D01*
X156274146Y-131510230D01*
X156282011Y-131552206D01*
X156291423Y-131601872D01*
X156302489Y-131659831D01*
X156315317Y-131726686D01*
X156326635Y-131785500D01*
X156339840Y-131854083D01*
X156351345Y-131913943D01*
X156361385Y-131966333D01*
X156370195Y-132012504D01*
X156378007Y-132053707D01*
X156385056Y-132091195D01*
X156391577Y-132126219D01*
X156397802Y-132160031D01*
X156403967Y-132193883D01*
X156410305Y-132229026D01*
X156417050Y-132266713D01*
X156424436Y-132308194D01*
X156425887Y-132316360D01*
X156430949Y-132344849D01*
X156436246Y-132374666D01*
X156441018Y-132401538D01*
X156443484Y-132415420D01*
X156447489Y-132439291D01*
X156451186Y-132463576D01*
X156453807Y-132483208D01*
X156453898Y-132484000D01*
X156456282Y-132501597D01*
X156459976Y-132525226D01*
X156464350Y-132550943D01*
X156466482Y-132562740D01*
X156470948Y-132588068D01*
X156475015Y-132613178D01*
X156478058Y-132634129D01*
X156478964Y-132641480D01*
X156481111Y-132659024D01*
X156484281Y-132682704D01*
X156487942Y-132708612D01*
X156489788Y-132721157D01*
X156493223Y-132745715D01*
X156494845Y-132763455D01*
X156494635Y-132777561D01*
X156492577Y-132791214D01*
X156489325Y-132804977D01*
X156478447Y-132840118D01*
X156464650Y-132868801D01*
X156445864Y-132894695D01*
X156427821Y-132913934D01*
X156395281Y-132940324D01*
X156360462Y-132957079D01*
X156322578Y-132964420D01*
X156280847Y-132962567D01*
X156264979Y-132959744D01*
X156221378Y-132946512D01*
X156179598Y-132925194D01*
X156138889Y-132895257D01*
X156098501Y-132856166D01*
X156066363Y-132818505D01*
X156055071Y-132804876D01*
X156038097Y-132785155D01*
X156016649Y-132760717D01*
X155991935Y-132732937D01*
X155965164Y-132703188D01*
X155957831Y-132695098D01*
X155945280Y-132681153D01*
X155928246Y-132662065D01*
X155908947Y-132640328D01*
X155889602Y-132618435D01*
X155889251Y-132618038D01*
X155859719Y-132584523D01*
X155836104Y-132557735D01*
X155817613Y-132536776D01*
X155803449Y-132520748D01*
X155792816Y-132508753D01*
X155784918Y-132499893D01*
X155778961Y-132493269D01*
X155774148Y-132487984D01*
X155770955Y-132484514D01*
X155757944Y-132470162D01*
X155745124Y-132455646D01*
X155744920Y-132455410D01*
X155732307Y-132440896D01*
X155716897Y-132423234D01*
X155700399Y-132404374D01*
X155684519Y-132386263D01*
X155670965Y-132370851D01*
X155661444Y-132360085D01*
X155658560Y-132356866D01*
X155651805Y-132349341D01*
X155640381Y-132336529D01*
X155626357Y-132320748D01*
X155620939Y-132314640D01*
X155607246Y-132299589D01*
X155596018Y-132287979D01*
X155588964Y-132281545D01*
X155587609Y-132280799D01*
X155584674Y-132285287D01*
X155580654Y-132296838D01*
X155577788Y-132307469D01*
X155561231Y-132371199D01*
X155544783Y-132425529D01*
X155528124Y-132471210D01*
X155510931Y-132508995D01*
X155492884Y-132539634D01*
X155473661Y-132563880D01*
X155464069Y-132573334D01*
X155436137Y-132595069D01*
X155406605Y-132610240D01*
X155372974Y-132619778D01*
X155332746Y-132624618D01*
X155325573Y-132625016D01*
X155297189Y-132625790D01*
X155274322Y-132624679D01*
X155252437Y-132621264D01*
X155231593Y-132616334D01*
X155212247Y-132611580D01*
X155185567Y-132605398D01*
X155154178Y-132598377D01*
X155120706Y-132591106D01*
X155094680Y-132585607D01*
X155058115Y-132577959D01*
X155018427Y-132569607D01*
X154979258Y-132561320D01*
X154944250Y-132553869D01*
X154927040Y-132550180D01*
X154896074Y-132543524D01*
X154864012Y-132536640D01*
X154834351Y-132530279D01*
X154810586Y-132525191D01*
X154807660Y-132524566D01*
X154782849Y-132519251D01*
X154752605Y-132512752D01*
X154721424Y-132506037D01*
X154702436Y-132501938D01*
X154678908Y-132496933D01*
X154658965Y-132492838D01*
X154644726Y-132490078D01*
X154638333Y-132489079D01*
X154636928Y-132489462D01*
X154636120Y-132491121D01*
X154636104Y-132494820D01*
X154637076Y-132501324D01*
X154639232Y-132511397D01*
X154642766Y-132525804D01*
X154647875Y-132545311D01*
X154654754Y-132570680D01*
X154663598Y-132602677D01*
X154674604Y-132642067D01*
X154687966Y-132689614D01*
X154703881Y-132746082D01*
X154705900Y-132753240D01*
X154728341Y-132833301D01*
X154748055Y-132904779D01*
X154765323Y-132968792D01*
X154780424Y-133026461D01*
X154793639Y-133078905D01*
X154805250Y-133127245D01*
X154815535Y-133172601D01*
X154824777Y-133216094D01*
X154833255Y-133258842D01*
X154835505Y-133270695D01*
X154840322Y-133297987D01*
X154842931Y-133318042D01*
X154843500Y-133333501D01*
X154842201Y-133347004D01*
X154840868Y-133354012D01*
X154827574Y-133393007D01*
X154805558Y-133430132D01*
X154776253Y-133463896D01*
X154741092Y-133492808D01*
X154701505Y-133515377D01*
X154676513Y-133525159D01*
X154663776Y-133529995D01*
X154644807Y-133538013D01*
X154622514Y-133547960D01*
X154606548Y-133555369D01*
X154555970Y-133579248D01*
X154567593Y-133589154D01*
X154577497Y-133597475D01*
X154592015Y-133609535D01*
X154607027Y-133621920D01*
X154623163Y-133635234D01*
X154637977Y-133647546D01*
X154647589Y-133655620D01*
X154654241Y-133661140D01*
X154667853Y-133672327D01*
X154687507Y-133688430D01*
X154712285Y-133708699D01*
X154741272Y-133732383D01*
X154773548Y-133758733D01*
X154808196Y-133786998D01*
X154820360Y-133796915D01*
X154875809Y-133842137D01*
X154925315Y-133882553D01*
X154970824Y-133919757D01*
X155014283Y-133955342D01*
X155057639Y-133990904D01*
X155102838Y-134028035D01*
X155145480Y-134063106D01*
X155158076Y-134073508D01*
X155175131Y-134087642D01*
X155193301Y-134102735D01*
X155196280Y-134105213D01*
X155209093Y-134115845D01*
X155228327Y-134131764D01*
X155252560Y-134151797D01*
X155280371Y-134174768D01*
X155310341Y-134199505D01*
X155340054Y-134224015D01*
X155371368Y-134249850D01*
X155402448Y-134275522D01*
X155431746Y-134299748D01*
X155457713Y-134321246D01*
X155478798Y-134338735D01*
X155492454Y-134350098D01*
X155513684Y-134367788D01*
X155535752Y-134386126D01*
X155555200Y-134402242D01*
X155562801Y-134408518D01*
X155584781Y-134426787D01*
X155611574Y-134449291D01*
X155641893Y-134474929D01*
X155674453Y-134502601D01*
X155707969Y-134531205D01*
X155741155Y-134559641D01*
X155772725Y-134586806D01*
X155801395Y-134611602D01*
X155825878Y-134632925D01*
X155844890Y-134649676D01*
X155855195Y-134658952D01*
X155866102Y-134671593D01*
X155878043Y-134689396D01*
X155886859Y-134705439D01*
X155902680Y-134742988D01*
X155912803Y-134780063D01*
X155917206Y-134818199D01*
X155915867Y-134858928D01*
X155908765Y-134903786D01*
X155895876Y-134954303D01*
X155882658Y-134996060D01*
X155871774Y-135028933D01*
X155861418Y-135061261D01*
X155852023Y-135091591D01*
X155844018Y-135118468D01*
X155837835Y-135140436D01*
X155833904Y-135156042D01*
X155832656Y-135163831D01*
X155832813Y-135164387D01*
X155838512Y-135164701D01*
X155852604Y-135163862D01*
X155873410Y-135162014D01*
X155899246Y-135159306D01*
X155923596Y-135156475D01*
X155954246Y-135152782D01*
X155983073Y-135149349D01*
X156007850Y-135146439D01*
X156026353Y-135144314D01*
X156034480Y-135143423D01*
X156046817Y-135142137D01*
X156067184Y-135140014D01*
X156093504Y-135137271D01*
X156123702Y-135134123D01*
X156153860Y-135130978D01*
X156193165Y-135126891D01*
X156238227Y-135122222D01*
X156284695Y-135117421D01*
X156328217Y-135112938D01*
X156349440Y-135110759D01*
X156389773Y-135106612D01*
X156435756Y-135101866D01*
X156482937Y-135096982D01*
X156526860Y-135092420D01*
X156547560Y-135090262D01*
X156584340Y-135086533D01*
X156623413Y-135082760D01*
X156661459Y-135079250D01*
X156695160Y-135076313D01*
X156715200Y-135074700D01*
X156741945Y-135072566D01*
X156766260Y-135070448D01*
X156785711Y-135068569D01*
X156797867Y-135067154D01*
X156799020Y-135066978D01*
X156809231Y-135065758D01*
X156828018Y-135063950D01*
X156853820Y-135061678D01*
X156885077Y-135059061D01*
X156920228Y-135056222D01*
X156957714Y-135053283D01*
X156995975Y-135050363D01*
X157033449Y-135047586D01*
X157068578Y-135045073D01*
X157099801Y-135042944D01*
X157125558Y-135041322D01*
X157136270Y-135040719D01*
X157194120Y-135037661D01*
X157190751Y-135115920D01*
X157189543Y-135142993D01*
X157187926Y-135177794D01*
X157186016Y-135217906D01*
X157183928Y-135260910D01*
X157181779Y-135304387D01*
X157180168Y-135336420D01*
X157178063Y-135378667D01*
X157175953Y-135422321D01*
X157173950Y-135464956D01*
X157172169Y-135504146D01*
X157170721Y-135537463D01*
X157169911Y-135557400D01*
X157168465Y-135592077D01*
X157166614Y-135632478D01*
X157164568Y-135674188D01*
X157162541Y-135712790D01*
X157162002Y-135722500D01*
X157160560Y-135749349D01*
X157158793Y-135784296D01*
X157156797Y-135825285D01*
X157154672Y-135870263D01*
X157152514Y-135917175D01*
X157150422Y-135963968D01*
X157149542Y-135984120D01*
X157147346Y-136033893D01*
X157144889Y-136087975D01*
X157142304Y-136143580D01*
X157139722Y-136197924D01*
X157137273Y-136248224D01*
X157135089Y-136291696D01*
X157134708Y-136299080D01*
X157132583Y-136340377D01*
X157130443Y-136382528D01*
X157128403Y-136423217D01*
X157126579Y-136460127D01*
X157125086Y-136490942D01*
X157124255Y-136508630D01*
X157121043Y-136578480D01*
X157224841Y-136578480D01*
X157264917Y-136578652D01*
X157296194Y-136579386D01*
X157320031Y-136581012D01*
X157337787Y-136583856D01*
X157350821Y-136588247D01*
X157360490Y-136594511D01*
X157368155Y-136602979D01*
X157375173Y-136613976D01*
X157375697Y-136614888D01*
X157381983Y-136627291D01*
X157385779Y-136639623D01*
X157387673Y-136655057D01*
X157388255Y-136676770D01*
X157388265Y-136682620D01*
X157386905Y-136716127D01*
X157382419Y-136742046D01*
X157374113Y-136762650D01*
X157361292Y-136780217D01*
X157357146Y-136784555D01*
X157339701Y-136802000D01*
X156882289Y-136802000D01*
X156885404Y-136729610D01*
X156886842Y-136698840D01*
X156888762Y-136661734D01*
X156891085Y-136619540D01*
X156893731Y-136573507D01*
X156896621Y-136524883D01*
X156899676Y-136474916D01*
X156902815Y-136424855D01*
X156905960Y-136375947D01*
X156909031Y-136329442D01*
X156911948Y-136286587D01*
X156914633Y-136248632D01*
X156917005Y-136216823D01*
X156918985Y-136192411D01*
X156920494Y-136176642D01*
X156920734Y-136174620D01*
X156921996Y-136162281D01*
X156923717Y-136142235D01*
X156925704Y-136116909D01*
X156927760Y-136088736D01*
X156928497Y-136078100D01*
X156930803Y-136045495D01*
X156933666Y-136006741D01*
X156936786Y-135965812D01*
X156939862Y-135926682D01*
X156941173Y-135910460D01*
X156944730Y-135865460D01*
X156948373Y-135816650D01*
X156952049Y-135764979D01*
X156955703Y-135711400D01*
X156959279Y-135656863D01*
X156962724Y-135602319D01*
X156965982Y-135548721D01*
X156968999Y-135497019D01*
X156971720Y-135448164D01*
X156974090Y-135403108D01*
X156976055Y-135362802D01*
X156977560Y-135328197D01*
X156978550Y-135300244D01*
X156978971Y-135279895D01*
X156978767Y-135268101D01*
X156978264Y-135265464D01*
X156971997Y-135265096D01*
X156956504Y-135265880D01*
X156932641Y-135267722D01*
X156901265Y-135270531D01*
X156863233Y-135274211D01*
X156819402Y-135278670D01*
X156770628Y-135283815D01*
X156717769Y-135289552D01*
X156661680Y-135295787D01*
X156603220Y-135302427D01*
X156543245Y-135309379D01*
X156482611Y-135316549D01*
X156422176Y-135323845D01*
X156362796Y-135331172D01*
X156305328Y-135338437D01*
X156285940Y-135340933D01*
X156182116Y-135354297D01*
X156084715Y-135366694D01*
X155994041Y-135378090D01*
X155910394Y-135388450D01*
X155834077Y-135397738D01*
X155765392Y-135405919D01*
X155704641Y-135412959D01*
X155652127Y-135418823D01*
X155608150Y-135423475D01*
X155573015Y-135426881D01*
X155547022Y-135429005D01*
X155530474Y-135429813D01*
X155523672Y-135429270D01*
X155523591Y-135429204D01*
X155522938Y-135422918D01*
X155524882Y-135410833D01*
X155525884Y-135406764D01*
X155529451Y-135392828D01*
X155534464Y-135372613D01*
X155540031Y-135349728D01*
X155542007Y-135341500D01*
X155550260Y-135308732D01*
X155561136Y-135268201D01*
X155574083Y-135221793D01*
X155588548Y-135171395D01*
X155603979Y-135118895D01*
X155619823Y-135066180D01*
X155635528Y-135015137D01*
X155650543Y-134967652D01*
X155659296Y-134940725D01*
X155672310Y-134897564D01*
X155680283Y-134862520D01*
X155683186Y-134835780D01*
X155680992Y-134817532D01*
X155678277Y-134812059D01*
X155672112Y-134805674D01*
X155659042Y-134793749D01*
X155640061Y-134777137D01*
X155616161Y-134756686D01*
X155588336Y-134733248D01*
X155557580Y-134707673D01*
X155526480Y-134682113D01*
X155457174Y-134625787D01*
X155380859Y-134564334D01*
X155298685Y-134498677D01*
X155211807Y-134429735D01*
X155127340Y-134363119D01*
X155105269Y-134345674D01*
X155077723Y-134323766D01*
X155047125Y-134299328D01*
X155015895Y-134274295D01*
X154988000Y-134251847D01*
X154961633Y-134230595D01*
X154936679Y-134210514D01*
X154914679Y-134192841D01*
X154897178Y-134178815D01*
X154885717Y-134169677D01*
X154884237Y-134168507D01*
X154867824Y-134155192D01*
X154849946Y-134140160D01*
X154843597Y-134134669D01*
X154828706Y-134121952D01*
X154810030Y-134106426D01*
X154792702Y-134092334D01*
X154714613Y-134027968D01*
X154632508Y-133957108D01*
X154548193Y-133881461D01*
X154463476Y-133802734D01*
X154380163Y-133722634D01*
X154300061Y-133642869D01*
X154224977Y-133565145D01*
X154158079Y-133492687D01*
X154138820Y-133471144D01*
X154125646Y-133455884D01*
X154117779Y-133445691D01*
X154114444Y-133439353D01*
X154114866Y-133435656D01*
X154118269Y-133433388D01*
X154119780Y-133432795D01*
X154125191Y-133430969D01*
X154133063Y-133428671D01*
X154144465Y-133425636D01*
X154160466Y-133421598D01*
X154182135Y-133416293D01*
X154210540Y-133409454D01*
X154246749Y-133400817D01*
X154289500Y-133390669D01*
X154317009Y-133383917D01*
X154348720Y-133375749D01*
X154383311Y-133366544D01*
X154419461Y-133356680D01*
X154455848Y-133346536D01*
X154491153Y-133336490D01*
X154524054Y-133326920D01*
X154553229Y-133318204D01*
X154577358Y-133310722D01*
X154595120Y-133304851D01*
X154605194Y-133300970D01*
X154606999Y-133299735D01*
X154605810Y-133291211D01*
X154602439Y-133274082D01*
X154597181Y-133249597D01*
X154590330Y-133219003D01*
X154582182Y-133183548D01*
X154573030Y-133144482D01*
X154563170Y-133103053D01*
X154552897Y-133060509D01*
X154542505Y-133018098D01*
X154532289Y-132977068D01*
X154522543Y-132938668D01*
X154513957Y-132905640D01*
X154490684Y-132820502D01*
X154464895Y-132731659D01*
X154437243Y-132641122D01*
X154408383Y-132550903D01*
X154378972Y-132463013D01*
X154349663Y-132379463D01*
X154321112Y-132302264D01*
X154299235Y-132246372D01*
X154291584Y-132227002D01*
X154285656Y-132211240D01*
X154282313Y-132201420D01*
X154281879Y-132199497D01*
X154286296Y-132198052D01*
X154297434Y-132198876D01*
X154303469Y-132199907D01*
X154316603Y-132202434D01*
X154337081Y-132206316D01*
X154362257Y-132211052D01*
X154389487Y-132216145D01*
X154393640Y-132216919D01*
X154420591Y-132221950D01*
X154454613Y-132228319D01*
X154492791Y-132235478D01*
X154532210Y-132242880D01*
X154569957Y-132249981D01*
X154571440Y-132250260D01*
X154609055Y-132257339D01*
X154648463Y-132264748D01*
X154686750Y-132271939D01*
X154721002Y-132278366D01*
X154748304Y-132283481D01*
X154749240Y-132283656D01*
X154794114Y-132292066D01*
X154831010Y-132299022D01*
X154861941Y-132304913D01*
X154888921Y-132310126D01*
X154913964Y-132315050D01*
X154939081Y-132320072D01*
X154957520Y-132323800D01*
X154988412Y-132329949D01*
X155023927Y-132336837D01*
X155058687Y-132343428D01*
X155076900Y-132346800D01*
X155107656Y-132352687D01*
X155143349Y-132359925D01*
X155179039Y-132367492D01*
X155203570Y-132372940D01*
X155239059Y-132380916D01*
X155265926Y-132386580D01*
X155285414Y-132390057D01*
X155298764Y-132391476D01*
X155307219Y-132390962D01*
X155312020Y-132388642D01*
X155314409Y-132384643D01*
X155314533Y-132384258D01*
X155317617Y-132374929D01*
X155323001Y-132359293D01*
X155329562Y-132340611D01*
X155330055Y-132339220D01*
X155339513Y-132310767D01*
X155349964Y-132275799D01*
X155361613Y-132233561D01*
X155374664Y-132183300D01*
X155389321Y-132124262D01*
X155398791Y-132085060D01*
X155413555Y-132025830D01*
X155427506Y-131975097D01*
X155441119Y-131931280D01*
X155454874Y-131892799D01*
X155463039Y-131872459D01*
X155471296Y-131852738D01*
X155557689Y-131938499D01*
X155616225Y-131996641D01*
X155668070Y-132048221D01*
X155713776Y-132093803D01*
X155753892Y-132133953D01*
X155788969Y-132169236D01*
X155819558Y-132200215D01*
X155846209Y-132227456D01*
X155869474Y-132251523D01*
X155889902Y-132272981D01*
X155908044Y-132292395D01*
X155924451Y-132310330D01*
X155939673Y-132327350D01*
X155954262Y-132344019D01*
X155963258Y-132354460D01*
X156006713Y-132404728D01*
X156049670Y-132453620D01*
X156090492Y-132499298D01*
X156127540Y-132539919D01*
X156146240Y-132559999D01*
X156152261Y-132566645D01*
X156163531Y-132579293D01*
X156178599Y-132596308D01*
X156196012Y-132616053D01*
X156201746Y-132622572D01*
X156218863Y-132641984D01*
X156233384Y-132658343D01*
X156244098Y-132670293D01*
X156249795Y-132676481D01*
X156250395Y-132677039D01*
X156250100Y-132672276D01*
X156248397Y-132658984D01*
X156245520Y-132638661D01*
X156241700Y-132612808D01*
X156237169Y-132582921D01*
X156232160Y-132550499D01*
X156226904Y-132517041D01*
X156221633Y-132484046D01*
X156216580Y-132453011D01*
X156211977Y-132425435D01*
X156208055Y-132402816D01*
X156207122Y-132397640D01*
X156203441Y-132377386D01*
X156198341Y-132349278D01*
X156192212Y-132315458D01*
X156185443Y-132278071D01*
X156178420Y-132239260D01*
X156173990Y-132214760D01*
X156166248Y-132172326D01*
X156157751Y-132126426D01*
X156149075Y-132080128D01*
X156140797Y-132036505D01*
X156133494Y-131998626D01*
X156131052Y-131986160D01*
X156123885Y-131949635D01*
X156116325Y-131910827D01*
X156109001Y-131872989D01*
X156102543Y-131839373D01*
X156098578Y-131818520D01*
X156093689Y-131792647D01*
X156087411Y-131759431D01*
X156080243Y-131721515D01*
X156072683Y-131681536D01*
X156065232Y-131642138D01*
X156063041Y-131630560D01*
X156048103Y-131550843D01*
X156034515Y-131476805D01*
X156022378Y-131409037D01*
X156011793Y-131348135D01*
X156002862Y-131294691D01*
X155995684Y-131249301D01*
X155990362Y-131212557D01*
X155986996Y-131185053D01*
X155986591Y-131180980D01*
X155983093Y-131142460D01*
X155980125Y-131106844D01*
X155977772Y-131075425D01*
X155976121Y-131049496D01*
X155975258Y-131030352D01*
X155975269Y-131019285D01*
X155975699Y-131017086D01*
X155981182Y-131017811D01*
X155993712Y-131021902D01*
X156011055Y-131028591D01*
X156020339Y-131032458D01*
X156045102Y-131042841D01*
X156071778Y-131053762D01*
X156095138Y-131063084D01*
X156097980Y-131064192D01*
X156127004Y-131075816D01*
X156162454Y-131090590D01*
X156201559Y-131107349D01*
X156224980Y-131117589D01*
X156232699Y-131120983D01*
X156248072Y-131127736D01*
X156269448Y-131137125D01*
X156295178Y-131148424D01*
X156323613Y-131160909D01*
X156324040Y-131161096D01*
X156357815Y-131176228D01*
X156393871Y-131192894D01*
X156429016Y-131209586D01*
X156460060Y-131224796D01*
X156476440Y-131233128D01*
X156508556Y-131249803D01*
X156533006Y-131262412D01*
X156551136Y-131271580D01*
X156564290Y-131277932D01*
X156573815Y-131282092D01*
X156581057Y-131284685D01*
X156587361Y-131286335D01*
X156593887Y-131287632D01*
X156599372Y-131288914D01*
X156603732Y-131289788D01*
X156607668Y-131289327D01*
X156611880Y-131286607D01*
X156617067Y-131280702D01*
X156623929Y-131270687D01*
X156633167Y-131255636D01*
X156645480Y-131234625D01*
X156661569Y-131206728D01*
X156682132Y-131171020D01*
X156682248Y-131170820D01*
X156699108Y-131141407D01*
X156715944Y-131111696D01*
X156731385Y-131084129D01*
X156744061Y-131061150D01*
X156750661Y-131048900D01*
X156764045Y-131023665D01*
X156779138Y-130995276D01*
X156792855Y-130969537D01*
X156793879Y-130967620D01*
X156813479Y-130930668D01*
X156836317Y-130887136D01*
X156862713Y-130836412D01*
X156892985Y-130777884D01*
X156927451Y-130710938D01*
X156930940Y-130704147D01*
X156947328Y-130672404D01*
X156963070Y-130642207D01*
X156977278Y-130615232D01*
X156989067Y-130593159D01*
X156997550Y-130577666D01*
X157000155Y-130573113D01*
X157008164Y-130559121D01*
X157013526Y-130548970D01*
X157014919Y-130545532D01*
X157017275Y-130540398D01*
X157023713Y-130528179D01*
X157033292Y-130510621D01*
X157045072Y-130489468D01*
X157046986Y-130486066D01*
X157060777Y-130461373D01*
X157074220Y-130436935D01*
X157085723Y-130415671D01*
X157093333Y-130401200D01*
X157105690Y-130379080D01*
X157122813Y-130351257D01*
X157143171Y-130319996D01*
X157165231Y-130287565D01*
X157187459Y-130256230D01*
X157208323Y-130228258D01*
X157221617Y-130211501D01*
X157233492Y-130197063D01*
X157245746Y-130224201D01*
G36*
X72238587Y-137097926D02*
G01*
X72248705Y-137109122D01*
X72268458Y-137131525D01*
X72296432Y-137163513D01*
X72331212Y-137203461D01*
X72371384Y-137249744D01*
X72415534Y-137300740D01*
X72455218Y-137346676D01*
X72651797Y-137574453D01*
X72606615Y-137618197D01*
X72588508Y-137635805D01*
X72560415Y-137663218D01*
X72524438Y-137698382D01*
X72482679Y-137739243D01*
X72437237Y-137783744D01*
X72390215Y-137829833D01*
X72389983Y-137830059D01*
X72218533Y-137998177D01*
X72218533Y-137076951D01*
X72238587Y-137097926D01*
G37*
X72238587Y-137097926D02*
X72248705Y-137109122D01*
X72268458Y-137131525D01*
X72296432Y-137163513D01*
X72331212Y-137203461D01*
X72371384Y-137249744D01*
X72415534Y-137300740D01*
X72455218Y-137346676D01*
X72651797Y-137574453D01*
X72606615Y-137618197D01*
X72588508Y-137635805D01*
X72560415Y-137663218D01*
X72524438Y-137698382D01*
X72482679Y-137739243D01*
X72437237Y-137783744D01*
X72390215Y-137829833D01*
X72389983Y-137830059D01*
X72218533Y-137998177D01*
X72218533Y-137076951D01*
X72238587Y-137097926D01*
G36*
X72434433Y-138867267D02*
G01*
X72483992Y-138916914D01*
X72529538Y-138962769D01*
X72569733Y-139003466D01*
X72603238Y-139037639D01*
X72628714Y-139063923D01*
X72644822Y-139080953D01*
X72650229Y-139087338D01*
X72645045Y-139094845D01*
X72630608Y-139113401D01*
X72608498Y-139141039D01*
X72580293Y-139175791D01*
X72547572Y-139215690D01*
X72535623Y-139230170D01*
X72492484Y-139282368D01*
X72444552Y-139340370D01*
X72395930Y-139399213D01*
X72350719Y-139453932D01*
X72319827Y-139491324D01*
X72218533Y-139613940D01*
X72218533Y-138651491D01*
X72434433Y-138867267D01*
G37*
X72434433Y-138867267D02*
X72483992Y-138916914D01*
X72529538Y-138962769D01*
X72569733Y-139003466D01*
X72603238Y-139037639D01*
X72628714Y-139063923D01*
X72644822Y-139080953D01*
X72650229Y-139087338D01*
X72645045Y-139094845D01*
X72630608Y-139113401D01*
X72608498Y-139141039D01*
X72580293Y-139175791D01*
X72547572Y-139215690D01*
X72535623Y-139230170D01*
X72492484Y-139282368D01*
X72444552Y-139340370D01*
X72395930Y-139399213D01*
X72350719Y-139453932D01*
X72319827Y-139491324D01*
X72218533Y-139613940D01*
X72218533Y-138651491D01*
X72434433Y-138867267D01*
G36*
X72190831Y-135772741D02*
G01*
X72262467Y-135772923D01*
X72321112Y-135773334D01*
X72368740Y-135774060D01*
X72407320Y-135775189D01*
X72438826Y-135776808D01*
X72465228Y-135779005D01*
X72488498Y-135781867D01*
X72510608Y-135785482D01*
X72533529Y-135789936D01*
X72544500Y-135792210D01*
X72701742Y-135833443D01*
X72851765Y-135889431D01*
X72993706Y-135959518D01*
X73126703Y-136043047D01*
X73249893Y-136139362D01*
X73362415Y-136247805D01*
X73463406Y-136367722D01*
X73552004Y-136498454D01*
X73609842Y-136603289D01*
X73666246Y-136728325D01*
X73709349Y-136853444D01*
X73740876Y-136984167D01*
X73755027Y-137068100D01*
X73756931Y-137082726D01*
X73758641Y-137099471D01*
X73760166Y-137119217D01*
X73761512Y-137142844D01*
X73762687Y-137171233D01*
X73763699Y-137205265D01*
X73764554Y-137245819D01*
X73765261Y-137293778D01*
X73765828Y-137350022D01*
X73766261Y-137415431D01*
X73766568Y-137490886D01*
X73766756Y-137577268D01*
X73766834Y-137675459D01*
X73766808Y-137786337D01*
X73766686Y-137910785D01*
X73766476Y-138049684D01*
X73766185Y-138203912D01*
X73765892Y-138342333D01*
X73765541Y-138510319D01*
X73765235Y-138662295D01*
X73764935Y-138799185D01*
X73764600Y-138921911D01*
X73764191Y-139031398D01*
X73763667Y-139128567D01*
X73762988Y-139214343D01*
X73762114Y-139289649D01*
X73761005Y-139355408D01*
X73759621Y-139412544D01*
X73757921Y-139461979D01*
X73755866Y-139504637D01*
X73753416Y-139541441D01*
X73750530Y-139573315D01*
X73747168Y-139601182D01*
X73743290Y-139625964D01*
X73738857Y-139648586D01*
X73733828Y-139669971D01*
X73728162Y-139691041D01*
X73721820Y-139712721D01*
X73714762Y-139735933D01*
X73706947Y-139761601D01*
X73703784Y-139772148D01*
X73680406Y-139840003D01*
X73648852Y-139916254D01*
X73611504Y-139996059D01*
X73570742Y-140074576D01*
X73528949Y-140146961D01*
X73490911Y-140205000D01*
X73452482Y-140254700D01*
X73403858Y-140310735D01*
X73348460Y-140369689D01*
X73289706Y-140428146D01*
X73231015Y-140482693D01*
X73175805Y-140529913D01*
X73132934Y-140562610D01*
X72996798Y-140648258D01*
X72853028Y-140718900D01*
X72702439Y-140774202D01*
X72545845Y-140813833D01*
X72493700Y-140823298D01*
X72448464Y-140828903D01*
X72389476Y-140833432D01*
X72319684Y-140836884D01*
X72242036Y-140839260D01*
X72159480Y-140840558D01*
X72074966Y-140840779D01*
X71991441Y-140839922D01*
X71911853Y-140837988D01*
X71839151Y-140834975D01*
X71776282Y-140830884D01*
X71726196Y-140825715D01*
X71710534Y-140823367D01*
X71553635Y-140788370D01*
X71401419Y-140737559D01*
X71255521Y-140671606D01*
X71117575Y-140591182D01*
X71075534Y-140562610D01*
X71025677Y-140524232D01*
X70969424Y-140475530D01*
X70910224Y-140419954D01*
X70851528Y-140360954D01*
X70796788Y-140301981D01*
X70749454Y-140246485D01*
X70717885Y-140205000D01*
X70648594Y-140096270D01*
X70586310Y-139977780D01*
X70533490Y-139854837D01*
X70492592Y-139732749D01*
X70483380Y-139698524D01*
X70477496Y-139675246D01*
X70472169Y-139653504D01*
X70467373Y-139632392D01*
X70463081Y-139611002D01*
X70459268Y-139588428D01*
X70455908Y-139563762D01*
X70452975Y-139536098D01*
X70450444Y-139504529D01*
X70448288Y-139468147D01*
X70446482Y-139426046D01*
X70444999Y-139377319D01*
X70443814Y-139321058D01*
X70442901Y-139256358D01*
X70442235Y-139182310D01*
X70441788Y-139098008D01*
X70441536Y-139002545D01*
X70441453Y-138895015D01*
X70441512Y-138774509D01*
X70441689Y-138640121D01*
X70441956Y-138490945D01*
X70442288Y-138326073D01*
X70442421Y-138261900D01*
X70443824Y-137580342D01*
X71156048Y-137580342D01*
X71524308Y-137948787D01*
X71892567Y-138317232D01*
X71786734Y-138421082D01*
X71757069Y-138450181D01*
X71717300Y-138489180D01*
X71669417Y-138536125D01*
X71615411Y-138589067D01*
X71557272Y-138646053D01*
X71496992Y-138705131D01*
X71436560Y-138764351D01*
X71419183Y-138781379D01*
X71157466Y-139037826D01*
X71253979Y-139134614D01*
X71286844Y-139167097D01*
X71315649Y-139194670D01*
X71338267Y-139215367D01*
X71352570Y-139227223D01*
X71356418Y-139229251D01*
X71363480Y-139223071D01*
X71381424Y-139206191D01*
X71409046Y-139179776D01*
X71445143Y-139144986D01*
X71488511Y-139102986D01*
X71537948Y-139054937D01*
X71592251Y-139002003D01*
X71650215Y-138945346D01*
X71650738Y-138944834D01*
X71939134Y-138662568D01*
X71939134Y-139524565D01*
X71939140Y-139664227D01*
X71939170Y-139787904D01*
X71939244Y-139896545D01*
X71939377Y-139991100D01*
X71939589Y-140072518D01*
X71939896Y-140141746D01*
X71940318Y-140199736D01*
X71940872Y-140247434D01*
X71941576Y-140285791D01*
X71942447Y-140315755D01*
X71943504Y-140338276D01*
X71944765Y-140354301D01*
X71946247Y-140364781D01*
X71947969Y-140370663D01*
X71949948Y-140372898D01*
X71952202Y-140372433D01*
X71954750Y-140370219D01*
X71955091Y-140369865D01*
X71962653Y-140361078D01*
X71980229Y-140340144D01*
X72007061Y-140307981D01*
X72042388Y-140265505D01*
X72085450Y-140213632D01*
X72135488Y-140153279D01*
X72191741Y-140085363D01*
X72253451Y-140010801D01*
X72319856Y-139930508D01*
X72390197Y-139845403D01*
X72463715Y-139756401D01*
X72496957Y-139716141D01*
X72571328Y-139625950D01*
X72642564Y-139539352D01*
X72709934Y-139457249D01*
X72772703Y-139380543D01*
X72830140Y-139310139D01*
X72881510Y-139246937D01*
X72926082Y-139191842D01*
X72963121Y-139145756D01*
X72991895Y-139109580D01*
X73011671Y-139084220D01*
X73021716Y-139070576D01*
X73022867Y-139068476D01*
X73017032Y-139060755D01*
X73000214Y-139042154D01*
X72973437Y-139013730D01*
X72937730Y-138976539D01*
X72894117Y-138931638D01*
X72843628Y-138880083D01*
X72787286Y-138822931D01*
X72726121Y-138761237D01*
X72661157Y-138696059D01*
X72654519Y-138689419D01*
X72286172Y-138321000D01*
X72658809Y-137957187D01*
X72724764Y-137892667D01*
X72786923Y-137831616D01*
X72844256Y-137775060D01*
X72895734Y-137724027D01*
X72940326Y-137679546D01*
X72977003Y-137642642D01*
X73004736Y-137614345D01*
X73022493Y-137595682D01*
X73029246Y-137587680D01*
X73029274Y-137587498D01*
X73023544Y-137580400D01*
X73007482Y-137561379D01*
X72981842Y-137531314D01*
X72947380Y-137491079D01*
X72904850Y-137441554D01*
X72855007Y-137383613D01*
X72798604Y-137318135D01*
X72736398Y-137245997D01*
X72669142Y-137168074D01*
X72597591Y-137085245D01*
X72522501Y-136998385D01*
X72485233Y-136955302D01*
X71943367Y-136328983D01*
X71938387Y-137974033D01*
X71647168Y-137677700D01*
X71355950Y-137381367D01*
X71255999Y-137480854D01*
X71156048Y-137580342D01*
X70443824Y-137580342D01*
X70444862Y-137076567D01*
X70464350Y-136987667D01*
X70505430Y-136832147D01*
X70558356Y-136687908D01*
X70624007Y-136553332D01*
X70703260Y-136426799D01*
X70796994Y-136306691D01*
X70884602Y-136212535D01*
X71003119Y-136104462D01*
X71127369Y-136011919D01*
X71258573Y-135934246D01*
X71397954Y-135870787D01*
X71546731Y-135820880D01*
X71663967Y-135792210D01*
X71687882Y-135787354D01*
X71710110Y-135783377D01*
X71732620Y-135780191D01*
X71757386Y-135777709D01*
X71786378Y-135775843D01*
X71821569Y-135774507D01*
X71864929Y-135773612D01*
X71918431Y-135773072D01*
X71984046Y-135772800D01*
X72063746Y-135772706D01*
X72104233Y-135772700D01*
X72190831Y-135772741D01*
G37*
X72190831Y-135772741D02*
X72262467Y-135772923D01*
X72321112Y-135773334D01*
X72368740Y-135774060D01*
X72407320Y-135775189D01*
X72438826Y-135776808D01*
X72465228Y-135779005D01*
X72488498Y-135781867D01*
X72510608Y-135785482D01*
X72533529Y-135789936D01*
X72544500Y-135792210D01*
X72701742Y-135833443D01*
X72851765Y-135889431D01*
X72993706Y-135959518D01*
X73126703Y-136043047D01*
X73249893Y-136139362D01*
X73362415Y-136247805D01*
X73463406Y-136367722D01*
X73552004Y-136498454D01*
X73609842Y-136603289D01*
X73666246Y-136728325D01*
X73709349Y-136853444D01*
X73740876Y-136984167D01*
X73755027Y-137068100D01*
X73756931Y-137082726D01*
X73758641Y-137099471D01*
X73760166Y-137119217D01*
X73761512Y-137142844D01*
X73762687Y-137171233D01*
X73763699Y-137205265D01*
X73764554Y-137245819D01*
X73765261Y-137293778D01*
X73765828Y-137350022D01*
X73766261Y-137415431D01*
X73766568Y-137490886D01*
X73766756Y-137577268D01*
X73766834Y-137675459D01*
X73766808Y-137786337D01*
X73766686Y-137910785D01*
X73766476Y-138049684D01*
X73766185Y-138203912D01*
X73765892Y-138342333D01*
X73765541Y-138510319D01*
X73765235Y-138662295D01*
X73764935Y-138799185D01*
X73764600Y-138921911D01*
X73764191Y-139031398D01*
X73763667Y-139128567D01*
X73762988Y-139214343D01*
X73762114Y-139289649D01*
X73761005Y-139355408D01*
X73759621Y-139412544D01*
X73757921Y-139461979D01*
X73755866Y-139504637D01*
X73753416Y-139541441D01*
X73750530Y-139573315D01*
X73747168Y-139601182D01*
X73743290Y-139625964D01*
X73738857Y-139648586D01*
X73733828Y-139669971D01*
X73728162Y-139691041D01*
X73721820Y-139712721D01*
X73714762Y-139735933D01*
X73706947Y-139761601D01*
X73703784Y-139772148D01*
X73680406Y-139840003D01*
X73648852Y-139916254D01*
X73611504Y-139996059D01*
X73570742Y-140074576D01*
X73528949Y-140146961D01*
X73490911Y-140205000D01*
X73452482Y-140254700D01*
X73403858Y-140310735D01*
X73348460Y-140369689D01*
X73289706Y-140428146D01*
X73231015Y-140482693D01*
X73175805Y-140529913D01*
X73132934Y-140562610D01*
X72996798Y-140648258D01*
X72853028Y-140718900D01*
X72702439Y-140774202D01*
X72545845Y-140813833D01*
X72493700Y-140823298D01*
X72448464Y-140828903D01*
X72389476Y-140833432D01*
X72319684Y-140836884D01*
X72242036Y-140839260D01*
X72159480Y-140840558D01*
X72074966Y-140840779D01*
X71991441Y-140839922D01*
X71911853Y-140837988D01*
X71839151Y-140834975D01*
X71776282Y-140830884D01*
X71726196Y-140825715D01*
X71710534Y-140823367D01*
X71553635Y-140788370D01*
X71401419Y-140737559D01*
X71255521Y-140671606D01*
X71117575Y-140591182D01*
X71075534Y-140562610D01*
X71025677Y-140524232D01*
X70969424Y-140475530D01*
X70910224Y-140419954D01*
X70851528Y-140360954D01*
X70796788Y-140301981D01*
X70749454Y-140246485D01*
X70717885Y-140205000D01*
X70648594Y-140096270D01*
X70586310Y-139977780D01*
X70533490Y-139854837D01*
X70492592Y-139732749D01*
X70483380Y-139698524D01*
X70477496Y-139675246D01*
X70472169Y-139653504D01*
X70467373Y-139632392D01*
X70463081Y-139611002D01*
X70459268Y-139588428D01*
X70455908Y-139563762D01*
X70452975Y-139536098D01*
X70450444Y-139504529D01*
X70448288Y-139468147D01*
X70446482Y-139426046D01*
X70444999Y-139377319D01*
X70443814Y-139321058D01*
X70442901Y-139256358D01*
X70442235Y-139182310D01*
X70441788Y-139098008D01*
X70441536Y-139002545D01*
X70441453Y-138895015D01*
X70441512Y-138774509D01*
X70441689Y-138640121D01*
X70441956Y-138490945D01*
X70442288Y-138326073D01*
X70442421Y-138261900D01*
X70443824Y-137580342D01*
X71156048Y-137580342D01*
X71524308Y-137948787D01*
X71892567Y-138317232D01*
X71786734Y-138421082D01*
X71757069Y-138450181D01*
X71717300Y-138489180D01*
X71669417Y-138536125D01*
X71615411Y-138589067D01*
X71557272Y-138646053D01*
X71496992Y-138705131D01*
X71436560Y-138764351D01*
X71419183Y-138781379D01*
X71157466Y-139037826D01*
X71253979Y-139134614D01*
X71286844Y-139167097D01*
X71315649Y-139194670D01*
X71338267Y-139215367D01*
X71352570Y-139227223D01*
X71356418Y-139229251D01*
X71363480Y-139223071D01*
X71381424Y-139206191D01*
X71409046Y-139179776D01*
X71445143Y-139144986D01*
X71488511Y-139102986D01*
X71537948Y-139054937D01*
X71592251Y-139002003D01*
X71650215Y-138945346D01*
X71650738Y-138944834D01*
X71939134Y-138662568D01*
X71939134Y-139524565D01*
X71939140Y-139664227D01*
X71939170Y-139787904D01*
X71939244Y-139896545D01*
X71939377Y-139991100D01*
X71939589Y-140072518D01*
X71939896Y-140141746D01*
X71940318Y-140199736D01*
X71940872Y-140247434D01*
X71941576Y-140285791D01*
X71942447Y-140315755D01*
X71943504Y-140338276D01*
X71944765Y-140354301D01*
X71946247Y-140364781D01*
X71947969Y-140370663D01*
X71949948Y-140372898D01*
X71952202Y-140372433D01*
X71954750Y-140370219D01*
X71955091Y-140369865D01*
X71962653Y-140361078D01*
X71980229Y-140340144D01*
X72007061Y-140307981D01*
X72042388Y-140265505D01*
X72085450Y-140213632D01*
X72135488Y-140153279D01*
X72191741Y-140085363D01*
X72253451Y-140010801D01*
X72319856Y-139930508D01*
X72390197Y-139845403D01*
X72463715Y-139756401D01*
X72496957Y-139716141D01*
X72571328Y-139625950D01*
X72642564Y-139539352D01*
X72709934Y-139457249D01*
X72772703Y-139380543D01*
X72830140Y-139310139D01*
X72881510Y-139246937D01*
X72926082Y-139191842D01*
X72963121Y-139145756D01*
X72991895Y-139109580D01*
X73011671Y-139084220D01*
X73021716Y-139070576D01*
X73022867Y-139068476D01*
X73017032Y-139060755D01*
X73000214Y-139042154D01*
X72973437Y-139013730D01*
X72937730Y-138976539D01*
X72894117Y-138931638D01*
X72843628Y-138880083D01*
X72787286Y-138822931D01*
X72726121Y-138761237D01*
X72661157Y-138696059D01*
X72654519Y-138689419D01*
X72286172Y-138321000D01*
X72658809Y-137957187D01*
X72724764Y-137892667D01*
X72786923Y-137831616D01*
X72844256Y-137775060D01*
X72895734Y-137724027D01*
X72940326Y-137679546D01*
X72977003Y-137642642D01*
X73004736Y-137614345D01*
X73022493Y-137595682D01*
X73029246Y-137587680D01*
X73029274Y-137587498D01*
X73023544Y-137580400D01*
X73007482Y-137561379D01*
X72981842Y-137531314D01*
X72947380Y-137491079D01*
X72904850Y-137441554D01*
X72855007Y-137383613D01*
X72798604Y-137318135D01*
X72736398Y-137245997D01*
X72669142Y-137168074D01*
X72597591Y-137085245D01*
X72522501Y-136998385D01*
X72485233Y-136955302D01*
X71943367Y-136328983D01*
X71938387Y-137974033D01*
X71647168Y-137677700D01*
X71355950Y-137381367D01*
X71255999Y-137480854D01*
X71156048Y-137580342D01*
X70443824Y-137580342D01*
X70444862Y-137076567D01*
X70464350Y-136987667D01*
X70505430Y-136832147D01*
X70558356Y-136687908D01*
X70624007Y-136553332D01*
X70703260Y-136426799D01*
X70796994Y-136306691D01*
X70884602Y-136212535D01*
X71003119Y-136104462D01*
X71127369Y-136011919D01*
X71258573Y-135934246D01*
X71397954Y-135870787D01*
X71546731Y-135820880D01*
X71663967Y-135792210D01*
X71687882Y-135787354D01*
X71710110Y-135783377D01*
X71732620Y-135780191D01*
X71757386Y-135777709D01*
X71786378Y-135775843D01*
X71821569Y-135774507D01*
X71864929Y-135773612D01*
X71918431Y-135773072D01*
X71984046Y-135772800D01*
X72063746Y-135772706D01*
X72104233Y-135772700D01*
X72190831Y-135772741D01*
G36*
X78075629Y-140647152D02*
G01*
X78114622Y-140662970D01*
X78145030Y-140687040D01*
X78165695Y-140717589D01*
X78175459Y-140752846D01*
X78173163Y-140791038D01*
X78157649Y-140830392D01*
X78155316Y-140834338D01*
X78133357Y-140857670D01*
X78101309Y-140875601D01*
X78062947Y-140887032D01*
X78022045Y-140890864D01*
X77982376Y-140885998D01*
X77980013Y-140885377D01*
X77937017Y-140867815D01*
X77905521Y-140841943D01*
X77885987Y-140808315D01*
X77878878Y-140767482D01*
X77878857Y-140764929D01*
X77885436Y-140725519D01*
X77904181Y-140692256D01*
X77933604Y-140666362D01*
X77972219Y-140649060D01*
X78018537Y-140641571D01*
X78029209Y-140641360D01*
X78075629Y-140647152D01*
G37*
X78075629Y-140647152D02*
X78114622Y-140662970D01*
X78145030Y-140687040D01*
X78165695Y-140717589D01*
X78175459Y-140752846D01*
X78173163Y-140791038D01*
X78157649Y-140830392D01*
X78155316Y-140834338D01*
X78133357Y-140857670D01*
X78101309Y-140875601D01*
X78062947Y-140887032D01*
X78022045Y-140890864D01*
X77982376Y-140885998D01*
X77980013Y-140885377D01*
X77937017Y-140867815D01*
X77905521Y-140841943D01*
X77885987Y-140808315D01*
X77878878Y-140767482D01*
X77878857Y-140764929D01*
X77885436Y-140725519D01*
X77904181Y-140692256D01*
X77933604Y-140666362D01*
X77972219Y-140649060D01*
X78018537Y-140641571D01*
X78029209Y-140641360D01*
X78075629Y-140647152D01*
G36*
X78154628Y-141708000D02*
G01*
X78028838Y-141708000D01*
X77987502Y-141707734D01*
X77951310Y-141706996D01*
X77922718Y-141705876D01*
X77904181Y-141704466D01*
X77898209Y-141703162D01*
X77897259Y-141695164D01*
X77896371Y-141674052D01*
X77895563Y-141641229D01*
X77894854Y-141598093D01*
X77894262Y-141546048D01*
X77893806Y-141486493D01*
X77893504Y-141420830D01*
X77893375Y-141350460D01*
X77893371Y-141336677D01*
X77893371Y-140975029D01*
X78154628Y-140975029D01*
X78154628Y-141708000D01*
G37*
X78154628Y-141708000D02*
X78028838Y-141708000D01*
X77987502Y-141707734D01*
X77951310Y-141706996D01*
X77922718Y-141705876D01*
X77904181Y-141704466D01*
X77898209Y-141703162D01*
X77897259Y-141695164D01*
X77896371Y-141674052D01*
X77895563Y-141641229D01*
X77894854Y-141598093D01*
X77894262Y-141546048D01*
X77893806Y-141486493D01*
X77893504Y-141420830D01*
X77893375Y-141350460D01*
X77893371Y-141336677D01*
X77893371Y-140975029D01*
X78154628Y-140975029D01*
X78154628Y-141708000D01*
G36*
X77733714Y-140931486D02*
G01*
X77138628Y-140931486D01*
X77138628Y-141156458D01*
X77675657Y-141156458D01*
X77675657Y-141395943D01*
X77138628Y-141395943D01*
X77138628Y-141708000D01*
X76862857Y-141708000D01*
X76862857Y-140692000D01*
X77733714Y-140692000D01*
X77733714Y-140931486D01*
G37*
X77733714Y-140931486D02*
X77138628Y-140931486D01*
X77138628Y-141156458D01*
X77675657Y-141156458D01*
X77675657Y-141395943D01*
X77138628Y-141395943D01*
X77138628Y-141708000D01*
X76862857Y-141708000D01*
X76862857Y-140692000D01*
X77733714Y-140692000D01*
X77733714Y-140931486D01*
G36*
X79148857Y-140510572D02*
G01*
X79105314Y-140510572D01*
X79104618Y-140439815D01*
X79103921Y-140369058D01*
X79085546Y-140440205D01*
X79067171Y-140511353D01*
X79044514Y-140509148D01*
X79034213Y-140507597D01*
X79026762Y-140503589D01*
X79020703Y-140494524D01*
X79014573Y-140477800D01*
X79006912Y-140450819D01*
X79002505Y-140434372D01*
X78983153Y-140361800D01*
X78981943Y-140510572D01*
X78938400Y-140510572D01*
X78938400Y-140285600D01*
X79009347Y-140285600D01*
X79025564Y-140351233D01*
X79032872Y-140379295D01*
X79039162Y-140400686D01*
X79043537Y-140412492D01*
X79044817Y-140413831D01*
X79047963Y-140405908D01*
X79053761Y-140387358D01*
X79061168Y-140361589D01*
X79064350Y-140350012D01*
X79080849Y-140289229D01*
X79148857Y-140284805D01*
X79148857Y-140510572D01*
G37*
X79148857Y-140510572D02*
X79105314Y-140510572D01*
X79104618Y-140439815D01*
X79103921Y-140369058D01*
X79085546Y-140440205D01*
X79067171Y-140511353D01*
X79044514Y-140509148D01*
X79034213Y-140507597D01*
X79026762Y-140503589D01*
X79020703Y-140494524D01*
X79014573Y-140477800D01*
X79006912Y-140450819D01*
X79002505Y-140434372D01*
X78983153Y-140361800D01*
X78981943Y-140510572D01*
X78938400Y-140510572D01*
X78938400Y-140285600D01*
X79009347Y-140285600D01*
X79025564Y-140351233D01*
X79032872Y-140379295D01*
X79039162Y-140400686D01*
X79043537Y-140412492D01*
X79044817Y-140413831D01*
X79047963Y-140405908D01*
X79053761Y-140387358D01*
X79061168Y-140361589D01*
X79064350Y-140350012D01*
X79080849Y-140289229D01*
X79148857Y-140284805D01*
X79148857Y-140510572D01*
G36*
X78916628Y-140307372D02*
G01*
X78915682Y-140320759D01*
X78910216Y-140327100D01*
X78896291Y-140329020D01*
X78883971Y-140329143D01*
X78851314Y-140329143D01*
X78851314Y-140510572D01*
X78807771Y-140510572D01*
X78807771Y-140329143D01*
X78775114Y-140329143D01*
X78755033Y-140328512D01*
X78745521Y-140324868D01*
X78742641Y-140315585D01*
X78742457Y-140307372D01*
X78742457Y-140285600D01*
X78916628Y-140285600D01*
X78916628Y-140307372D01*
G37*
X78916628Y-140307372D02*
X78915682Y-140320759D01*
X78910216Y-140327100D01*
X78896291Y-140329020D01*
X78883971Y-140329143D01*
X78851314Y-140329143D01*
X78851314Y-140510572D01*
X78807771Y-140510572D01*
X78807771Y-140329143D01*
X78775114Y-140329143D01*
X78755033Y-140328512D01*
X78745521Y-140324868D01*
X78742641Y-140315585D01*
X78742457Y-140307372D01*
X78742457Y-140285600D01*
X78916628Y-140285600D01*
X78916628Y-140307372D01*
G36*
X76538638Y-139608824D02*
G01*
X76683879Y-139628029D01*
X76826508Y-139660323D01*
X76965527Y-139705367D01*
X77099939Y-139762823D01*
X77228744Y-139832354D01*
X77350945Y-139913620D01*
X77465544Y-140006285D01*
X77571542Y-140110011D01*
X77600671Y-140142272D01*
X77662776Y-140213029D01*
X77805288Y-140213049D01*
X77884819Y-140213911D01*
X77952431Y-140216638D01*
X78010631Y-140221479D01*
X78061922Y-140228682D01*
X78108812Y-140238496D01*
X78136485Y-140245918D01*
X78237378Y-140282395D01*
X78330116Y-140330696D01*
X78414230Y-140390329D01*
X78489251Y-140460807D01*
X78554710Y-140541639D01*
X78610139Y-140632336D01*
X78655067Y-140732408D01*
X78682164Y-140815372D01*
X78685148Y-140827174D01*
X78687647Y-140840166D01*
X78689703Y-140855684D01*
X78691359Y-140875063D01*
X78692656Y-140899637D01*
X78693637Y-140930743D01*
X78694344Y-140969716D01*
X78694821Y-141017890D01*
X78695108Y-141076601D01*
X78695249Y-141147185D01*
X78695285Y-141229029D01*
X78695275Y-141313925D01*
X78695168Y-141385765D01*
X78694844Y-141446004D01*
X78694188Y-141496100D01*
X78693082Y-141537512D01*
X78691408Y-141571694D01*
X78689050Y-141600106D01*
X78685889Y-141624203D01*
X78681808Y-141645444D01*
X78676691Y-141665285D01*
X78670419Y-141685183D01*
X78662875Y-141706597D01*
X78655112Y-141727795D01*
X78612061Y-141824618D01*
X78557437Y-141913423D01*
X78492259Y-141993404D01*
X78417546Y-142063750D01*
X78334318Y-142123654D01*
X78243595Y-142172308D01*
X78146395Y-142208902D01*
X78043739Y-142232628D01*
X78013114Y-142236984D01*
X77986166Y-142239361D01*
X77947933Y-142241459D01*
X77901641Y-142243167D01*
X77850519Y-142244373D01*
X77797794Y-142244966D01*
X77780725Y-142245008D01*
X77613651Y-142245029D01*
X77552125Y-142307520D01*
X77438318Y-142413137D01*
X77317137Y-142506468D01*
X77189107Y-142587245D01*
X77054754Y-142655199D01*
X76914603Y-142710062D01*
X76769179Y-142751567D01*
X76630628Y-142777803D01*
X76574003Y-142784363D01*
X76509118Y-142789187D01*
X76440724Y-142792121D01*
X76373577Y-142793015D01*
X76312429Y-142791716D01*
X76273494Y-142789223D01*
X76120550Y-142768382D01*
X75972322Y-142733881D01*
X75829255Y-142685930D01*
X75691797Y-142624741D01*
X75560395Y-142550525D01*
X75435494Y-142463493D01*
X75317542Y-142363857D01*
X75262808Y-142310894D01*
X75197645Y-142245029D01*
X75023132Y-142245029D01*
X74938584Y-142244369D01*
X74866293Y-142242154D01*
X74804051Y-142238028D01*
X74749649Y-142231637D01*
X74700879Y-142222625D01*
X74655533Y-142210638D01*
X74611404Y-142195321D01*
X74566283Y-142176318D01*
X74550567Y-142169069D01*
X74478130Y-142131275D01*
X74420254Y-142093058D01*
X76184829Y-142093058D01*
X78020371Y-142088826D01*
X78078036Y-142072518D01*
X78170203Y-142039346D01*
X78254181Y-141994736D01*
X78329216Y-141939587D01*
X78394551Y-141874797D01*
X78449432Y-141801267D01*
X78493102Y-141719896D01*
X78524807Y-141631583D01*
X78543789Y-141537229D01*
X78546233Y-141515223D01*
X78548753Y-141479044D01*
X78550742Y-141431132D01*
X78552197Y-141374258D01*
X78553120Y-141311196D01*
X78553510Y-141244716D01*
X78553368Y-141177589D01*
X78552693Y-141112589D01*
X78551486Y-141052486D01*
X78549746Y-141000053D01*
X78547474Y-140958060D01*
X78546233Y-140942835D01*
X78530219Y-140847118D01*
X78501328Y-140757304D01*
X78460302Y-140674276D01*
X78407882Y-140598917D01*
X78344809Y-140532110D01*
X78271826Y-140474736D01*
X78189674Y-140427679D01*
X78099093Y-140391822D01*
X78078036Y-140385503D01*
X78066483Y-140382292D01*
X78055387Y-140379532D01*
X78043607Y-140377188D01*
X78030002Y-140375226D01*
X78013430Y-140373612D01*
X77992750Y-140372312D01*
X77966820Y-140371292D01*
X77934498Y-140370517D01*
X77894644Y-140369954D01*
X77846116Y-140369567D01*
X77787772Y-140369324D01*
X77718471Y-140369189D01*
X77637071Y-140369129D01*
X77542431Y-140369109D01*
X77530514Y-140369108D01*
X77434295Y-140369104D01*
X77351441Y-140369138D01*
X77280803Y-140369244D01*
X77221234Y-140369456D01*
X77171583Y-140369810D01*
X77130702Y-140370340D01*
X77097443Y-140371081D01*
X77070655Y-140372068D01*
X77049192Y-140373335D01*
X77031902Y-140374917D01*
X77017639Y-140376849D01*
X77005253Y-140379166D01*
X76993594Y-140381902D01*
X76981515Y-140385092D01*
X76978971Y-140385781D01*
X76888006Y-140417606D01*
X76804268Y-140461424D01*
X76728784Y-140516399D01*
X76662583Y-140581691D01*
X76606690Y-140656462D01*
X76572572Y-140717400D01*
X76559411Y-140744398D01*
X76548330Y-140768009D01*
X76539131Y-140789753D01*
X76531616Y-140811150D01*
X76525587Y-140833720D01*
X76520847Y-140858984D01*
X76517198Y-140888462D01*
X76514443Y-140923674D01*
X76512383Y-140966140D01*
X76510821Y-141017380D01*
X76509559Y-141078915D01*
X76508400Y-141152265D01*
X76507447Y-141218143D01*
X76506146Y-141303933D01*
X76504820Y-141376755D01*
X76503313Y-141438154D01*
X76501473Y-141489674D01*
X76499143Y-141532862D01*
X76496171Y-141569263D01*
X76492402Y-141600421D01*
X76487681Y-141627882D01*
X76481854Y-141653192D01*
X76474768Y-141677895D01*
X76466267Y-141703536D01*
X76456198Y-141731662D01*
X76456166Y-141731750D01*
X76415354Y-141823085D01*
X76361663Y-141910014D01*
X76296526Y-141990528D01*
X76221380Y-142062620D01*
X76217228Y-142066098D01*
X76184829Y-142093058D01*
X74420254Y-142093058D01*
X74414861Y-142089497D01*
X74355418Y-142040086D01*
X74338550Y-142024210D01*
X74271078Y-141951780D01*
X74216205Y-141875905D01*
X74172017Y-141793561D01*
X74138664Y-141708000D01*
X74129252Y-141678799D01*
X74121362Y-141651717D01*
X74114876Y-141625179D01*
X74109673Y-141597614D01*
X74105635Y-141567448D01*
X74102642Y-141533107D01*
X74100575Y-141493019D01*
X74099314Y-141445610D01*
X74098741Y-141389306D01*
X74098735Y-141322535D01*
X74099178Y-141243723D01*
X74099585Y-141192743D01*
X74100269Y-141115499D01*
X74100937Y-141051259D01*
X74101666Y-140998513D01*
X74102531Y-140955749D01*
X74103612Y-140921459D01*
X74104983Y-140894132D01*
X74106722Y-140872258D01*
X74108907Y-140854326D01*
X74111613Y-140838826D01*
X74114918Y-140824249D01*
X74118898Y-140809083D01*
X74119162Y-140808115D01*
X74154175Y-140704488D01*
X74155917Y-140700918D01*
X74496992Y-140700918D01*
X74498617Y-140709001D01*
X74503282Y-140729813D01*
X74510659Y-140761966D01*
X74520420Y-140804070D01*
X74532236Y-140854738D01*
X74545778Y-140912580D01*
X74560719Y-140976208D01*
X74576729Y-141044232D01*
X74593481Y-141115266D01*
X74610646Y-141187919D01*
X74627895Y-141260803D01*
X74644900Y-141332529D01*
X74661333Y-141401709D01*
X74676865Y-141466954D01*
X74691168Y-141526875D01*
X74703913Y-141580084D01*
X74714773Y-141625192D01*
X74723417Y-141660810D01*
X74729519Y-141685549D01*
X74732750Y-141698021D01*
X74733025Y-141698929D01*
X74738134Y-141702434D01*
X74751757Y-141704991D01*
X74775362Y-141706702D01*
X74810417Y-141707670D01*
X74858392Y-141707999D01*
X74862797Y-141708000D01*
X74908807Y-141707879D01*
X74942337Y-141707385D01*
X74965422Y-141706319D01*
X74980093Y-141704483D01*
X74988386Y-141701679D01*
X74992332Y-141697711D01*
X74993290Y-141695300D01*
X74999371Y-141671946D01*
X75007224Y-141637543D01*
X75016459Y-141594180D01*
X75026689Y-141543943D01*
X75037524Y-141488919D01*
X75048576Y-141431196D01*
X75059456Y-141372861D01*
X75069775Y-141316001D01*
X75079145Y-141262703D01*
X75087177Y-141215054D01*
X75093482Y-141175142D01*
X75097671Y-141145053D01*
X75099355Y-141126874D01*
X75099371Y-141125752D01*
X75101634Y-141111207D01*
X75106628Y-141105658D01*
X75111899Y-141111920D01*
X75113898Y-141125615D01*
X75115302Y-141142177D01*
X75119243Y-141170876D01*
X75125334Y-141209632D01*
X75133187Y-141256365D01*
X75142415Y-141308994D01*
X75152631Y-141365440D01*
X75163447Y-141423623D01*
X75174476Y-141481463D01*
X75185330Y-141536880D01*
X75195623Y-141587794D01*
X75204966Y-141632125D01*
X75212973Y-141667793D01*
X75219256Y-141692718D01*
X75219996Y-141695300D01*
X75222518Y-141699854D01*
X75228353Y-141703177D01*
X75239505Y-141705459D01*
X75257982Y-141706891D01*
X75285788Y-141707663D01*
X75324929Y-141707965D01*
X75353860Y-141708000D01*
X75846857Y-141708000D01*
X76108247Y-141708000D01*
X76104485Y-140971400D01*
X75975671Y-140969419D01*
X75846857Y-140967437D01*
X75846857Y-141708000D01*
X75353860Y-141708000D01*
X75395506Y-141707694D01*
X75431633Y-141706842D01*
X75459945Y-141705547D01*
X75478150Y-141703912D01*
X75484000Y-141702194D01*
X75485641Y-141694503D01*
X75490379Y-141673867D01*
X75497938Y-141641453D01*
X75508038Y-141598432D01*
X75520403Y-141545974D01*
X75534755Y-141485249D01*
X75550817Y-141417426D01*
X75568310Y-141343675D01*
X75586957Y-141265166D01*
X75606481Y-141183069D01*
X75626604Y-141098553D01*
X75647049Y-141012789D01*
X75667537Y-140926946D01*
X75687791Y-140842193D01*
X75707534Y-140759702D01*
X75708501Y-140755667D01*
X75827886Y-140755667D01*
X75831433Y-140794415D01*
X75848009Y-140830784D01*
X75859149Y-140845002D01*
X75894082Y-140873315D01*
X75935930Y-140889506D01*
X75983104Y-140893219D01*
X76033418Y-140884273D01*
X76071730Y-140866387D01*
X76100625Y-140839810D01*
X76119332Y-140807065D01*
X76127081Y-140770674D01*
X76123102Y-140733162D01*
X76106623Y-140697051D01*
X76095137Y-140682170D01*
X76067763Y-140661365D01*
X76031674Y-140647962D01*
X75990644Y-140641962D01*
X75948442Y-140643364D01*
X75908840Y-140652168D01*
X75875609Y-140668375D01*
X75859834Y-140682170D01*
X75837357Y-140717324D01*
X75827886Y-140755667D01*
X75708501Y-140755667D01*
X75719846Y-140708329D01*
X75723762Y-140692000D01*
X75435521Y-140692000D01*
X75419485Y-140791786D01*
X75410013Y-140851617D01*
X75400466Y-140913541D01*
X75391113Y-140975679D01*
X75382218Y-141036153D01*
X75374051Y-141093083D01*
X75366876Y-141144591D01*
X75360961Y-141188797D01*
X75356573Y-141223823D01*
X75353979Y-141247790D01*
X75353371Y-141257337D01*
X75352678Y-141274949D01*
X75350596Y-141278144D01*
X75347125Y-141266916D01*
X75342260Y-141241256D01*
X75336001Y-141201157D01*
X75335266Y-141196132D01*
X75331447Y-141172301D01*
X75325488Y-141138126D01*
X75317811Y-141095789D01*
X75308837Y-141047469D01*
X75298988Y-140995347D01*
X75288685Y-140941604D01*
X75278351Y-140888420D01*
X75268407Y-140837976D01*
X75259275Y-140792453D01*
X75251376Y-140754030D01*
X75245132Y-140724889D01*
X75240964Y-140707209D01*
X75240204Y-140704535D01*
X75237680Y-140699911D01*
X75232095Y-140696607D01*
X75221410Y-140694454D01*
X75203587Y-140693284D01*
X75176588Y-140692929D01*
X75138374Y-140693221D01*
X75108348Y-140693649D01*
X74980522Y-140695629D01*
X74948726Y-140848029D01*
X74937050Y-140905541D01*
X74924527Y-140969845D01*
X74912198Y-141035435D01*
X74901099Y-141096808D01*
X74893726Y-141139632D01*
X74870522Y-141278834D01*
X74853661Y-141150517D01*
X74847049Y-141102172D01*
X74838721Y-141044293D01*
X74829388Y-140981655D01*
X74819763Y-140919034D01*
X74810558Y-140861206D01*
X74810185Y-140858915D01*
X74783569Y-140695629D01*
X74640299Y-140693661D01*
X74589163Y-140693156D01*
X74550990Y-140693288D01*
X74524240Y-140694135D01*
X74507372Y-140695777D01*
X74498844Y-140698290D01*
X74496992Y-140700918D01*
X74155917Y-140700918D01*
X74200423Y-140609746D01*
X74258381Y-140523034D01*
X74311912Y-140460538D01*
X74368462Y-140405625D01*
X74426026Y-140360254D01*
X74489692Y-140320711D01*
X74536943Y-140296284D01*
X74587811Y-140272982D01*
X74636015Y-140254260D01*
X74684035Y-140239669D01*
X74734353Y-140228763D01*
X74789449Y-140221095D01*
X74851803Y-140216216D01*
X74923897Y-140213679D01*
X74998578Y-140213029D01*
X75148538Y-140213029D01*
X75212854Y-140139526D01*
X75311978Y-140037027D01*
X75421755Y-139943364D01*
X75540728Y-139859371D01*
X75667444Y-139785882D01*
X75800445Y-139723730D01*
X75938277Y-139673748D01*
X76079484Y-139636771D01*
X76097228Y-139633118D01*
X76244315Y-139611030D01*
X76391784Y-139603045D01*
X76538638Y-139608824D01*
G37*
X76538638Y-139608824D02*
X76683879Y-139628029D01*
X76826508Y-139660323D01*
X76965527Y-139705367D01*
X77099939Y-139762823D01*
X77228744Y-139832354D01*
X77350945Y-139913620D01*
X77465544Y-140006285D01*
X77571542Y-140110011D01*
X77600671Y-140142272D01*
X77662776Y-140213029D01*
X77805288Y-140213049D01*
X77884819Y-140213911D01*
X77952431Y-140216638D01*
X78010631Y-140221479D01*
X78061922Y-140228682D01*
X78108812Y-140238496D01*
X78136485Y-140245918D01*
X78237378Y-140282395D01*
X78330116Y-140330696D01*
X78414230Y-140390329D01*
X78489251Y-140460807D01*
X78554710Y-140541639D01*
X78610139Y-140632336D01*
X78655067Y-140732408D01*
X78682164Y-140815372D01*
X78685148Y-140827174D01*
X78687647Y-140840166D01*
X78689703Y-140855684D01*
X78691359Y-140875063D01*
X78692656Y-140899637D01*
X78693637Y-140930743D01*
X78694344Y-140969716D01*
X78694821Y-141017890D01*
X78695108Y-141076601D01*
X78695249Y-141147185D01*
X78695285Y-141229029D01*
X78695275Y-141313925D01*
X78695168Y-141385765D01*
X78694844Y-141446004D01*
X78694188Y-141496100D01*
X78693082Y-141537512D01*
X78691408Y-141571694D01*
X78689050Y-141600106D01*
X78685889Y-141624203D01*
X78681808Y-141645444D01*
X78676691Y-141665285D01*
X78670419Y-141685183D01*
X78662875Y-141706597D01*
X78655112Y-141727795D01*
X78612061Y-141824618D01*
X78557437Y-141913423D01*
X78492259Y-141993404D01*
X78417546Y-142063750D01*
X78334318Y-142123654D01*
X78243595Y-142172308D01*
X78146395Y-142208902D01*
X78043739Y-142232628D01*
X78013114Y-142236984D01*
X77986166Y-142239361D01*
X77947933Y-142241459D01*
X77901641Y-142243167D01*
X77850519Y-142244373D01*
X77797794Y-142244966D01*
X77780725Y-142245008D01*
X77613651Y-142245029D01*
X77552125Y-142307520D01*
X77438318Y-142413137D01*
X77317137Y-142506468D01*
X77189107Y-142587245D01*
X77054754Y-142655199D01*
X76914603Y-142710062D01*
X76769179Y-142751567D01*
X76630628Y-142777803D01*
X76574003Y-142784363D01*
X76509118Y-142789187D01*
X76440724Y-142792121D01*
X76373577Y-142793015D01*
X76312429Y-142791716D01*
X76273494Y-142789223D01*
X76120550Y-142768382D01*
X75972322Y-142733881D01*
X75829255Y-142685930D01*
X75691797Y-142624741D01*
X75560395Y-142550525D01*
X75435494Y-142463493D01*
X75317542Y-142363857D01*
X75262808Y-142310894D01*
X75197645Y-142245029D01*
X75023132Y-142245029D01*
X74938584Y-142244369D01*
X74866293Y-142242154D01*
X74804051Y-142238028D01*
X74749649Y-142231637D01*
X74700879Y-142222625D01*
X74655533Y-142210638D01*
X74611404Y-142195321D01*
X74566283Y-142176318D01*
X74550567Y-142169069D01*
X74478130Y-142131275D01*
X74420254Y-142093058D01*
X76184829Y-142093058D01*
X78020371Y-142088826D01*
X78078036Y-142072518D01*
X78170203Y-142039346D01*
X78254181Y-141994736D01*
X78329216Y-141939587D01*
X78394551Y-141874797D01*
X78449432Y-141801267D01*
X78493102Y-141719896D01*
X78524807Y-141631583D01*
X78543789Y-141537229D01*
X78546233Y-141515223D01*
X78548753Y-141479044D01*
X78550742Y-141431132D01*
X78552197Y-141374258D01*
X78553120Y-141311196D01*
X78553510Y-141244716D01*
X78553368Y-141177589D01*
X78552693Y-141112589D01*
X78551486Y-141052486D01*
X78549746Y-141000053D01*
X78547474Y-140958060D01*
X78546233Y-140942835D01*
X78530219Y-140847118D01*
X78501328Y-140757304D01*
X78460302Y-140674276D01*
X78407882Y-140598917D01*
X78344809Y-140532110D01*
X78271826Y-140474736D01*
X78189674Y-140427679D01*
X78099093Y-140391822D01*
X78078036Y-140385503D01*
X78066483Y-140382292D01*
X78055387Y-140379532D01*
X78043607Y-140377188D01*
X78030002Y-140375226D01*
X78013430Y-140373612D01*
X77992750Y-140372312D01*
X77966820Y-140371292D01*
X77934498Y-140370517D01*
X77894644Y-140369954D01*
X77846116Y-140369567D01*
X77787772Y-140369324D01*
X77718471Y-140369189D01*
X77637071Y-140369129D01*
X77542431Y-140369109D01*
X77530514Y-140369108D01*
X77434295Y-140369104D01*
X77351441Y-140369138D01*
X77280803Y-140369244D01*
X77221234Y-140369456D01*
X77171583Y-140369810D01*
X77130702Y-140370340D01*
X77097443Y-140371081D01*
X77070655Y-140372068D01*
X77049192Y-140373335D01*
X77031902Y-140374917D01*
X77017639Y-140376849D01*
X77005253Y-140379166D01*
X76993594Y-140381902D01*
X76981515Y-140385092D01*
X76978971Y-140385781D01*
X76888006Y-140417606D01*
X76804268Y-140461424D01*
X76728784Y-140516399D01*
X76662583Y-140581691D01*
X76606690Y-140656462D01*
X76572572Y-140717400D01*
X76559411Y-140744398D01*
X76548330Y-140768009D01*
X76539131Y-140789753D01*
X76531616Y-140811150D01*
X76525587Y-140833720D01*
X76520847Y-140858984D01*
X76517198Y-140888462D01*
X76514443Y-140923674D01*
X76512383Y-140966140D01*
X76510821Y-141017380D01*
X76509559Y-141078915D01*
X76508400Y-141152265D01*
X76507447Y-141218143D01*
X76506146Y-141303933D01*
X76504820Y-141376755D01*
X76503313Y-141438154D01*
X76501473Y-141489674D01*
X76499143Y-141532862D01*
X76496171Y-141569263D01*
X76492402Y-141600421D01*
X76487681Y-141627882D01*
X76481854Y-141653192D01*
X76474768Y-141677895D01*
X76466267Y-141703536D01*
X76456198Y-141731662D01*
X76456166Y-141731750D01*
X76415354Y-141823085D01*
X76361663Y-141910014D01*
X76296526Y-141990528D01*
X76221380Y-142062620D01*
X76217228Y-142066098D01*
X76184829Y-142093058D01*
X74420254Y-142093058D01*
X74414861Y-142089497D01*
X74355418Y-142040086D01*
X74338550Y-142024210D01*
X74271078Y-141951780D01*
X74216205Y-141875905D01*
X74172017Y-141793561D01*
X74138664Y-141708000D01*
X74129252Y-141678799D01*
X74121362Y-141651717D01*
X74114876Y-141625179D01*
X74109673Y-141597614D01*
X74105635Y-141567448D01*
X74102642Y-141533107D01*
X74100575Y-141493019D01*
X74099314Y-141445610D01*
X74098741Y-141389306D01*
X74098735Y-141322535D01*
X74099178Y-141243723D01*
X74099585Y-141192743D01*
X74100269Y-141115499D01*
X74100937Y-141051259D01*
X74101666Y-140998513D01*
X74102531Y-140955749D01*
X74103612Y-140921459D01*
X74104983Y-140894132D01*
X74106722Y-140872258D01*
X74108907Y-140854326D01*
X74111613Y-140838826D01*
X74114918Y-140824249D01*
X74118898Y-140809083D01*
X74119162Y-140808115D01*
X74154175Y-140704488D01*
X74155917Y-140700918D01*
X74496992Y-140700918D01*
X74498617Y-140709001D01*
X74503282Y-140729813D01*
X74510659Y-140761966D01*
X74520420Y-140804070D01*
X74532236Y-140854738D01*
X74545778Y-140912580D01*
X74560719Y-140976208D01*
X74576729Y-141044232D01*
X74593481Y-141115266D01*
X74610646Y-141187919D01*
X74627895Y-141260803D01*
X74644900Y-141332529D01*
X74661333Y-141401709D01*
X74676865Y-141466954D01*
X74691168Y-141526875D01*
X74703913Y-141580084D01*
X74714773Y-141625192D01*
X74723417Y-141660810D01*
X74729519Y-141685549D01*
X74732750Y-141698021D01*
X74733025Y-141698929D01*
X74738134Y-141702434D01*
X74751757Y-141704991D01*
X74775362Y-141706702D01*
X74810417Y-141707670D01*
X74858392Y-141707999D01*
X74862797Y-141708000D01*
X74908807Y-141707879D01*
X74942337Y-141707385D01*
X74965422Y-141706319D01*
X74980093Y-141704483D01*
X74988386Y-141701679D01*
X74992332Y-141697711D01*
X74993290Y-141695300D01*
X74999371Y-141671946D01*
X75007224Y-141637543D01*
X75016459Y-141594180D01*
X75026689Y-141543943D01*
X75037524Y-141488919D01*
X75048576Y-141431196D01*
X75059456Y-141372861D01*
X75069775Y-141316001D01*
X75079145Y-141262703D01*
X75087177Y-141215054D01*
X75093482Y-141175142D01*
X75097671Y-141145053D01*
X75099355Y-141126874D01*
X75099371Y-141125752D01*
X75101634Y-141111207D01*
X75106628Y-141105658D01*
X75111899Y-141111920D01*
X75113898Y-141125615D01*
X75115302Y-141142177D01*
X75119243Y-141170876D01*
X75125334Y-141209632D01*
X75133187Y-141256365D01*
X75142415Y-141308994D01*
X75152631Y-141365440D01*
X75163447Y-141423623D01*
X75174476Y-141481463D01*
X75185330Y-141536880D01*
X75195623Y-141587794D01*
X75204966Y-141632125D01*
X75212973Y-141667793D01*
X75219256Y-141692718D01*
X75219996Y-141695300D01*
X75222518Y-141699854D01*
X75228353Y-141703177D01*
X75239505Y-141705459D01*
X75257982Y-141706891D01*
X75285788Y-141707663D01*
X75324929Y-141707965D01*
X75353860Y-141708000D01*
X75846857Y-141708000D01*
X76108247Y-141708000D01*
X76104485Y-140971400D01*
X75975671Y-140969419D01*
X75846857Y-140967437D01*
X75846857Y-141708000D01*
X75353860Y-141708000D01*
X75395506Y-141707694D01*
X75431633Y-141706842D01*
X75459945Y-141705547D01*
X75478150Y-141703912D01*
X75484000Y-141702194D01*
X75485641Y-141694503D01*
X75490379Y-141673867D01*
X75497938Y-141641453D01*
X75508038Y-141598432D01*
X75520403Y-141545974D01*
X75534755Y-141485249D01*
X75550817Y-141417426D01*
X75568310Y-141343675D01*
X75586957Y-141265166D01*
X75606481Y-141183069D01*
X75626604Y-141098553D01*
X75647049Y-141012789D01*
X75667537Y-140926946D01*
X75687791Y-140842193D01*
X75707534Y-140759702D01*
X75708501Y-140755667D01*
X75827886Y-140755667D01*
X75831433Y-140794415D01*
X75848009Y-140830784D01*
X75859149Y-140845002D01*
X75894082Y-140873315D01*
X75935930Y-140889506D01*
X75983104Y-140893219D01*
X76033418Y-140884273D01*
X76071730Y-140866387D01*
X76100625Y-140839810D01*
X76119332Y-140807065D01*
X76127081Y-140770674D01*
X76123102Y-140733162D01*
X76106623Y-140697051D01*
X76095137Y-140682170D01*
X76067763Y-140661365D01*
X76031674Y-140647962D01*
X75990644Y-140641962D01*
X75948442Y-140643364D01*
X75908840Y-140652168D01*
X75875609Y-140668375D01*
X75859834Y-140682170D01*
X75837357Y-140717324D01*
X75827886Y-140755667D01*
X75708501Y-140755667D01*
X75719846Y-140708329D01*
X75723762Y-140692000D01*
X75435521Y-140692000D01*
X75419485Y-140791786D01*
X75410013Y-140851617D01*
X75400466Y-140913541D01*
X75391113Y-140975679D01*
X75382218Y-141036153D01*
X75374051Y-141093083D01*
X75366876Y-141144591D01*
X75360961Y-141188797D01*
X75356573Y-141223823D01*
X75353979Y-141247790D01*
X75353371Y-141257337D01*
X75352678Y-141274949D01*
X75350596Y-141278144D01*
X75347125Y-141266916D01*
X75342260Y-141241256D01*
X75336001Y-141201157D01*
X75335266Y-141196132D01*
X75331447Y-141172301D01*
X75325488Y-141138126D01*
X75317811Y-141095789D01*
X75308837Y-141047469D01*
X75298988Y-140995347D01*
X75288685Y-140941604D01*
X75278351Y-140888420D01*
X75268407Y-140837976D01*
X75259275Y-140792453D01*
X75251376Y-140754030D01*
X75245132Y-140724889D01*
X75240964Y-140707209D01*
X75240204Y-140704535D01*
X75237680Y-140699911D01*
X75232095Y-140696607D01*
X75221410Y-140694454D01*
X75203587Y-140693284D01*
X75176588Y-140692929D01*
X75138374Y-140693221D01*
X75108348Y-140693649D01*
X74980522Y-140695629D01*
X74948726Y-140848029D01*
X74937050Y-140905541D01*
X74924527Y-140969845D01*
X74912198Y-141035435D01*
X74901099Y-141096808D01*
X74893726Y-141139632D01*
X74870522Y-141278834D01*
X74853661Y-141150517D01*
X74847049Y-141102172D01*
X74838721Y-141044293D01*
X74829388Y-140981655D01*
X74819763Y-140919034D01*
X74810558Y-140861206D01*
X74810185Y-140858915D01*
X74783569Y-140695629D01*
X74640299Y-140693661D01*
X74589163Y-140693156D01*
X74550990Y-140693288D01*
X74524240Y-140694135D01*
X74507372Y-140695777D01*
X74498844Y-140698290D01*
X74496992Y-140700918D01*
X74155917Y-140700918D01*
X74200423Y-140609746D01*
X74258381Y-140523034D01*
X74311912Y-140460538D01*
X74368462Y-140405625D01*
X74426026Y-140360254D01*
X74489692Y-140320711D01*
X74536943Y-140296284D01*
X74587811Y-140272982D01*
X74636015Y-140254260D01*
X74684035Y-140239669D01*
X74734353Y-140228763D01*
X74789449Y-140221095D01*
X74851803Y-140216216D01*
X74923897Y-140213679D01*
X74998578Y-140213029D01*
X75148538Y-140213029D01*
X75212854Y-140139526D01*
X75311978Y-140037027D01*
X75421755Y-139943364D01*
X75540728Y-139859371D01*
X75667444Y-139785882D01*
X75800445Y-139723730D01*
X75938277Y-139673748D01*
X76079484Y-139636771D01*
X76097228Y-139633118D01*
X76244315Y-139611030D01*
X76391784Y-139603045D01*
X76538638Y-139608824D01*
D12*
X152607142Y-116452380D02*
X152273809Y-115976190D01*
X152035714Y-116452380D02*
X152035714Y-115452380D01*
X152416666Y-115452380D01*
X152511904Y-115500000D01*
X152559523Y-115547619D01*
X152607142Y-115642857D01*
X152607142Y-115785714D01*
X152559523Y-115880952D01*
X152511904Y-115928571D01*
X152416666Y-115976190D01*
X152035714Y-115976190D01*
X152988095Y-115547619D02*
X153035714Y-115500000D01*
X153130952Y-115452380D01*
X153369047Y-115452380D01*
X153464285Y-115500000D01*
X153511904Y-115547619D01*
X153559523Y-115642857D01*
X153559523Y-115738095D01*
X153511904Y-115880952D01*
X152940476Y-116452380D01*
X153559523Y-116452380D01*
X154035714Y-116452380D02*
X154226190Y-116452380D01*
X154321428Y-116404761D01*
X154369047Y-116357142D01*
X154464285Y-116214285D01*
X154511904Y-116023809D01*
X154511904Y-115642857D01*
X154464285Y-115547619D01*
X154416666Y-115500000D01*
X154321428Y-115452380D01*
X154130952Y-115452380D01*
X154035714Y-115500000D01*
X153988095Y-115547619D01*
X153940476Y-115642857D01*
X153940476Y-115880952D01*
X153988095Y-115976190D01*
X154035714Y-116023809D01*
X154130952Y-116071428D01*
X154321428Y-116071428D01*
X154416666Y-116023809D01*
X154464285Y-115976190D01*
X154511904Y-115880952D01*
X153161904Y-119452380D02*
X153161904Y-118452380D01*
X153400000Y-118452380D01*
X153542857Y-118500000D01*
X153638095Y-118595238D01*
X153685714Y-118690476D01*
X153733333Y-118880952D01*
X153733333Y-119023809D01*
X153685714Y-119214285D01*
X153638095Y-119309523D01*
X153542857Y-119404761D01*
X153400000Y-119452380D01*
X153161904Y-119452380D01*
X154590476Y-118452380D02*
X154400000Y-118452380D01*
X154304761Y-118500000D01*
X154257142Y-118547619D01*
X154161904Y-118690476D01*
X154114285Y-118880952D01*
X154114285Y-119261904D01*
X154161904Y-119357142D01*
X154209523Y-119404761D01*
X154304761Y-119452380D01*
X154495238Y-119452380D01*
X154590476Y-119404761D01*
X154638095Y-119357142D01*
X154685714Y-119261904D01*
X154685714Y-119023809D01*
X154638095Y-118928571D01*
X154590476Y-118880952D01*
X154495238Y-118833333D01*
X154304761Y-118833333D01*
X154209523Y-118880952D01*
X154161904Y-118928571D01*
X154114285Y-119023809D01*
X142814285Y-115257142D02*
X142814285Y-115985714D01*
X142857142Y-116071428D01*
X142900000Y-116114285D01*
X142985714Y-116157142D01*
X143157142Y-116157142D01*
X143242857Y-116114285D01*
X143285714Y-116071428D01*
X143328571Y-115985714D01*
X143328571Y-115257142D01*
X144142857Y-115557142D02*
X144142857Y-116157142D01*
X143928571Y-115214285D02*
X143714285Y-115857142D01*
X144271428Y-115857142D01*
X138521428Y-121571428D02*
X138478571Y-121614285D01*
X138350000Y-121657142D01*
X138264285Y-121657142D01*
X138135714Y-121614285D01*
X138050000Y-121528571D01*
X138007142Y-121442857D01*
X137964285Y-121271428D01*
X137964285Y-121142857D01*
X138007142Y-120971428D01*
X138050000Y-120885714D01*
X138135714Y-120800000D01*
X138264285Y-120757142D01*
X138350000Y-120757142D01*
X138478571Y-120800000D01*
X138521428Y-120842857D01*
X139378571Y-121657142D02*
X138864285Y-121657142D01*
X139121428Y-121657142D02*
X139121428Y-120757142D01*
X139035714Y-120885714D01*
X138950000Y-120971428D01*
X138864285Y-121014285D01*
X139721428Y-120842857D02*
X139764285Y-120800000D01*
X139850000Y-120757142D01*
X140064285Y-120757142D01*
X140150000Y-120800000D01*
X140192857Y-120842857D01*
X140235714Y-120928571D01*
X140235714Y-121014285D01*
X140192857Y-121142857D01*
X139678571Y-121657142D01*
X140235714Y-121657142D01*
X152450000Y-108007142D02*
X152450000Y-108650000D01*
X152407142Y-108778571D01*
X152321428Y-108864285D01*
X152192857Y-108907142D01*
X152107142Y-108907142D01*
X153307142Y-108007142D02*
X152878571Y-108007142D01*
X152835714Y-108435714D01*
X152878571Y-108392857D01*
X152964285Y-108350000D01*
X153178571Y-108350000D01*
X153264285Y-108392857D01*
X153307142Y-108435714D01*
X153350000Y-108521428D01*
X153350000Y-108735714D01*
X153307142Y-108821428D01*
X153264285Y-108864285D01*
X153178571Y-108907142D01*
X152964285Y-108907142D01*
X152878571Y-108864285D01*
X152835714Y-108821428D01*
X86870000Y-101507142D02*
X86870000Y-102150000D01*
X86827142Y-102278571D01*
X86741428Y-102364285D01*
X86612857Y-102407142D01*
X86527142Y-102407142D01*
X87684285Y-101807142D02*
X87684285Y-102407142D01*
X87470000Y-101464285D02*
X87255714Y-102107142D01*
X87812857Y-102107142D01*
X109421428Y-126407142D02*
X109121428Y-125978571D01*
X108907142Y-126407142D02*
X108907142Y-125507142D01*
X109250000Y-125507142D01*
X109335714Y-125550000D01*
X109378571Y-125592857D01*
X109421428Y-125678571D01*
X109421428Y-125807142D01*
X109378571Y-125892857D01*
X109335714Y-125935714D01*
X109250000Y-125978571D01*
X108907142Y-125978571D01*
X109721428Y-125507142D02*
X110278571Y-125507142D01*
X109978571Y-125850000D01*
X110107142Y-125850000D01*
X110192857Y-125892857D01*
X110235714Y-125935714D01*
X110278571Y-126021428D01*
X110278571Y-126235714D01*
X110235714Y-126321428D01*
X110192857Y-126364285D01*
X110107142Y-126407142D01*
X109850000Y-126407142D01*
X109764285Y-126364285D01*
X109721428Y-126321428D01*
X110835714Y-125507142D02*
X110921428Y-125507142D01*
X111007142Y-125550000D01*
X111050000Y-125592857D01*
X111092857Y-125678571D01*
X111135714Y-125850000D01*
X111135714Y-126064285D01*
X111092857Y-126235714D01*
X111050000Y-126321428D01*
X111007142Y-126364285D01*
X110921428Y-126407142D01*
X110835714Y-126407142D01*
X110750000Y-126364285D01*
X110707142Y-126321428D01*
X110664285Y-126235714D01*
X110621428Y-126064285D01*
X110621428Y-125850000D01*
X110664285Y-125678571D01*
X110707142Y-125592857D01*
X110750000Y-125550000D01*
X110835714Y-125507142D01*
X145200000Y-147257142D02*
X145200000Y-147900000D01*
X145157142Y-148028571D01*
X145071428Y-148114285D01*
X144942857Y-148157142D01*
X144857142Y-148157142D01*
X146100000Y-148157142D02*
X145585714Y-148157142D01*
X145842857Y-148157142D02*
X145842857Y-147257142D01*
X145757142Y-147385714D01*
X145671428Y-147471428D01*
X145585714Y-147514285D01*
X104450000Y-146257142D02*
X104450000Y-146900000D01*
X104407142Y-147028571D01*
X104321428Y-147114285D01*
X104192857Y-147157142D01*
X104107142Y-147157142D01*
X104835714Y-146342857D02*
X104878571Y-146300000D01*
X104964285Y-146257142D01*
X105178571Y-146257142D01*
X105264285Y-146300000D01*
X105307142Y-146342857D01*
X105350000Y-146428571D01*
X105350000Y-146514285D01*
X105307142Y-146642857D01*
X104792857Y-147157142D01*
X105350000Y-147157142D01*
X138171428Y-128157142D02*
X137871428Y-127728571D01*
X137657142Y-128157142D02*
X137657142Y-127257142D01*
X138000000Y-127257142D01*
X138085714Y-127300000D01*
X138128571Y-127342857D01*
X138171428Y-127428571D01*
X138171428Y-127557142D01*
X138128571Y-127642857D01*
X138085714Y-127685714D01*
X138000000Y-127728571D01*
X137657142Y-127728571D01*
X138514285Y-127342857D02*
X138557142Y-127300000D01*
X138642857Y-127257142D01*
X138857142Y-127257142D01*
X138942857Y-127300000D01*
X138985714Y-127342857D01*
X139028571Y-127428571D01*
X139028571Y-127514285D01*
X138985714Y-127642857D01*
X138471428Y-128157142D01*
X139028571Y-128157142D01*
X139542857Y-127642857D02*
X139457142Y-127600000D01*
X139414285Y-127557142D01*
X139371428Y-127471428D01*
X139371428Y-127428571D01*
X139414285Y-127342857D01*
X139457142Y-127300000D01*
X139542857Y-127257142D01*
X139714285Y-127257142D01*
X139800000Y-127300000D01*
X139842857Y-127342857D01*
X139885714Y-127428571D01*
X139885714Y-127471428D01*
X139842857Y-127557142D01*
X139800000Y-127600000D01*
X139714285Y-127642857D01*
X139542857Y-127642857D01*
X139457142Y-127685714D01*
X139414285Y-127728571D01*
X139371428Y-127814285D01*
X139371428Y-127985714D01*
X139414285Y-128071428D01*
X139457142Y-128114285D01*
X139542857Y-128157142D01*
X139714285Y-128157142D01*
X139800000Y-128114285D01*
X139842857Y-128071428D01*
X139885714Y-127985714D01*
X139885714Y-127814285D01*
X139842857Y-127728571D01*
X139800000Y-127685714D01*
X139714285Y-127642857D01*
X144671428Y-124657142D02*
X144371428Y-124228571D01*
X144157142Y-124657142D02*
X144157142Y-123757142D01*
X144500000Y-123757142D01*
X144585714Y-123800000D01*
X144628571Y-123842857D01*
X144671428Y-123928571D01*
X144671428Y-124057142D01*
X144628571Y-124142857D01*
X144585714Y-124185714D01*
X144500000Y-124228571D01*
X144157142Y-124228571D01*
X145014285Y-123842857D02*
X145057142Y-123800000D01*
X145142857Y-123757142D01*
X145357142Y-123757142D01*
X145442857Y-123800000D01*
X145485714Y-123842857D01*
X145528571Y-123928571D01*
X145528571Y-124014285D01*
X145485714Y-124142857D01*
X144971428Y-124657142D01*
X145528571Y-124657142D01*
X145828571Y-123757142D02*
X146428571Y-123757142D01*
X146042857Y-124657142D01*
X109671428Y-108071428D02*
X109628571Y-108114285D01*
X109500000Y-108157142D01*
X109414285Y-108157142D01*
X109285714Y-108114285D01*
X109200000Y-108028571D01*
X109157142Y-107942857D01*
X109114285Y-107771428D01*
X109114285Y-107642857D01*
X109157142Y-107471428D01*
X109200000Y-107385714D01*
X109285714Y-107300000D01*
X109414285Y-107257142D01*
X109500000Y-107257142D01*
X109628571Y-107300000D01*
X109671428Y-107342857D01*
X110528571Y-108157142D02*
X110014285Y-108157142D01*
X110271428Y-108157142D02*
X110271428Y-107257142D01*
X110185714Y-107385714D01*
X110100000Y-107471428D01*
X110014285Y-107514285D01*
X111385714Y-108157142D02*
X110871428Y-108157142D01*
X111128571Y-108157142D02*
X111128571Y-107257142D01*
X111042857Y-107385714D01*
X110957142Y-107471428D01*
X110871428Y-107514285D01*
X144921428Y-131821428D02*
X144878571Y-131864285D01*
X144750000Y-131907142D01*
X144664285Y-131907142D01*
X144535714Y-131864285D01*
X144450000Y-131778571D01*
X144407142Y-131692857D01*
X144364285Y-131521428D01*
X144364285Y-131392857D01*
X144407142Y-131221428D01*
X144450000Y-131135714D01*
X144535714Y-131050000D01*
X144664285Y-131007142D01*
X144750000Y-131007142D01*
X144878571Y-131050000D01*
X144921428Y-131092857D01*
X145778571Y-131907142D02*
X145264285Y-131907142D01*
X145521428Y-131907142D02*
X145521428Y-131007142D01*
X145435714Y-131135714D01*
X145350000Y-131221428D01*
X145264285Y-131264285D01*
X146335714Y-131007142D02*
X146421428Y-131007142D01*
X146507142Y-131050000D01*
X146550000Y-131092857D01*
X146592857Y-131178571D01*
X146635714Y-131350000D01*
X146635714Y-131564285D01*
X146592857Y-131735714D01*
X146550000Y-131821428D01*
X146507142Y-131864285D01*
X146421428Y-131907142D01*
X146335714Y-131907142D01*
X146250000Y-131864285D01*
X146207142Y-131821428D01*
X146164285Y-131735714D01*
X146121428Y-131564285D01*
X146121428Y-131350000D01*
X146164285Y-131178571D01*
X146207142Y-131092857D01*
X146250000Y-131050000D01*
X146335714Y-131007142D01*
X97921428Y-106907142D02*
X97621428Y-106478571D01*
X97407142Y-106907142D02*
X97407142Y-106007142D01*
X97750000Y-106007142D01*
X97835714Y-106050000D01*
X97878571Y-106092857D01*
X97921428Y-106178571D01*
X97921428Y-106307142D01*
X97878571Y-106392857D01*
X97835714Y-106435714D01*
X97750000Y-106478571D01*
X97407142Y-106478571D01*
X98264285Y-106092857D02*
X98307142Y-106050000D01*
X98392857Y-106007142D01*
X98607142Y-106007142D01*
X98692857Y-106050000D01*
X98735714Y-106092857D01*
X98778571Y-106178571D01*
X98778571Y-106264285D01*
X98735714Y-106392857D01*
X98221428Y-106907142D01*
X98778571Y-106907142D01*
X99550000Y-106007142D02*
X99378571Y-106007142D01*
X99292857Y-106050000D01*
X99250000Y-106092857D01*
X99164285Y-106221428D01*
X99121428Y-106392857D01*
X99121428Y-106735714D01*
X99164285Y-106821428D01*
X99207142Y-106864285D01*
X99292857Y-106907142D01*
X99464285Y-106907142D01*
X99550000Y-106864285D01*
X99592857Y-106821428D01*
X99635714Y-106735714D01*
X99635714Y-106521428D01*
X99592857Y-106435714D01*
X99550000Y-106392857D01*
X99464285Y-106350000D01*
X99292857Y-106350000D01*
X99207142Y-106392857D01*
X99164285Y-106435714D01*
X99121428Y-106521428D01*
X71450000Y-116507142D02*
X71450000Y-117150000D01*
X71407142Y-117278571D01*
X71321428Y-117364285D01*
X71192857Y-117407142D01*
X71107142Y-117407142D01*
X71792857Y-116507142D02*
X72350000Y-116507142D01*
X72050000Y-116850000D01*
X72178571Y-116850000D01*
X72264285Y-116892857D01*
X72307142Y-116935714D01*
X72350000Y-117021428D01*
X72350000Y-117235714D01*
X72307142Y-117321428D01*
X72264285Y-117364285D01*
X72178571Y-117407142D01*
X71921428Y-117407142D01*
X71835714Y-117364285D01*
X71792857Y-117321428D01*
X138371285Y-103490142D02*
X138371285Y-104218714D01*
X138414142Y-104304428D01*
X138457000Y-104347285D01*
X138542714Y-104390142D01*
X138714142Y-104390142D01*
X138799857Y-104347285D01*
X138842714Y-104304428D01*
X138885571Y-104218714D01*
X138885571Y-103490142D01*
X139271285Y-103575857D02*
X139314142Y-103533000D01*
X139399857Y-103490142D01*
X139614142Y-103490142D01*
X139699857Y-103533000D01*
X139742714Y-103575857D01*
X139785571Y-103661571D01*
X139785571Y-103747285D01*
X139742714Y-103875857D01*
X139228428Y-104390142D01*
X139785571Y-104390142D01*
X134286571Y-120460428D02*
X134286571Y-120127095D01*
X134810380Y-119984238D02*
X134810380Y-120460428D01*
X133810380Y-120460428D01*
X133810380Y-119984238D01*
X134762761Y-119603285D02*
X134810380Y-119508047D01*
X134810380Y-119317571D01*
X134762761Y-119222333D01*
X134667523Y-119174714D01*
X134619904Y-119174714D01*
X134524666Y-119222333D01*
X134477047Y-119317571D01*
X134477047Y-119460428D01*
X134429428Y-119555666D01*
X134334190Y-119603285D01*
X134286571Y-119603285D01*
X134191333Y-119555666D01*
X134143714Y-119460428D01*
X134143714Y-119317571D01*
X134191333Y-119222333D01*
X134143714Y-118746142D02*
X135143714Y-118746142D01*
X134191333Y-118746142D02*
X134143714Y-118650904D01*
X134143714Y-118460428D01*
X134191333Y-118365190D01*
X134238952Y-118317571D01*
X134334190Y-118269952D01*
X134619904Y-118269952D01*
X134715142Y-118317571D01*
X134762761Y-118365190D01*
X134810380Y-118460428D01*
X134810380Y-118650904D01*
X134762761Y-118746142D01*
X134810380Y-117841380D02*
X134143714Y-117841380D01*
X134334190Y-117841380D02*
X134238952Y-117793761D01*
X134191333Y-117746142D01*
X134143714Y-117650904D01*
X134143714Y-117555666D01*
X134762761Y-116841380D02*
X134810380Y-116936619D01*
X134810380Y-117127095D01*
X134762761Y-117222333D01*
X134667523Y-117269952D01*
X134286571Y-117269952D01*
X134191333Y-117222333D01*
X134143714Y-117127095D01*
X134143714Y-116936619D01*
X134191333Y-116841380D01*
X134286571Y-116793761D01*
X134381809Y-116793761D01*
X134477047Y-117269952D01*
X134762761Y-116412809D02*
X134810380Y-116317571D01*
X134810380Y-116127095D01*
X134762761Y-116031857D01*
X134667523Y-115984238D01*
X134619904Y-115984238D01*
X134524666Y-116031857D01*
X134477047Y-116127095D01*
X134477047Y-116269952D01*
X134429428Y-116365190D01*
X134334190Y-116412809D01*
X134286571Y-116412809D01*
X134191333Y-116365190D01*
X134143714Y-116269952D01*
X134143714Y-116127095D01*
X134191333Y-116031857D01*
X134762761Y-115603285D02*
X134810380Y-115508047D01*
X134810380Y-115317571D01*
X134762761Y-115222333D01*
X134667523Y-115174714D01*
X134619904Y-115174714D01*
X134524666Y-115222333D01*
X134477047Y-115317571D01*
X134477047Y-115460428D01*
X134429428Y-115555666D01*
X134334190Y-115603285D01*
X134286571Y-115603285D01*
X134191333Y-115555666D01*
X134143714Y-115460428D01*
X134143714Y-115317571D01*
X134191333Y-115222333D01*
X134810380Y-114746142D02*
X134143714Y-114746142D01*
X133810380Y-114746142D02*
X133858000Y-114793761D01*
X133905619Y-114746142D01*
X133858000Y-114698523D01*
X133810380Y-114746142D01*
X133905619Y-114746142D01*
X134143714Y-114412809D02*
X134143714Y-114031857D01*
X134810380Y-114269952D02*
X133953238Y-114269952D01*
X133858000Y-114222333D01*
X133810380Y-114127095D01*
X133810380Y-114031857D01*
X134762761Y-112984238D02*
X134810380Y-112841380D01*
X134810380Y-112603285D01*
X134762761Y-112508047D01*
X134715142Y-112460428D01*
X134619904Y-112412809D01*
X134524666Y-112412809D01*
X134429428Y-112460428D01*
X134381809Y-112508047D01*
X134334190Y-112603285D01*
X134286571Y-112793761D01*
X134238952Y-112889000D01*
X134191333Y-112936619D01*
X134096095Y-112984238D01*
X134000857Y-112984238D01*
X133905619Y-112936619D01*
X133858000Y-112889000D01*
X133810380Y-112793761D01*
X133810380Y-112555666D01*
X133858000Y-112412809D01*
X134143714Y-112079476D02*
X134810380Y-111841380D01*
X134143714Y-111603285D02*
X134810380Y-111841380D01*
X135048476Y-111936619D01*
X135096095Y-111984238D01*
X135143714Y-112079476D01*
X134762761Y-111269952D02*
X134810380Y-111174714D01*
X134810380Y-110984238D01*
X134762761Y-110889000D01*
X134667523Y-110841380D01*
X134619904Y-110841380D01*
X134524666Y-110889000D01*
X134477047Y-110984238D01*
X134477047Y-111127095D01*
X134429428Y-111222333D01*
X134334190Y-111269952D01*
X134286571Y-111269952D01*
X134191333Y-111222333D01*
X134143714Y-111127095D01*
X134143714Y-110984238D01*
X134191333Y-110889000D01*
X134143714Y-110555666D02*
X134143714Y-110174714D01*
X133810380Y-110412809D02*
X134667523Y-110412809D01*
X134762761Y-110365190D01*
X134810380Y-110269952D01*
X134810380Y-110174714D01*
X134762761Y-109460428D02*
X134810380Y-109555666D01*
X134810380Y-109746142D01*
X134762761Y-109841380D01*
X134667523Y-109889000D01*
X134286571Y-109889000D01*
X134191333Y-109841380D01*
X134143714Y-109746142D01*
X134143714Y-109555666D01*
X134191333Y-109460428D01*
X134286571Y-109412809D01*
X134381809Y-109412809D01*
X134477047Y-109889000D01*
X134810380Y-108984238D02*
X134143714Y-108984238D01*
X134238952Y-108984238D02*
X134191333Y-108936619D01*
X134143714Y-108841380D01*
X134143714Y-108698523D01*
X134191333Y-108603285D01*
X134286571Y-108555666D01*
X134810380Y-108555666D01*
X134286571Y-108555666D02*
X134191333Y-108508047D01*
X134143714Y-108412809D01*
X134143714Y-108269952D01*
X134191333Y-108174714D01*
X134286571Y-108127095D01*
X134810380Y-108127095D01*
X134762761Y-107698523D02*
X134810380Y-107603285D01*
X134810380Y-107412809D01*
X134762761Y-107317571D01*
X134667523Y-107269952D01*
X134619904Y-107269952D01*
X134524666Y-107317571D01*
X134477047Y-107412809D01*
X134477047Y-107555666D01*
X134429428Y-107650904D01*
X134334190Y-107698523D01*
X134286571Y-107698523D01*
X134191333Y-107650904D01*
X134143714Y-107555666D01*
X134143714Y-107412809D01*
X134191333Y-107317571D01*
X132635571Y-118198380D02*
X132635571Y-117865047D01*
X133159380Y-117722190D02*
X133159380Y-118198380D01*
X132159380Y-118198380D01*
X132159380Y-117722190D01*
X133111761Y-117341238D02*
X133159380Y-117198380D01*
X133159380Y-116960285D01*
X133111761Y-116865047D01*
X133064142Y-116817428D01*
X132968904Y-116769809D01*
X132873666Y-116769809D01*
X132778428Y-116817428D01*
X132730809Y-116865047D01*
X132683190Y-116960285D01*
X132635571Y-117150761D01*
X132587952Y-117246000D01*
X132540333Y-117293619D01*
X132445095Y-117341238D01*
X132349857Y-117341238D01*
X132254619Y-117293619D01*
X132207000Y-117246000D01*
X132159380Y-117150761D01*
X132159380Y-116912666D01*
X132207000Y-116769809D01*
X133159380Y-116341238D02*
X132159380Y-116341238D01*
X132159380Y-115960285D01*
X132207000Y-115865047D01*
X132254619Y-115817428D01*
X132349857Y-115769809D01*
X132492714Y-115769809D01*
X132587952Y-115817428D01*
X132635571Y-115865047D01*
X132683190Y-115960285D01*
X132683190Y-116341238D01*
X132159380Y-115436476D02*
X132159380Y-114817428D01*
X132540333Y-115150761D01*
X132540333Y-115007904D01*
X132587952Y-114912666D01*
X132635571Y-114865047D01*
X132730809Y-114817428D01*
X132968904Y-114817428D01*
X133064142Y-114865047D01*
X133111761Y-114912666D01*
X133159380Y-115007904D01*
X133159380Y-115293619D01*
X133111761Y-115388857D01*
X133064142Y-115436476D01*
X132254619Y-114436476D02*
X132207000Y-114388857D01*
X132159380Y-114293619D01*
X132159380Y-114055523D01*
X132207000Y-113960285D01*
X132254619Y-113912666D01*
X132349857Y-113865047D01*
X132445095Y-113865047D01*
X132587952Y-113912666D01*
X133159380Y-114484095D01*
X133159380Y-113865047D01*
X132778428Y-113436476D02*
X132778428Y-112674571D01*
X132159380Y-112293619D02*
X133159380Y-112055523D01*
X132445095Y-111865047D01*
X133159380Y-111674571D01*
X132159380Y-111436476D01*
X133159380Y-110484095D02*
X132683190Y-110817428D01*
X133159380Y-111055523D02*
X132159380Y-111055523D01*
X132159380Y-110674571D01*
X132207000Y-110579333D01*
X132254619Y-110531714D01*
X132349857Y-110484095D01*
X132492714Y-110484095D01*
X132587952Y-110531714D01*
X132635571Y-110579333D01*
X132683190Y-110674571D01*
X132683190Y-111055523D01*
X132159380Y-109865047D02*
X132159380Y-109674571D01*
X132207000Y-109579333D01*
X132302238Y-109484095D01*
X132492714Y-109436476D01*
X132826047Y-109436476D01*
X133016523Y-109484095D01*
X133111761Y-109579333D01*
X133159380Y-109674571D01*
X133159380Y-109865047D01*
X133111761Y-109960285D01*
X133016523Y-110055523D01*
X132826047Y-110103142D01*
X132492714Y-110103142D01*
X132302238Y-110055523D01*
X132207000Y-109960285D01*
X132159380Y-109865047D01*
X132159380Y-108817428D02*
X132159380Y-108626952D01*
X132207000Y-108531714D01*
X132302238Y-108436476D01*
X132492714Y-108388857D01*
X132826047Y-108388857D01*
X133016523Y-108436476D01*
X133111761Y-108531714D01*
X133159380Y-108626952D01*
X133159380Y-108817428D01*
X133111761Y-108912666D01*
X133016523Y-109007904D01*
X132826047Y-109055523D01*
X132492714Y-109055523D01*
X132302238Y-109007904D01*
X132207000Y-108912666D01*
X132159380Y-108817428D01*
X133159380Y-107960285D02*
X132159380Y-107960285D01*
X132873666Y-107626952D01*
X132159380Y-107293619D01*
X133159380Y-107293619D01*
X92600000Y-113321428D02*
X92557142Y-113364285D01*
X92428571Y-113407142D01*
X92342857Y-113407142D01*
X92214285Y-113364285D01*
X92128571Y-113278571D01*
X92085714Y-113192857D01*
X92042857Y-113021428D01*
X92042857Y-112892857D01*
X92085714Y-112721428D01*
X92128571Y-112635714D01*
X92214285Y-112550000D01*
X92342857Y-112507142D01*
X92428571Y-112507142D01*
X92557142Y-112550000D01*
X92600000Y-112592857D01*
X92942857Y-112592857D02*
X92985714Y-112550000D01*
X93071428Y-112507142D01*
X93285714Y-112507142D01*
X93371428Y-112550000D01*
X93414285Y-112592857D01*
X93457142Y-112678571D01*
X93457142Y-112764285D01*
X93414285Y-112892857D01*
X92900000Y-113407142D01*
X93457142Y-113407142D01*
X110600000Y-114571428D02*
X110557142Y-114614285D01*
X110428571Y-114657142D01*
X110342857Y-114657142D01*
X110214285Y-114614285D01*
X110128571Y-114528571D01*
X110085714Y-114442857D01*
X110042857Y-114271428D01*
X110042857Y-114142857D01*
X110085714Y-113971428D01*
X110128571Y-113885714D01*
X110214285Y-113800000D01*
X110342857Y-113757142D01*
X110428571Y-113757142D01*
X110557142Y-113800000D01*
X110600000Y-113842857D01*
X110900000Y-113757142D02*
X111457142Y-113757142D01*
X111157142Y-114100000D01*
X111285714Y-114100000D01*
X111371428Y-114142857D01*
X111414285Y-114185714D01*
X111457142Y-114271428D01*
X111457142Y-114485714D01*
X111414285Y-114571428D01*
X111371428Y-114614285D01*
X111285714Y-114657142D01*
X111028571Y-114657142D01*
X110942857Y-114614285D01*
X110900000Y-114571428D01*
X110350000Y-111321428D02*
X110307142Y-111364285D01*
X110178571Y-111407142D01*
X110092857Y-111407142D01*
X109964285Y-111364285D01*
X109878571Y-111278571D01*
X109835714Y-111192857D01*
X109792857Y-111021428D01*
X109792857Y-110892857D01*
X109835714Y-110721428D01*
X109878571Y-110635714D01*
X109964285Y-110550000D01*
X110092857Y-110507142D01*
X110178571Y-110507142D01*
X110307142Y-110550000D01*
X110350000Y-110592857D01*
X111121428Y-110807142D02*
X111121428Y-111407142D01*
X110907142Y-110464285D02*
X110692857Y-111107142D01*
X111250000Y-111107142D01*
X151600000Y-135821428D02*
X151557142Y-135864285D01*
X151428571Y-135907142D01*
X151342857Y-135907142D01*
X151214285Y-135864285D01*
X151128571Y-135778571D01*
X151085714Y-135692857D01*
X151042857Y-135521428D01*
X151042857Y-135392857D01*
X151085714Y-135221428D01*
X151128571Y-135135714D01*
X151214285Y-135050000D01*
X151342857Y-135007142D01*
X151428571Y-135007142D01*
X151557142Y-135050000D01*
X151600000Y-135092857D01*
X152414285Y-135007142D02*
X151985714Y-135007142D01*
X151942857Y-135435714D01*
X151985714Y-135392857D01*
X152071428Y-135350000D01*
X152285714Y-135350000D01*
X152371428Y-135392857D01*
X152414285Y-135435714D01*
X152457142Y-135521428D01*
X152457142Y-135735714D01*
X152414285Y-135821428D01*
X152371428Y-135864285D01*
X152285714Y-135907142D01*
X152071428Y-135907142D01*
X151985714Y-135864285D01*
X151942857Y-135821428D01*
X151100000Y-110071428D02*
X151057142Y-110114285D01*
X150928571Y-110157142D01*
X150842857Y-110157142D01*
X150714285Y-110114285D01*
X150628571Y-110028571D01*
X150585714Y-109942857D01*
X150542857Y-109771428D01*
X150542857Y-109642857D01*
X150585714Y-109471428D01*
X150628571Y-109385714D01*
X150714285Y-109300000D01*
X150842857Y-109257142D01*
X150928571Y-109257142D01*
X151057142Y-109300000D01*
X151100000Y-109342857D01*
X151871428Y-109257142D02*
X151700000Y-109257142D01*
X151614285Y-109300000D01*
X151571428Y-109342857D01*
X151485714Y-109471428D01*
X151442857Y-109642857D01*
X151442857Y-109985714D01*
X151485714Y-110071428D01*
X151528571Y-110114285D01*
X151614285Y-110157142D01*
X151785714Y-110157142D01*
X151871428Y-110114285D01*
X151914285Y-110071428D01*
X151957142Y-109985714D01*
X151957142Y-109771428D01*
X151914285Y-109685714D01*
X151871428Y-109642857D01*
X151785714Y-109600000D01*
X151614285Y-109600000D01*
X151528571Y-109642857D01*
X151485714Y-109685714D01*
X151442857Y-109771428D01*
X110600000Y-118071428D02*
X110557142Y-118114285D01*
X110428571Y-118157142D01*
X110342857Y-118157142D01*
X110214285Y-118114285D01*
X110128571Y-118028571D01*
X110085714Y-117942857D01*
X110042857Y-117771428D01*
X110042857Y-117642857D01*
X110085714Y-117471428D01*
X110128571Y-117385714D01*
X110214285Y-117300000D01*
X110342857Y-117257142D01*
X110428571Y-117257142D01*
X110557142Y-117300000D01*
X110600000Y-117342857D01*
X110900000Y-117257142D02*
X111500000Y-117257142D01*
X111114285Y-118157142D01*
X72600000Y-129821428D02*
X72557142Y-129864285D01*
X72428571Y-129907142D01*
X72342857Y-129907142D01*
X72214285Y-129864285D01*
X72128571Y-129778571D01*
X72085714Y-129692857D01*
X72042857Y-129521428D01*
X72042857Y-129392857D01*
X72085714Y-129221428D01*
X72128571Y-129135714D01*
X72214285Y-129050000D01*
X72342857Y-129007142D01*
X72428571Y-129007142D01*
X72557142Y-129050000D01*
X72600000Y-129092857D01*
X73114285Y-129392857D02*
X73028571Y-129350000D01*
X72985714Y-129307142D01*
X72942857Y-129221428D01*
X72942857Y-129178571D01*
X72985714Y-129092857D01*
X73028571Y-129050000D01*
X73114285Y-129007142D01*
X73285714Y-129007142D01*
X73371428Y-129050000D01*
X73414285Y-129092857D01*
X73457142Y-129178571D01*
X73457142Y-129221428D01*
X73414285Y-129307142D01*
X73371428Y-129350000D01*
X73285714Y-129392857D01*
X73114285Y-129392857D01*
X73028571Y-129435714D01*
X72985714Y-129478571D01*
X72942857Y-129564285D01*
X72942857Y-129735714D01*
X72985714Y-129821428D01*
X73028571Y-129864285D01*
X73114285Y-129907142D01*
X73285714Y-129907142D01*
X73371428Y-129864285D01*
X73414285Y-129821428D01*
X73457142Y-129735714D01*
X73457142Y-129564285D01*
X73414285Y-129478571D01*
X73371428Y-129435714D01*
X73285714Y-129392857D01*
X72600000Y-126321428D02*
X72557142Y-126364285D01*
X72428571Y-126407142D01*
X72342857Y-126407142D01*
X72214285Y-126364285D01*
X72128571Y-126278571D01*
X72085714Y-126192857D01*
X72042857Y-126021428D01*
X72042857Y-125892857D01*
X72085714Y-125721428D01*
X72128571Y-125635714D01*
X72214285Y-125550000D01*
X72342857Y-125507142D01*
X72428571Y-125507142D01*
X72557142Y-125550000D01*
X72600000Y-125592857D01*
X73028571Y-126407142D02*
X73200000Y-126407142D01*
X73285714Y-126364285D01*
X73328571Y-126321428D01*
X73414285Y-126192857D01*
X73457142Y-126021428D01*
X73457142Y-125678571D01*
X73414285Y-125592857D01*
X73371428Y-125550000D01*
X73285714Y-125507142D01*
X73114285Y-125507142D01*
X73028571Y-125550000D01*
X72985714Y-125592857D01*
X72942857Y-125678571D01*
X72942857Y-125892857D01*
X72985714Y-125978571D01*
X73028571Y-126021428D01*
X73114285Y-126064285D01*
X73285714Y-126064285D01*
X73371428Y-126021428D01*
X73414285Y-125978571D01*
X73457142Y-125892857D01*
X82100000Y-113321428D02*
X82057142Y-113364285D01*
X81928571Y-113407142D01*
X81842857Y-113407142D01*
X81714285Y-113364285D01*
X81628571Y-113278571D01*
X81585714Y-113192857D01*
X81542857Y-113021428D01*
X81542857Y-112892857D01*
X81585714Y-112721428D01*
X81628571Y-112635714D01*
X81714285Y-112550000D01*
X81842857Y-112507142D01*
X81928571Y-112507142D01*
X82057142Y-112550000D01*
X82100000Y-112592857D01*
X82957142Y-113407142D02*
X82442857Y-113407142D01*
X82700000Y-113407142D02*
X82700000Y-112507142D01*
X82614285Y-112635714D01*
X82528571Y-112721428D01*
X82442857Y-112764285D01*
X143585714Y-117657142D02*
X143585714Y-116757142D01*
X143800000Y-116757142D01*
X143928571Y-116800000D01*
X144014285Y-116885714D01*
X144057142Y-116971428D01*
X144100000Y-117142857D01*
X144100000Y-117271428D01*
X144057142Y-117442857D01*
X144014285Y-117528571D01*
X143928571Y-117614285D01*
X143800000Y-117657142D01*
X143585714Y-117657142D01*
X144871428Y-117057142D02*
X144871428Y-117657142D01*
X144657142Y-116714285D02*
X144442857Y-117357142D01*
X145000000Y-117357142D01*
X66835714Y-120157142D02*
X66835714Y-119257142D01*
X67050000Y-119257142D01*
X67178571Y-119300000D01*
X67264285Y-119385714D01*
X67307142Y-119471428D01*
X67350000Y-119642857D01*
X67350000Y-119771428D01*
X67307142Y-119942857D01*
X67264285Y-120028571D01*
X67178571Y-120114285D01*
X67050000Y-120157142D01*
X66835714Y-120157142D01*
X68164285Y-119257142D02*
X67735714Y-119257142D01*
X67692857Y-119685714D01*
X67735714Y-119642857D01*
X67821428Y-119600000D01*
X68035714Y-119600000D01*
X68121428Y-119642857D01*
X68164285Y-119685714D01*
X68207142Y-119771428D01*
X68207142Y-119985714D01*
X68164285Y-120071428D01*
X68121428Y-120114285D01*
X68035714Y-120157142D01*
X67821428Y-120157142D01*
X67735714Y-120114285D01*
X67692857Y-120071428D01*
X99335714Y-112907142D02*
X99335714Y-112007142D01*
X99550000Y-112007142D01*
X99678571Y-112050000D01*
X99764285Y-112135714D01*
X99807142Y-112221428D01*
X99850000Y-112392857D01*
X99850000Y-112521428D01*
X99807142Y-112692857D01*
X99764285Y-112778571D01*
X99678571Y-112864285D01*
X99550000Y-112907142D01*
X99335714Y-112907142D01*
X100150000Y-112007142D02*
X100707142Y-112007142D01*
X100407142Y-112350000D01*
X100535714Y-112350000D01*
X100621428Y-112392857D01*
X100664285Y-112435714D01*
X100707142Y-112521428D01*
X100707142Y-112735714D01*
X100664285Y-112821428D01*
X100621428Y-112864285D01*
X100535714Y-112907142D01*
X100278571Y-112907142D01*
X100192857Y-112864285D01*
X100150000Y-112821428D01*
X99335714Y-119907142D02*
X99335714Y-119007142D01*
X99550000Y-119007142D01*
X99678571Y-119050000D01*
X99764285Y-119135714D01*
X99807142Y-119221428D01*
X99850000Y-119392857D01*
X99850000Y-119521428D01*
X99807142Y-119692857D01*
X99764285Y-119778571D01*
X99678571Y-119864285D01*
X99550000Y-119907142D01*
X99335714Y-119907142D01*
X100192857Y-119092857D02*
X100235714Y-119050000D01*
X100321428Y-119007142D01*
X100535714Y-119007142D01*
X100621428Y-119050000D01*
X100664285Y-119092857D01*
X100707142Y-119178571D01*
X100707142Y-119264285D01*
X100664285Y-119392857D01*
X100150000Y-119907142D01*
X100707142Y-119907142D01*
X84314285Y-105007142D02*
X84314285Y-105735714D01*
X84357142Y-105821428D01*
X84400000Y-105864285D01*
X84485714Y-105907142D01*
X84657142Y-105907142D01*
X84742857Y-105864285D01*
X84785714Y-105821428D01*
X84828571Y-105735714D01*
X84828571Y-105007142D01*
X85728571Y-105907142D02*
X85214285Y-105907142D01*
X85471428Y-105907142D02*
X85471428Y-105007142D01*
X85385714Y-105135714D01*
X85300000Y-105221428D01*
X85214285Y-105264285D01*
X77085714Y-103407142D02*
X77085714Y-102507142D01*
X77300000Y-102507142D01*
X77428571Y-102550000D01*
X77514285Y-102635714D01*
X77557142Y-102721428D01*
X77600000Y-102892857D01*
X77600000Y-103021428D01*
X77557142Y-103192857D01*
X77514285Y-103278571D01*
X77428571Y-103364285D01*
X77300000Y-103407142D01*
X77085714Y-103407142D01*
X78457142Y-103407142D02*
X77942857Y-103407142D01*
X78200000Y-103407142D02*
X78200000Y-102507142D01*
X78114285Y-102635714D01*
X78028571Y-102721428D01*
X77942857Y-102764285D01*
X145814285Y-113257142D02*
X145814285Y-113985714D01*
X145857142Y-114071428D01*
X145900000Y-114114285D01*
X145985714Y-114157142D01*
X146157142Y-114157142D01*
X146242857Y-114114285D01*
X146285714Y-114071428D01*
X146328571Y-113985714D01*
X146328571Y-113257142D01*
X146671428Y-113257142D02*
X147228571Y-113257142D01*
X146928571Y-113600000D01*
X147057142Y-113600000D01*
X147142857Y-113642857D01*
X147185714Y-113685714D01*
X147228571Y-113771428D01*
X147228571Y-113985714D01*
X147185714Y-114071428D01*
X147142857Y-114114285D01*
X147057142Y-114157142D01*
X146800000Y-114157142D01*
X146714285Y-114114285D01*
X146671428Y-114071428D01*
X124914285Y-133992857D02*
X124828571Y-133950000D01*
X124742857Y-133864285D01*
X124614285Y-133735714D01*
X124528571Y-133692857D01*
X124442857Y-133692857D01*
X124485714Y-133907142D02*
X124400000Y-133864285D01*
X124314285Y-133778571D01*
X124271428Y-133607142D01*
X124271428Y-133307142D01*
X124314285Y-133135714D01*
X124400000Y-133050000D01*
X124485714Y-133007142D01*
X124657142Y-133007142D01*
X124742857Y-133050000D01*
X124828571Y-133135714D01*
X124871428Y-133307142D01*
X124871428Y-133607142D01*
X124828571Y-133778571D01*
X124742857Y-133864285D01*
X124657142Y-133907142D01*
X124485714Y-133907142D01*
X125171428Y-133007142D02*
X125771428Y-133007142D01*
X125385714Y-133907142D01*
X109485714Y-140992857D02*
X109400000Y-140950000D01*
X109314285Y-140864285D01*
X109185714Y-140735714D01*
X109100000Y-140692857D01*
X109014285Y-140692857D01*
X109057142Y-140907142D02*
X108971428Y-140864285D01*
X108885714Y-140778571D01*
X108842857Y-140607142D01*
X108842857Y-140307142D01*
X108885714Y-140135714D01*
X108971428Y-140050000D01*
X109057142Y-140007142D01*
X109228571Y-140007142D01*
X109314285Y-140050000D01*
X109400000Y-140135714D01*
X109442857Y-140307142D01*
X109442857Y-140607142D01*
X109400000Y-140778571D01*
X109314285Y-140864285D01*
X109228571Y-140907142D01*
X109057142Y-140907142D01*
X110300000Y-140907142D02*
X109785714Y-140907142D01*
X110042857Y-140907142D02*
X110042857Y-140007142D01*
X109957142Y-140135714D01*
X109871428Y-140221428D01*
X109785714Y-140264285D01*
X111114285Y-140007142D02*
X110685714Y-140007142D01*
X110642857Y-140435714D01*
X110685714Y-140392857D01*
X110771428Y-140350000D01*
X110985714Y-140350000D01*
X111071428Y-140392857D01*
X111114285Y-140435714D01*
X111157142Y-140521428D01*
X111157142Y-140735714D01*
X111114285Y-140821428D01*
X111071428Y-140864285D01*
X110985714Y-140907142D01*
X110771428Y-140907142D01*
X110685714Y-140864285D01*
X110642857Y-140821428D01*
X139485714Y-141242857D02*
X139400000Y-141200000D01*
X139314285Y-141114285D01*
X139185714Y-140985714D01*
X139100000Y-140942857D01*
X139014285Y-140942857D01*
X139057142Y-141157142D02*
X138971428Y-141114285D01*
X138885714Y-141028571D01*
X138842857Y-140857142D01*
X138842857Y-140557142D01*
X138885714Y-140385714D01*
X138971428Y-140300000D01*
X139057142Y-140257142D01*
X139228571Y-140257142D01*
X139314285Y-140300000D01*
X139400000Y-140385714D01*
X139442857Y-140557142D01*
X139442857Y-140857142D01*
X139400000Y-141028571D01*
X139314285Y-141114285D01*
X139228571Y-141157142D01*
X139057142Y-141157142D01*
X140300000Y-141157142D02*
X139785714Y-141157142D01*
X140042857Y-141157142D02*
X140042857Y-140257142D01*
X139957142Y-140385714D01*
X139871428Y-140471428D01*
X139785714Y-140514285D01*
X141071428Y-140557142D02*
X141071428Y-141157142D01*
X140857142Y-140214285D02*
X140642857Y-140857142D01*
X141200000Y-140857142D01*
X87735714Y-123992857D02*
X87650000Y-123950000D01*
X87564285Y-123864285D01*
X87435714Y-123735714D01*
X87350000Y-123692857D01*
X87264285Y-123692857D01*
X87307142Y-123907142D02*
X87221428Y-123864285D01*
X87135714Y-123778571D01*
X87092857Y-123607142D01*
X87092857Y-123307142D01*
X87135714Y-123135714D01*
X87221428Y-123050000D01*
X87307142Y-123007142D01*
X87478571Y-123007142D01*
X87564285Y-123050000D01*
X87650000Y-123135714D01*
X87692857Y-123307142D01*
X87692857Y-123607142D01*
X87650000Y-123778571D01*
X87564285Y-123864285D01*
X87478571Y-123907142D01*
X87307142Y-123907142D01*
X88550000Y-123907142D02*
X88035714Y-123907142D01*
X88292857Y-123907142D02*
X88292857Y-123007142D01*
X88207142Y-123135714D01*
X88121428Y-123221428D01*
X88035714Y-123264285D01*
X88850000Y-123007142D02*
X89407142Y-123007142D01*
X89107142Y-123350000D01*
X89235714Y-123350000D01*
X89321428Y-123392857D01*
X89364285Y-123435714D01*
X89407142Y-123521428D01*
X89407142Y-123735714D01*
X89364285Y-123821428D01*
X89321428Y-123864285D01*
X89235714Y-123907142D01*
X88978571Y-123907142D01*
X88892857Y-123864285D01*
X88850000Y-123821428D01*
X131985714Y-133992857D02*
X131900000Y-133950000D01*
X131814285Y-133864285D01*
X131685714Y-133735714D01*
X131600000Y-133692857D01*
X131514285Y-133692857D01*
X131557142Y-133907142D02*
X131471428Y-133864285D01*
X131385714Y-133778571D01*
X131342857Y-133607142D01*
X131342857Y-133307142D01*
X131385714Y-133135714D01*
X131471428Y-133050000D01*
X131557142Y-133007142D01*
X131728571Y-133007142D01*
X131814285Y-133050000D01*
X131900000Y-133135714D01*
X131942857Y-133307142D01*
X131942857Y-133607142D01*
X131900000Y-133778571D01*
X131814285Y-133864285D01*
X131728571Y-133907142D01*
X131557142Y-133907142D01*
X132800000Y-133907142D02*
X132285714Y-133907142D01*
X132542857Y-133907142D02*
X132542857Y-133007142D01*
X132457142Y-133135714D01*
X132371428Y-133221428D01*
X132285714Y-133264285D01*
X133142857Y-133092857D02*
X133185714Y-133050000D01*
X133271428Y-133007142D01*
X133485714Y-133007142D01*
X133571428Y-133050000D01*
X133614285Y-133092857D01*
X133657142Y-133178571D01*
X133657142Y-133264285D01*
X133614285Y-133392857D01*
X133100000Y-133907142D01*
X133657142Y-133907142D01*
X101985714Y-133992857D02*
X101900000Y-133950000D01*
X101814285Y-133864285D01*
X101685714Y-133735714D01*
X101600000Y-133692857D01*
X101514285Y-133692857D01*
X101557142Y-133907142D02*
X101471428Y-133864285D01*
X101385714Y-133778571D01*
X101342857Y-133607142D01*
X101342857Y-133307142D01*
X101385714Y-133135714D01*
X101471428Y-133050000D01*
X101557142Y-133007142D01*
X101728571Y-133007142D01*
X101814285Y-133050000D01*
X101900000Y-133135714D01*
X101942857Y-133307142D01*
X101942857Y-133607142D01*
X101900000Y-133778571D01*
X101814285Y-133864285D01*
X101728571Y-133907142D01*
X101557142Y-133907142D01*
X102800000Y-133907142D02*
X102285714Y-133907142D01*
X102542857Y-133907142D02*
X102542857Y-133007142D01*
X102457142Y-133135714D01*
X102371428Y-133221428D01*
X102285714Y-133264285D01*
X103657142Y-133907142D02*
X103142857Y-133907142D01*
X103400000Y-133907142D02*
X103400000Y-133007142D01*
X103314285Y-133135714D01*
X103228571Y-133221428D01*
X103142857Y-133264285D01*
X131985714Y-140992857D02*
X131900000Y-140950000D01*
X131814285Y-140864285D01*
X131685714Y-140735714D01*
X131600000Y-140692857D01*
X131514285Y-140692857D01*
X131557142Y-140907142D02*
X131471428Y-140864285D01*
X131385714Y-140778571D01*
X131342857Y-140607142D01*
X131342857Y-140307142D01*
X131385714Y-140135714D01*
X131471428Y-140050000D01*
X131557142Y-140007142D01*
X131728571Y-140007142D01*
X131814285Y-140050000D01*
X131900000Y-140135714D01*
X131942857Y-140307142D01*
X131942857Y-140607142D01*
X131900000Y-140778571D01*
X131814285Y-140864285D01*
X131728571Y-140907142D01*
X131557142Y-140907142D01*
X132800000Y-140907142D02*
X132285714Y-140907142D01*
X132542857Y-140907142D02*
X132542857Y-140007142D01*
X132457142Y-140135714D01*
X132371428Y-140221428D01*
X132285714Y-140264285D01*
X133357142Y-140007142D02*
X133442857Y-140007142D01*
X133528571Y-140050000D01*
X133571428Y-140092857D01*
X133614285Y-140178571D01*
X133657142Y-140350000D01*
X133657142Y-140564285D01*
X133614285Y-140735714D01*
X133571428Y-140821428D01*
X133528571Y-140864285D01*
X133442857Y-140907142D01*
X133357142Y-140907142D01*
X133271428Y-140864285D01*
X133228571Y-140821428D01*
X133185714Y-140735714D01*
X133142857Y-140564285D01*
X133142857Y-140350000D01*
X133185714Y-140178571D01*
X133228571Y-140092857D01*
X133271428Y-140050000D01*
X133357142Y-140007142D01*
X101914285Y-140992857D02*
X101828571Y-140950000D01*
X101742857Y-140864285D01*
X101614285Y-140735714D01*
X101528571Y-140692857D01*
X101442857Y-140692857D01*
X101485714Y-140907142D02*
X101400000Y-140864285D01*
X101314285Y-140778571D01*
X101271428Y-140607142D01*
X101271428Y-140307142D01*
X101314285Y-140135714D01*
X101400000Y-140050000D01*
X101485714Y-140007142D01*
X101657142Y-140007142D01*
X101742857Y-140050000D01*
X101828571Y-140135714D01*
X101871428Y-140307142D01*
X101871428Y-140607142D01*
X101828571Y-140778571D01*
X101742857Y-140864285D01*
X101657142Y-140907142D01*
X101485714Y-140907142D01*
X102300000Y-140907142D02*
X102471428Y-140907142D01*
X102557142Y-140864285D01*
X102600000Y-140821428D01*
X102685714Y-140692857D01*
X102728571Y-140521428D01*
X102728571Y-140178571D01*
X102685714Y-140092857D01*
X102642857Y-140050000D01*
X102557142Y-140007142D01*
X102385714Y-140007142D01*
X102300000Y-140050000D01*
X102257142Y-140092857D01*
X102214285Y-140178571D01*
X102214285Y-140392857D01*
X102257142Y-140478571D01*
X102300000Y-140521428D01*
X102385714Y-140564285D01*
X102557142Y-140564285D01*
X102642857Y-140521428D01*
X102685714Y-140478571D01*
X102728571Y-140392857D01*
X94414285Y-133992857D02*
X94328571Y-133950000D01*
X94242857Y-133864285D01*
X94114285Y-133735714D01*
X94028571Y-133692857D01*
X93942857Y-133692857D01*
X93985714Y-133907142D02*
X93900000Y-133864285D01*
X93814285Y-133778571D01*
X93771428Y-133607142D01*
X93771428Y-133307142D01*
X93814285Y-133135714D01*
X93900000Y-133050000D01*
X93985714Y-133007142D01*
X94157142Y-133007142D01*
X94242857Y-133050000D01*
X94328571Y-133135714D01*
X94371428Y-133307142D01*
X94371428Y-133607142D01*
X94328571Y-133778571D01*
X94242857Y-133864285D01*
X94157142Y-133907142D01*
X93985714Y-133907142D01*
X94885714Y-133392857D02*
X94800000Y-133350000D01*
X94757142Y-133307142D01*
X94714285Y-133221428D01*
X94714285Y-133178571D01*
X94757142Y-133092857D01*
X94800000Y-133050000D01*
X94885714Y-133007142D01*
X95057142Y-133007142D01*
X95142857Y-133050000D01*
X95185714Y-133092857D01*
X95228571Y-133178571D01*
X95228571Y-133221428D01*
X95185714Y-133307142D01*
X95142857Y-133350000D01*
X95057142Y-133392857D01*
X94885714Y-133392857D01*
X94800000Y-133435714D01*
X94757142Y-133478571D01*
X94714285Y-133564285D01*
X94714285Y-133735714D01*
X94757142Y-133821428D01*
X94800000Y-133864285D01*
X94885714Y-133907142D01*
X95057142Y-133907142D01*
X95142857Y-133864285D01*
X95185714Y-133821428D01*
X95228571Y-133735714D01*
X95228571Y-133564285D01*
X95185714Y-133478571D01*
X95142857Y-133435714D01*
X95057142Y-133392857D01*
X94414285Y-140992857D02*
X94328571Y-140950000D01*
X94242857Y-140864285D01*
X94114285Y-140735714D01*
X94028571Y-140692857D01*
X93942857Y-140692857D01*
X93985714Y-140907142D02*
X93900000Y-140864285D01*
X93814285Y-140778571D01*
X93771428Y-140607142D01*
X93771428Y-140307142D01*
X93814285Y-140135714D01*
X93900000Y-140050000D01*
X93985714Y-140007142D01*
X94157142Y-140007142D01*
X94242857Y-140050000D01*
X94328571Y-140135714D01*
X94371428Y-140307142D01*
X94371428Y-140607142D01*
X94328571Y-140778571D01*
X94242857Y-140864285D01*
X94157142Y-140907142D01*
X93985714Y-140907142D01*
X95142857Y-140007142D02*
X94971428Y-140007142D01*
X94885714Y-140050000D01*
X94842857Y-140092857D01*
X94757142Y-140221428D01*
X94714285Y-140392857D01*
X94714285Y-140735714D01*
X94757142Y-140821428D01*
X94800000Y-140864285D01*
X94885714Y-140907142D01*
X95057142Y-140907142D01*
X95142857Y-140864285D01*
X95185714Y-140821428D01*
X95228571Y-140735714D01*
X95228571Y-140521428D01*
X95185714Y-140435714D01*
X95142857Y-140392857D01*
X95057142Y-140350000D01*
X94885714Y-140350000D01*
X94800000Y-140392857D01*
X94757142Y-140435714D01*
X94714285Y-140521428D01*
X124914285Y-140992857D02*
X124828571Y-140950000D01*
X124742857Y-140864285D01*
X124614285Y-140735714D01*
X124528571Y-140692857D01*
X124442857Y-140692857D01*
X124485714Y-140907142D02*
X124400000Y-140864285D01*
X124314285Y-140778571D01*
X124271428Y-140607142D01*
X124271428Y-140307142D01*
X124314285Y-140135714D01*
X124400000Y-140050000D01*
X124485714Y-140007142D01*
X124657142Y-140007142D01*
X124742857Y-140050000D01*
X124828571Y-140135714D01*
X124871428Y-140307142D01*
X124871428Y-140607142D01*
X124828571Y-140778571D01*
X124742857Y-140864285D01*
X124657142Y-140907142D01*
X124485714Y-140907142D01*
X125685714Y-140007142D02*
X125257142Y-140007142D01*
X125214285Y-140435714D01*
X125257142Y-140392857D01*
X125342857Y-140350000D01*
X125557142Y-140350000D01*
X125642857Y-140392857D01*
X125685714Y-140435714D01*
X125728571Y-140521428D01*
X125728571Y-140735714D01*
X125685714Y-140821428D01*
X125642857Y-140864285D01*
X125557142Y-140907142D01*
X125342857Y-140907142D01*
X125257142Y-140864285D01*
X125214285Y-140821428D01*
X116914285Y-133992857D02*
X116828571Y-133950000D01*
X116742857Y-133864285D01*
X116614285Y-133735714D01*
X116528571Y-133692857D01*
X116442857Y-133692857D01*
X116485714Y-133907142D02*
X116400000Y-133864285D01*
X116314285Y-133778571D01*
X116271428Y-133607142D01*
X116271428Y-133307142D01*
X116314285Y-133135714D01*
X116400000Y-133050000D01*
X116485714Y-133007142D01*
X116657142Y-133007142D01*
X116742857Y-133050000D01*
X116828571Y-133135714D01*
X116871428Y-133307142D01*
X116871428Y-133607142D01*
X116828571Y-133778571D01*
X116742857Y-133864285D01*
X116657142Y-133907142D01*
X116485714Y-133907142D01*
X117642857Y-133307142D02*
X117642857Y-133907142D01*
X117428571Y-132964285D02*
X117214285Y-133607142D01*
X117771428Y-133607142D01*
X86914285Y-133992857D02*
X86828571Y-133950000D01*
X86742857Y-133864285D01*
X86614285Y-133735714D01*
X86528571Y-133692857D01*
X86442857Y-133692857D01*
X86485714Y-133907142D02*
X86400000Y-133864285D01*
X86314285Y-133778571D01*
X86271428Y-133607142D01*
X86271428Y-133307142D01*
X86314285Y-133135714D01*
X86400000Y-133050000D01*
X86485714Y-133007142D01*
X86657142Y-133007142D01*
X86742857Y-133050000D01*
X86828571Y-133135714D01*
X86871428Y-133307142D01*
X86871428Y-133607142D01*
X86828571Y-133778571D01*
X86742857Y-133864285D01*
X86657142Y-133907142D01*
X86485714Y-133907142D01*
X87171428Y-133007142D02*
X87728571Y-133007142D01*
X87428571Y-133350000D01*
X87557142Y-133350000D01*
X87642857Y-133392857D01*
X87685714Y-133435714D01*
X87728571Y-133521428D01*
X87728571Y-133735714D01*
X87685714Y-133821428D01*
X87642857Y-133864285D01*
X87557142Y-133907142D01*
X87300000Y-133907142D01*
X87214285Y-133864285D01*
X87171428Y-133821428D01*
X116914285Y-140992857D02*
X116828571Y-140950000D01*
X116742857Y-140864285D01*
X116614285Y-140735714D01*
X116528571Y-140692857D01*
X116442857Y-140692857D01*
X116485714Y-140907142D02*
X116400000Y-140864285D01*
X116314285Y-140778571D01*
X116271428Y-140607142D01*
X116271428Y-140307142D01*
X116314285Y-140135714D01*
X116400000Y-140050000D01*
X116485714Y-140007142D01*
X116657142Y-140007142D01*
X116742857Y-140050000D01*
X116828571Y-140135714D01*
X116871428Y-140307142D01*
X116871428Y-140607142D01*
X116828571Y-140778571D01*
X116742857Y-140864285D01*
X116657142Y-140907142D01*
X116485714Y-140907142D01*
X117214285Y-140092857D02*
X117257142Y-140050000D01*
X117342857Y-140007142D01*
X117557142Y-140007142D01*
X117642857Y-140050000D01*
X117685714Y-140092857D01*
X117728571Y-140178571D01*
X117728571Y-140264285D01*
X117685714Y-140392857D01*
X117171428Y-140907142D01*
X117728571Y-140907142D01*
X86914285Y-140992857D02*
X86828571Y-140950000D01*
X86742857Y-140864285D01*
X86614285Y-140735714D01*
X86528571Y-140692857D01*
X86442857Y-140692857D01*
X86485714Y-140907142D02*
X86400000Y-140864285D01*
X86314285Y-140778571D01*
X86271428Y-140607142D01*
X86271428Y-140307142D01*
X86314285Y-140135714D01*
X86400000Y-140050000D01*
X86485714Y-140007142D01*
X86657142Y-140007142D01*
X86742857Y-140050000D01*
X86828571Y-140135714D01*
X86871428Y-140307142D01*
X86871428Y-140607142D01*
X86828571Y-140778571D01*
X86742857Y-140864285D01*
X86657142Y-140907142D01*
X86485714Y-140907142D01*
X87728571Y-140907142D02*
X87214285Y-140907142D01*
X87471428Y-140907142D02*
X87471428Y-140007142D01*
X87385714Y-140135714D01*
X87300000Y-140221428D01*
X87214285Y-140264285D01*
X76235714Y-124242857D02*
X76150000Y-124200000D01*
X76064285Y-124114285D01*
X75935714Y-123985714D01*
X75850000Y-123942857D01*
X75764285Y-123942857D01*
X75807142Y-124157142D02*
X75721428Y-124114285D01*
X75635714Y-124028571D01*
X75592857Y-123857142D01*
X75592857Y-123557142D01*
X75635714Y-123385714D01*
X75721428Y-123300000D01*
X75807142Y-123257142D01*
X75978571Y-123257142D01*
X76064285Y-123300000D01*
X76150000Y-123385714D01*
X76192857Y-123557142D01*
X76192857Y-123857142D01*
X76150000Y-124028571D01*
X76064285Y-124114285D01*
X75978571Y-124157142D01*
X75807142Y-124157142D01*
X77050000Y-124157142D02*
X76535714Y-124157142D01*
X76792857Y-124157142D02*
X76792857Y-123257142D01*
X76707142Y-123385714D01*
X76621428Y-123471428D01*
X76535714Y-123514285D01*
X77821428Y-123257142D02*
X77650000Y-123257142D01*
X77564285Y-123300000D01*
X77521428Y-123342857D01*
X77435714Y-123471428D01*
X77392857Y-123642857D01*
X77392857Y-123985714D01*
X77435714Y-124071428D01*
X77478571Y-124114285D01*
X77564285Y-124157142D01*
X77735714Y-124157142D01*
X77821428Y-124114285D01*
X77864285Y-124071428D01*
X77907142Y-123985714D01*
X77907142Y-123771428D01*
X77864285Y-123685714D01*
X77821428Y-123642857D01*
X77735714Y-123600000D01*
X77564285Y-123600000D01*
X77478571Y-123642857D01*
X77435714Y-123685714D01*
X77392857Y-123771428D01*
X139485714Y-133992857D02*
X139400000Y-133950000D01*
X139314285Y-133864285D01*
X139185714Y-133735714D01*
X139100000Y-133692857D01*
X139014285Y-133692857D01*
X139057142Y-133907142D02*
X138971428Y-133864285D01*
X138885714Y-133778571D01*
X138842857Y-133607142D01*
X138842857Y-133307142D01*
X138885714Y-133135714D01*
X138971428Y-133050000D01*
X139057142Y-133007142D01*
X139228571Y-133007142D01*
X139314285Y-133050000D01*
X139400000Y-133135714D01*
X139442857Y-133307142D01*
X139442857Y-133607142D01*
X139400000Y-133778571D01*
X139314285Y-133864285D01*
X139228571Y-133907142D01*
X139057142Y-133907142D01*
X140300000Y-133907142D02*
X139785714Y-133907142D01*
X140042857Y-133907142D02*
X140042857Y-133007142D01*
X139957142Y-133135714D01*
X139871428Y-133221428D01*
X139785714Y-133264285D01*
X140600000Y-133007142D02*
X141200000Y-133007142D01*
X140814285Y-133907142D01*
X109485714Y-133992857D02*
X109400000Y-133950000D01*
X109314285Y-133864285D01*
X109185714Y-133735714D01*
X109100000Y-133692857D01*
X109014285Y-133692857D01*
X109057142Y-133907142D02*
X108971428Y-133864285D01*
X108885714Y-133778571D01*
X108842857Y-133607142D01*
X108842857Y-133307142D01*
X108885714Y-133135714D01*
X108971428Y-133050000D01*
X109057142Y-133007142D01*
X109228571Y-133007142D01*
X109314285Y-133050000D01*
X109400000Y-133135714D01*
X109442857Y-133307142D01*
X109442857Y-133607142D01*
X109400000Y-133778571D01*
X109314285Y-133864285D01*
X109228571Y-133907142D01*
X109057142Y-133907142D01*
X110300000Y-133907142D02*
X109785714Y-133907142D01*
X110042857Y-133907142D02*
X110042857Y-133007142D01*
X109957142Y-133135714D01*
X109871428Y-133221428D01*
X109785714Y-133264285D01*
X110814285Y-133392857D02*
X110728571Y-133350000D01*
X110685714Y-133307142D01*
X110642857Y-133221428D01*
X110642857Y-133178571D01*
X110685714Y-133092857D01*
X110728571Y-133050000D01*
X110814285Y-133007142D01*
X110985714Y-133007142D01*
X111071428Y-133050000D01*
X111114285Y-133092857D01*
X111157142Y-133178571D01*
X111157142Y-133221428D01*
X111114285Y-133307142D01*
X111071428Y-133350000D01*
X110985714Y-133392857D01*
X110814285Y-133392857D01*
X110728571Y-133435714D01*
X110685714Y-133478571D01*
X110642857Y-133564285D01*
X110642857Y-133735714D01*
X110685714Y-133821428D01*
X110728571Y-133864285D01*
X110814285Y-133907142D01*
X110985714Y-133907142D01*
X111071428Y-133864285D01*
X111114285Y-133821428D01*
X111157142Y-133735714D01*
X111157142Y-133564285D01*
X111114285Y-133478571D01*
X111071428Y-133435714D01*
X110985714Y-133392857D01*
X101921428Y-137407142D02*
X101621428Y-136978571D01*
X101407142Y-137407142D02*
X101407142Y-136507142D01*
X101750000Y-136507142D01*
X101835714Y-136550000D01*
X101878571Y-136592857D01*
X101921428Y-136678571D01*
X101921428Y-136807142D01*
X101878571Y-136892857D01*
X101835714Y-136935714D01*
X101750000Y-136978571D01*
X101407142Y-136978571D01*
X102778571Y-137407142D02*
X102264285Y-137407142D01*
X102521428Y-137407142D02*
X102521428Y-136507142D01*
X102435714Y-136635714D01*
X102350000Y-136721428D01*
X102264285Y-136764285D01*
X103550000Y-136807142D02*
X103550000Y-137407142D01*
X103335714Y-136464285D02*
X103121428Y-137107142D01*
X103678571Y-137107142D01*
X94421428Y-130407142D02*
X94121428Y-129978571D01*
X93907142Y-130407142D02*
X93907142Y-129507142D01*
X94250000Y-129507142D01*
X94335714Y-129550000D01*
X94378571Y-129592857D01*
X94421428Y-129678571D01*
X94421428Y-129807142D01*
X94378571Y-129892857D01*
X94335714Y-129935714D01*
X94250000Y-129978571D01*
X93907142Y-129978571D01*
X95278571Y-130407142D02*
X94764285Y-130407142D01*
X95021428Y-130407142D02*
X95021428Y-129507142D01*
X94935714Y-129635714D01*
X94850000Y-129721428D01*
X94764285Y-129764285D01*
X96135714Y-130407142D02*
X95621428Y-130407142D01*
X95878571Y-130407142D02*
X95878571Y-129507142D01*
X95792857Y-129635714D01*
X95707142Y-129721428D01*
X95621428Y-129764285D01*
X124421428Y-130407142D02*
X124121428Y-129978571D01*
X123907142Y-130407142D02*
X123907142Y-129507142D01*
X124250000Y-129507142D01*
X124335714Y-129550000D01*
X124378571Y-129592857D01*
X124421428Y-129678571D01*
X124421428Y-129807142D01*
X124378571Y-129892857D01*
X124335714Y-129935714D01*
X124250000Y-129978571D01*
X123907142Y-129978571D01*
X125278571Y-130407142D02*
X124764285Y-130407142D01*
X125021428Y-130407142D02*
X125021428Y-129507142D01*
X124935714Y-129635714D01*
X124850000Y-129721428D01*
X124764285Y-129764285D01*
X125835714Y-129507142D02*
X125921428Y-129507142D01*
X126007142Y-129550000D01*
X126050000Y-129592857D01*
X126092857Y-129678571D01*
X126135714Y-129850000D01*
X126135714Y-130064285D01*
X126092857Y-130235714D01*
X126050000Y-130321428D01*
X126007142Y-130364285D01*
X125921428Y-130407142D01*
X125835714Y-130407142D01*
X125750000Y-130364285D01*
X125707142Y-130321428D01*
X125664285Y-130235714D01*
X125621428Y-130064285D01*
X125621428Y-129850000D01*
X125664285Y-129678571D01*
X125707142Y-129592857D01*
X125750000Y-129550000D01*
X125835714Y-129507142D01*
X94350000Y-137407142D02*
X94050000Y-136978571D01*
X93835714Y-137407142D02*
X93835714Y-136507142D01*
X94178571Y-136507142D01*
X94264285Y-136550000D01*
X94307142Y-136592857D01*
X94350000Y-136678571D01*
X94350000Y-136807142D01*
X94307142Y-136892857D01*
X94264285Y-136935714D01*
X94178571Y-136978571D01*
X93835714Y-136978571D01*
X94778571Y-137407142D02*
X94950000Y-137407142D01*
X95035714Y-137364285D01*
X95078571Y-137321428D01*
X95164285Y-137192857D01*
X95207142Y-137021428D01*
X95207142Y-136678571D01*
X95164285Y-136592857D01*
X95121428Y-136550000D01*
X95035714Y-136507142D01*
X94864285Y-136507142D01*
X94778571Y-136550000D01*
X94735714Y-136592857D01*
X94692857Y-136678571D01*
X94692857Y-136892857D01*
X94735714Y-136978571D01*
X94778571Y-137021428D01*
X94864285Y-137064285D01*
X95035714Y-137064285D01*
X95121428Y-137021428D01*
X95164285Y-136978571D01*
X95207142Y-136892857D01*
X124850000Y-137407142D02*
X124550000Y-136978571D01*
X124335714Y-137407142D02*
X124335714Y-136507142D01*
X124678571Y-136507142D01*
X124764285Y-136550000D01*
X124807142Y-136592857D01*
X124850000Y-136678571D01*
X124850000Y-136807142D01*
X124807142Y-136892857D01*
X124764285Y-136935714D01*
X124678571Y-136978571D01*
X124335714Y-136978571D01*
X125364285Y-136892857D02*
X125278571Y-136850000D01*
X125235714Y-136807142D01*
X125192857Y-136721428D01*
X125192857Y-136678571D01*
X125235714Y-136592857D01*
X125278571Y-136550000D01*
X125364285Y-136507142D01*
X125535714Y-136507142D01*
X125621428Y-136550000D01*
X125664285Y-136592857D01*
X125707142Y-136678571D01*
X125707142Y-136721428D01*
X125664285Y-136807142D01*
X125621428Y-136850000D01*
X125535714Y-136892857D01*
X125364285Y-136892857D01*
X125278571Y-136935714D01*
X125235714Y-136978571D01*
X125192857Y-137064285D01*
X125192857Y-137235714D01*
X125235714Y-137321428D01*
X125278571Y-137364285D01*
X125364285Y-137407142D01*
X125535714Y-137407142D01*
X125621428Y-137364285D01*
X125664285Y-137321428D01*
X125707142Y-137235714D01*
X125707142Y-137064285D01*
X125664285Y-136978571D01*
X125621428Y-136935714D01*
X125535714Y-136892857D01*
X92600000Y-116907142D02*
X92300000Y-116478571D01*
X92085714Y-116907142D02*
X92085714Y-116007142D01*
X92428571Y-116007142D01*
X92514285Y-116050000D01*
X92557142Y-116092857D01*
X92600000Y-116178571D01*
X92600000Y-116307142D01*
X92557142Y-116392857D01*
X92514285Y-116435714D01*
X92428571Y-116478571D01*
X92085714Y-116478571D01*
X92900000Y-116007142D02*
X93500000Y-116007142D01*
X93114285Y-116907142D01*
X82100000Y-116907142D02*
X81800000Y-116478571D01*
X81585714Y-116907142D02*
X81585714Y-116007142D01*
X81928571Y-116007142D01*
X82014285Y-116050000D01*
X82057142Y-116092857D01*
X82100000Y-116178571D01*
X82100000Y-116307142D01*
X82057142Y-116392857D01*
X82014285Y-116435714D01*
X81928571Y-116478571D01*
X81585714Y-116478571D01*
X82871428Y-116007142D02*
X82700000Y-116007142D01*
X82614285Y-116050000D01*
X82571428Y-116092857D01*
X82485714Y-116221428D01*
X82442857Y-116392857D01*
X82442857Y-116735714D01*
X82485714Y-116821428D01*
X82528571Y-116864285D01*
X82614285Y-116907142D01*
X82785714Y-116907142D01*
X82871428Y-116864285D01*
X82914285Y-116821428D01*
X82957142Y-116735714D01*
X82957142Y-116521428D01*
X82914285Y-116435714D01*
X82871428Y-116392857D01*
X82785714Y-116350000D01*
X82614285Y-116350000D01*
X82528571Y-116392857D01*
X82485714Y-116435714D01*
X82442857Y-116521428D01*
X116850000Y-130407142D02*
X116550000Y-129978571D01*
X116335714Y-130407142D02*
X116335714Y-129507142D01*
X116678571Y-129507142D01*
X116764285Y-129550000D01*
X116807142Y-129592857D01*
X116850000Y-129678571D01*
X116850000Y-129807142D01*
X116807142Y-129892857D01*
X116764285Y-129935714D01*
X116678571Y-129978571D01*
X116335714Y-129978571D01*
X117664285Y-129507142D02*
X117235714Y-129507142D01*
X117192857Y-129935714D01*
X117235714Y-129892857D01*
X117321428Y-129850000D01*
X117535714Y-129850000D01*
X117621428Y-129892857D01*
X117664285Y-129935714D01*
X117707142Y-130021428D01*
X117707142Y-130235714D01*
X117664285Y-130321428D01*
X117621428Y-130364285D01*
X117535714Y-130407142D01*
X117321428Y-130407142D01*
X117235714Y-130364285D01*
X117192857Y-130321428D01*
X86850000Y-130407142D02*
X86550000Y-129978571D01*
X86335714Y-130407142D02*
X86335714Y-129507142D01*
X86678571Y-129507142D01*
X86764285Y-129550000D01*
X86807142Y-129592857D01*
X86850000Y-129678571D01*
X86850000Y-129807142D01*
X86807142Y-129892857D01*
X86764285Y-129935714D01*
X86678571Y-129978571D01*
X86335714Y-129978571D01*
X87621428Y-129807142D02*
X87621428Y-130407142D01*
X87407142Y-129464285D02*
X87192857Y-130107142D01*
X87750000Y-130107142D01*
X116850000Y-137407142D02*
X116550000Y-136978571D01*
X116335714Y-137407142D02*
X116335714Y-136507142D01*
X116678571Y-136507142D01*
X116764285Y-136550000D01*
X116807142Y-136592857D01*
X116850000Y-136678571D01*
X116850000Y-136807142D01*
X116807142Y-136892857D01*
X116764285Y-136935714D01*
X116678571Y-136978571D01*
X116335714Y-136978571D01*
X117150000Y-136507142D02*
X117707142Y-136507142D01*
X117407142Y-136850000D01*
X117535714Y-136850000D01*
X117621428Y-136892857D01*
X117664285Y-136935714D01*
X117707142Y-137021428D01*
X117707142Y-137235714D01*
X117664285Y-137321428D01*
X117621428Y-137364285D01*
X117535714Y-137407142D01*
X117278571Y-137407142D01*
X117192857Y-137364285D01*
X117150000Y-137321428D01*
X86850000Y-137407142D02*
X86550000Y-136978571D01*
X86335714Y-137407142D02*
X86335714Y-136507142D01*
X86678571Y-136507142D01*
X86764285Y-136550000D01*
X86807142Y-136592857D01*
X86850000Y-136678571D01*
X86850000Y-136807142D01*
X86807142Y-136892857D01*
X86764285Y-136935714D01*
X86678571Y-136978571D01*
X86335714Y-136978571D01*
X87192857Y-136592857D02*
X87235714Y-136550000D01*
X87321428Y-136507142D01*
X87535714Y-136507142D01*
X87621428Y-136550000D01*
X87664285Y-136592857D01*
X87707142Y-136678571D01*
X87707142Y-136764285D01*
X87664285Y-136892857D01*
X87150000Y-137407142D01*
X87707142Y-137407142D01*
X104671428Y-120157142D02*
X104371428Y-119728571D01*
X104157142Y-120157142D02*
X104157142Y-119257142D01*
X104500000Y-119257142D01*
X104585714Y-119300000D01*
X104628571Y-119342857D01*
X104671428Y-119428571D01*
X104671428Y-119557142D01*
X104628571Y-119642857D01*
X104585714Y-119685714D01*
X104500000Y-119728571D01*
X104157142Y-119728571D01*
X105528571Y-120157142D02*
X105014285Y-120157142D01*
X105271428Y-120157142D02*
X105271428Y-119257142D01*
X105185714Y-119385714D01*
X105100000Y-119471428D01*
X105014285Y-119514285D01*
X105871428Y-119342857D02*
X105914285Y-119300000D01*
X106000000Y-119257142D01*
X106214285Y-119257142D01*
X106300000Y-119300000D01*
X106342857Y-119342857D01*
X106385714Y-119428571D01*
X106385714Y-119514285D01*
X106342857Y-119642857D01*
X105828571Y-120157142D01*
X106385714Y-120157142D01*
X104421428Y-112907142D02*
X104121428Y-112478571D01*
X103907142Y-112907142D02*
X103907142Y-112007142D01*
X104250000Y-112007142D01*
X104335714Y-112050000D01*
X104378571Y-112092857D01*
X104421428Y-112178571D01*
X104421428Y-112307142D01*
X104378571Y-112392857D01*
X104335714Y-112435714D01*
X104250000Y-112478571D01*
X103907142Y-112478571D01*
X105278571Y-112907142D02*
X104764285Y-112907142D01*
X105021428Y-112907142D02*
X105021428Y-112007142D01*
X104935714Y-112135714D01*
X104850000Y-112221428D01*
X104764285Y-112264285D01*
X105578571Y-112007142D02*
X106135714Y-112007142D01*
X105835714Y-112350000D01*
X105964285Y-112350000D01*
X106050000Y-112392857D01*
X106092857Y-112435714D01*
X106135714Y-112521428D01*
X106135714Y-112735714D01*
X106092857Y-112821428D01*
X106050000Y-112864285D01*
X105964285Y-112907142D01*
X105707142Y-112907142D01*
X105621428Y-112864285D01*
X105578571Y-112821428D01*
X139421428Y-130407142D02*
X139121428Y-129978571D01*
X138907142Y-130407142D02*
X138907142Y-129507142D01*
X139250000Y-129507142D01*
X139335714Y-129550000D01*
X139378571Y-129592857D01*
X139421428Y-129678571D01*
X139421428Y-129807142D01*
X139378571Y-129892857D01*
X139335714Y-129935714D01*
X139250000Y-129978571D01*
X138907142Y-129978571D01*
X139764285Y-129592857D02*
X139807142Y-129550000D01*
X139892857Y-129507142D01*
X140107142Y-129507142D01*
X140192857Y-129550000D01*
X140235714Y-129592857D01*
X140278571Y-129678571D01*
X140278571Y-129764285D01*
X140235714Y-129892857D01*
X139721428Y-130407142D01*
X140278571Y-130407142D01*
X141050000Y-129807142D02*
X141050000Y-130407142D01*
X140835714Y-129464285D02*
X140621428Y-130107142D01*
X141178571Y-130107142D01*
X75921428Y-120157142D02*
X75621428Y-119728571D01*
X75407142Y-120157142D02*
X75407142Y-119257142D01*
X75750000Y-119257142D01*
X75835714Y-119300000D01*
X75878571Y-119342857D01*
X75921428Y-119428571D01*
X75921428Y-119557142D01*
X75878571Y-119642857D01*
X75835714Y-119685714D01*
X75750000Y-119728571D01*
X75407142Y-119728571D01*
X76264285Y-119342857D02*
X76307142Y-119300000D01*
X76392857Y-119257142D01*
X76607142Y-119257142D01*
X76692857Y-119300000D01*
X76735714Y-119342857D01*
X76778571Y-119428571D01*
X76778571Y-119514285D01*
X76735714Y-119642857D01*
X76221428Y-120157142D01*
X76778571Y-120157142D01*
X77078571Y-119257142D02*
X77635714Y-119257142D01*
X77335714Y-119600000D01*
X77464285Y-119600000D01*
X77550000Y-119642857D01*
X77592857Y-119685714D01*
X77635714Y-119771428D01*
X77635714Y-119985714D01*
X77592857Y-120071428D01*
X77550000Y-120114285D01*
X77464285Y-120157142D01*
X77207142Y-120157142D01*
X77121428Y-120114285D01*
X77078571Y-120071428D01*
X109421428Y-137407142D02*
X109121428Y-136978571D01*
X108907142Y-137407142D02*
X108907142Y-136507142D01*
X109250000Y-136507142D01*
X109335714Y-136550000D01*
X109378571Y-136592857D01*
X109421428Y-136678571D01*
X109421428Y-136807142D01*
X109378571Y-136892857D01*
X109335714Y-136935714D01*
X109250000Y-136978571D01*
X108907142Y-136978571D01*
X109764285Y-136592857D02*
X109807142Y-136550000D01*
X109892857Y-136507142D01*
X110107142Y-136507142D01*
X110192857Y-136550000D01*
X110235714Y-136592857D01*
X110278571Y-136678571D01*
X110278571Y-136764285D01*
X110235714Y-136892857D01*
X109721428Y-137407142D01*
X110278571Y-137407142D01*
X110621428Y-136592857D02*
X110664285Y-136550000D01*
X110750000Y-136507142D01*
X110964285Y-136507142D01*
X111050000Y-136550000D01*
X111092857Y-136592857D01*
X111135714Y-136678571D01*
X111135714Y-136764285D01*
X111092857Y-136892857D01*
X110578571Y-137407142D01*
X111135714Y-137407142D01*
X139421428Y-137407142D02*
X139121428Y-136978571D01*
X138907142Y-137407142D02*
X138907142Y-136507142D01*
X139250000Y-136507142D01*
X139335714Y-136550000D01*
X139378571Y-136592857D01*
X139421428Y-136678571D01*
X139421428Y-136807142D01*
X139378571Y-136892857D01*
X139335714Y-136935714D01*
X139250000Y-136978571D01*
X138907142Y-136978571D01*
X139764285Y-136592857D02*
X139807142Y-136550000D01*
X139892857Y-136507142D01*
X140107142Y-136507142D01*
X140192857Y-136550000D01*
X140235714Y-136592857D01*
X140278571Y-136678571D01*
X140278571Y-136764285D01*
X140235714Y-136892857D01*
X139721428Y-137407142D01*
X140278571Y-137407142D01*
X141135714Y-137407142D02*
X140621428Y-137407142D01*
X140878571Y-137407142D02*
X140878571Y-136507142D01*
X140792857Y-136635714D01*
X140707142Y-136721428D01*
X140621428Y-136764285D01*
X87671428Y-120157142D02*
X87371428Y-119728571D01*
X87157142Y-120157142D02*
X87157142Y-119257142D01*
X87500000Y-119257142D01*
X87585714Y-119300000D01*
X87628571Y-119342857D01*
X87671428Y-119428571D01*
X87671428Y-119557142D01*
X87628571Y-119642857D01*
X87585714Y-119685714D01*
X87500000Y-119728571D01*
X87157142Y-119728571D01*
X88014285Y-119342857D02*
X88057142Y-119300000D01*
X88142857Y-119257142D01*
X88357142Y-119257142D01*
X88442857Y-119300000D01*
X88485714Y-119342857D01*
X88528571Y-119428571D01*
X88528571Y-119514285D01*
X88485714Y-119642857D01*
X87971428Y-120157142D01*
X88528571Y-120157142D01*
X89085714Y-119257142D02*
X89171428Y-119257142D01*
X89257142Y-119300000D01*
X89300000Y-119342857D01*
X89342857Y-119428571D01*
X89385714Y-119600000D01*
X89385714Y-119814285D01*
X89342857Y-119985714D01*
X89300000Y-120071428D01*
X89257142Y-120114285D01*
X89171428Y-120157142D01*
X89085714Y-120157142D01*
X89000000Y-120114285D01*
X88957142Y-120071428D01*
X88914285Y-119985714D01*
X88871428Y-119814285D01*
X88871428Y-119600000D01*
X88914285Y-119428571D01*
X88957142Y-119342857D01*
X89000000Y-119300000D01*
X89085714Y-119257142D01*
X109671428Y-121907142D02*
X109371428Y-121478571D01*
X109157142Y-121907142D02*
X109157142Y-121007142D01*
X109500000Y-121007142D01*
X109585714Y-121050000D01*
X109628571Y-121092857D01*
X109671428Y-121178571D01*
X109671428Y-121307142D01*
X109628571Y-121392857D01*
X109585714Y-121435714D01*
X109500000Y-121478571D01*
X109157142Y-121478571D01*
X110528571Y-121907142D02*
X110014285Y-121907142D01*
X110271428Y-121907142D02*
X110271428Y-121007142D01*
X110185714Y-121135714D01*
X110100000Y-121221428D01*
X110014285Y-121264285D01*
X110957142Y-121907142D02*
X111128571Y-121907142D01*
X111214285Y-121864285D01*
X111257142Y-121821428D01*
X111342857Y-121692857D01*
X111385714Y-121521428D01*
X111385714Y-121178571D01*
X111342857Y-121092857D01*
X111300000Y-121050000D01*
X111214285Y-121007142D01*
X111042857Y-121007142D01*
X110957142Y-121050000D01*
X110914285Y-121092857D01*
X110871428Y-121178571D01*
X110871428Y-121392857D01*
X110914285Y-121478571D01*
X110957142Y-121521428D01*
X111042857Y-121564285D01*
X111214285Y-121564285D01*
X111300000Y-121521428D01*
X111342857Y-121478571D01*
X111385714Y-121392857D01*
X70171428Y-120157142D02*
X69871428Y-119728571D01*
X69657142Y-120157142D02*
X69657142Y-119257142D01*
X70000000Y-119257142D01*
X70085714Y-119300000D01*
X70128571Y-119342857D01*
X70171428Y-119428571D01*
X70171428Y-119557142D01*
X70128571Y-119642857D01*
X70085714Y-119685714D01*
X70000000Y-119728571D01*
X69657142Y-119728571D01*
X71028571Y-120157142D02*
X70514285Y-120157142D01*
X70771428Y-120157142D02*
X70771428Y-119257142D01*
X70685714Y-119385714D01*
X70600000Y-119471428D01*
X70514285Y-119514285D01*
X71542857Y-119642857D02*
X71457142Y-119600000D01*
X71414285Y-119557142D01*
X71371428Y-119471428D01*
X71371428Y-119428571D01*
X71414285Y-119342857D01*
X71457142Y-119300000D01*
X71542857Y-119257142D01*
X71714285Y-119257142D01*
X71800000Y-119300000D01*
X71842857Y-119342857D01*
X71885714Y-119428571D01*
X71885714Y-119471428D01*
X71842857Y-119557142D01*
X71800000Y-119600000D01*
X71714285Y-119642857D01*
X71542857Y-119642857D01*
X71457142Y-119685714D01*
X71414285Y-119728571D01*
X71371428Y-119814285D01*
X71371428Y-119985714D01*
X71414285Y-120071428D01*
X71457142Y-120114285D01*
X71542857Y-120157142D01*
X71714285Y-120157142D01*
X71800000Y-120114285D01*
X71842857Y-120071428D01*
X71885714Y-119985714D01*
X71885714Y-119814285D01*
X71842857Y-119728571D01*
X71800000Y-119685714D01*
X71714285Y-119642857D01*
X131921428Y-130407142D02*
X131621428Y-129978571D01*
X131407142Y-130407142D02*
X131407142Y-129507142D01*
X131750000Y-129507142D01*
X131835714Y-129550000D01*
X131878571Y-129592857D01*
X131921428Y-129678571D01*
X131921428Y-129807142D01*
X131878571Y-129892857D01*
X131835714Y-129935714D01*
X131750000Y-129978571D01*
X131407142Y-129978571D01*
X132778571Y-130407142D02*
X132264285Y-130407142D01*
X132521428Y-130407142D02*
X132521428Y-129507142D01*
X132435714Y-129635714D01*
X132350000Y-129721428D01*
X132264285Y-129764285D01*
X133078571Y-129507142D02*
X133678571Y-129507142D01*
X133292857Y-130407142D01*
X101921428Y-130407142D02*
X101621428Y-129978571D01*
X101407142Y-130407142D02*
X101407142Y-129507142D01*
X101750000Y-129507142D01*
X101835714Y-129550000D01*
X101878571Y-129592857D01*
X101921428Y-129678571D01*
X101921428Y-129807142D01*
X101878571Y-129892857D01*
X101835714Y-129935714D01*
X101750000Y-129978571D01*
X101407142Y-129978571D01*
X102778571Y-130407142D02*
X102264285Y-130407142D01*
X102521428Y-130407142D02*
X102521428Y-129507142D01*
X102435714Y-129635714D01*
X102350000Y-129721428D01*
X102264285Y-129764285D01*
X103550000Y-129507142D02*
X103378571Y-129507142D01*
X103292857Y-129550000D01*
X103250000Y-129592857D01*
X103164285Y-129721428D01*
X103121428Y-129892857D01*
X103121428Y-130235714D01*
X103164285Y-130321428D01*
X103207142Y-130364285D01*
X103292857Y-130407142D01*
X103464285Y-130407142D01*
X103550000Y-130364285D01*
X103592857Y-130321428D01*
X103635714Y-130235714D01*
X103635714Y-130021428D01*
X103592857Y-129935714D01*
X103550000Y-129892857D01*
X103464285Y-129850000D01*
X103292857Y-129850000D01*
X103207142Y-129892857D01*
X103164285Y-129935714D01*
X103121428Y-130021428D01*
X131921428Y-137407142D02*
X131621428Y-136978571D01*
X131407142Y-137407142D02*
X131407142Y-136507142D01*
X131750000Y-136507142D01*
X131835714Y-136550000D01*
X131878571Y-136592857D01*
X131921428Y-136678571D01*
X131921428Y-136807142D01*
X131878571Y-136892857D01*
X131835714Y-136935714D01*
X131750000Y-136978571D01*
X131407142Y-136978571D01*
X132778571Y-137407142D02*
X132264285Y-137407142D01*
X132521428Y-137407142D02*
X132521428Y-136507142D01*
X132435714Y-136635714D01*
X132350000Y-136721428D01*
X132264285Y-136764285D01*
X133592857Y-136507142D02*
X133164285Y-136507142D01*
X133121428Y-136935714D01*
X133164285Y-136892857D01*
X133250000Y-136850000D01*
X133464285Y-136850000D01*
X133550000Y-136892857D01*
X133592857Y-136935714D01*
X133635714Y-137021428D01*
X133635714Y-137235714D01*
X133592857Y-137321428D01*
X133550000Y-137364285D01*
X133464285Y-137407142D01*
X133250000Y-137407142D01*
X133164285Y-137364285D01*
X133121428Y-137321428D01*
X109421428Y-130407142D02*
X109121428Y-129978571D01*
X108907142Y-130407142D02*
X108907142Y-129507142D01*
X109250000Y-129507142D01*
X109335714Y-129550000D01*
X109378571Y-129592857D01*
X109421428Y-129678571D01*
X109421428Y-129807142D01*
X109378571Y-129892857D01*
X109335714Y-129935714D01*
X109250000Y-129978571D01*
X108907142Y-129978571D01*
X109764285Y-129592857D02*
X109807142Y-129550000D01*
X109892857Y-129507142D01*
X110107142Y-129507142D01*
X110192857Y-129550000D01*
X110235714Y-129592857D01*
X110278571Y-129678571D01*
X110278571Y-129764285D01*
X110235714Y-129892857D01*
X109721428Y-130407142D01*
X110278571Y-130407142D01*
X111092857Y-129507142D02*
X110664285Y-129507142D01*
X110621428Y-129935714D01*
X110664285Y-129892857D01*
X110750000Y-129850000D01*
X110964285Y-129850000D01*
X111050000Y-129892857D01*
X111092857Y-129935714D01*
X111135714Y-130021428D01*
X111135714Y-130235714D01*
X111092857Y-130321428D01*
X111050000Y-130364285D01*
X110964285Y-130407142D01*
X110750000Y-130407142D01*
X110664285Y-130364285D01*
X110621428Y-130321428D01*
X97912500Y-110407142D02*
X97612500Y-109978571D01*
X97398214Y-110407142D02*
X97398214Y-109507142D01*
X97741071Y-109507142D01*
X97826785Y-109550000D01*
X97869642Y-109592857D01*
X97912500Y-109678571D01*
X97912500Y-109807142D01*
X97869642Y-109892857D01*
X97826785Y-109935714D01*
X97741071Y-109978571D01*
X97398214Y-109978571D01*
X98769642Y-110407142D02*
X98255357Y-110407142D01*
X98512500Y-110407142D02*
X98512500Y-109507142D01*
X98426785Y-109635714D01*
X98341071Y-109721428D01*
X98255357Y-109764285D01*
M02*
